<?xml version="1.0" encoding="utf-8"?>
<svg version="1.1" id="Layer_1" xmlns="http://www.w3.org/2000/svg" xmlns:xlink="http://www.w3.org/1999/xlink" x="0px" y="0px"
	 viewBox="0 0 80 38" style="enable-background:new 0 0 292 120.8;" xml:space="preserve" class="css-17njbrs-variantDark">
	 <style type="text/css">
	.css-17njbrs-variantDark {fill: rgb(7, 7, 78);}
</style>
<path d="M16.5302217,12.5137284 C17.2118963,12.2598792 17.9293438,12.1164147 18.655776,12.0886914 C19.7506846,12.042103 20.8405317,12.2627345 21.8321276,12.7317202 C22.261754,12.9339882 22.7731698,12.7478934 22.9744068,12.3160658 C23.1756439,11.8842383 22.9904977,11.3702022 22.5608713,11.1679342 C20.4765315,10.1910489 18.0900588,10.0926234 15.9331,10.8945844 C15.4884366,11.0604925 15.2617753,11.5573054 15.4268378,12.0042469 C15.5919003,12.4511885 16.0861807,12.679011 16.530844,12.5131029 L16.5302217,12.5137284 Z" id="Path"></path><path d="M24.9316219,8.52106996 C24.5219007,8.29115108 24.0044303,8.43434657 23.7695229,8.84264838 C23.5346155,9.25095019 23.6692514,9.77317477 24.0718786,10.0154239 C25.3725726,10.7740079 26.4945724,11.806479 27.3608713,13.0419753 C27.5350038,13.2999853 27.8340241,13.4435658 28.1431303,13.4175924 C28.4522365,13.391619 28.7233879,13.2001284 28.8524823,12.916639 C28.9815767,12.6331496 28.9485504,12.3017207 28.7660832,12.0495967 C27.7560546,10.6092393 26.4479874,9.40553689 24.9316219,8.52106996 Z" id="Path"></path><path d="M29.798522,24.2815309 C28.7153378,24.3226567 27.6880242,24.7753453 26.9239984,25.5481975 C26.8758728,25.5851339 26.8317551,25.6270666 26.7923765,25.6733004 C23.4877099,29.5953359 17.8206392,30.4865714 13.4820288,27.7665607 C9.14341839,25.04655 7.44714982,19.5390066 9.49797322,14.8308975 C11.5487966,10.1227884 16.7256516,7.6398921 21.6569428,8.99927572 C22.1028314,9.1229333 22.5660012,8.86915397 22.7041928,8.42546806 C22.8423843,7.98178214 22.6058727,7.50783944 22.1694282,7.35386008 C21.4573171,7.15244375 20.7281422,7.01790227 19.9912874,6.95196708 L19.9810191,6.95196708 C19.8876702,6.94383539 19.7943213,6.93695473 19.7009724,6.93069959 L19.6767017,6.93069959 C19.4850253,6.91881481 19.292208,6.91151715 19.0982497,6.90880658 L19.0329055,6.90880658 C18.9600933,6.90880658 18.8869701,6.90880658 18.8150914,6.90880658 L18.7376118,6.90880658 C18.6489304,6.90880658 18.5599378,6.91255967 18.4709452,6.916 L18.4575651,6.916 C15.2691137,7.03080669 12.2589245,8.42316251 10.0981719,10.7826173 C10.0919487,10.7891852 10.0863477,10.7960658 10.0801245,10.8026337 C10.0191365,10.8691468 9.95887463,10.9362853 9.89933878,11.0040494 C9.85919876,11.0497119 9.82030338,11.096 9.78109685,11.1422881 C9.75651497,11.170749 9.73162194,11.1992099 9.70766239,11.2279835 C9.65600933,11.290535 9.60560093,11.3530864 9.55519253,11.4156379 C9.54461299,11.4293992 9.53309996,11.442535 9.52252042,11.4562963 C9.46547388,11.5280219 9.40936082,11.6001646 9.35418125,11.6727243 L9.34360171,11.6867984 C9.10877739,11.9970535 8.8899261,12.3167956 8.68704784,12.6460247 C7.43001505,14.6871553 6.81099201,17.0603411 6.90999611,19.4588148 C6.91891725,19.6875581 6.83704272,19.9104903 6.68239341,20.0785433 C6.52774409,20.2465963 6.31299539,20.345996 6.08541424,20.3548642 L6.05149747,20.3548642 C5.59049189,20.3545475 5.21197157,19.9884449 5.19393232,19.5254321 C5.06760016,16.2543045 6.07327888,13.1139095 8.04294049,10.5552428 L8.05663166,10.5374156 C8.13960845,10.4287846 8.22497083,10.3215089 8.31271879,10.2155885 C8.33014391,10.1946337 8.34694671,10.1733663 8.36437184,10.153037 C8.39050953,10.1217613 8.41758071,10.0904856 8.44402956,10.0592099 C8.47047841,10.0279342 8.49941657,9.99290535 8.5277324,9.96006584 C8.53986776,9.94599177 8.55231427,9.93223045 8.56444963,9.91846914 C8.60054454,9.87676818 8.63684688,9.83506722 8.67335667,9.79336626 C8.71484507,9.7477037 8.7555037,9.70245816 8.79533256,9.65762963 C8.80964605,9.64199177 8.82333722,9.62635391 8.83733956,9.61071605 C8.85134189,9.59507819 8.87374562,9.57255967 8.89179308,9.55316872 C8.93691171,9.5043786 8.98265266,9.45621399 9.02839362,9.40804938 L9.12174251,9.31078189 C9.16779463,9.26365981 9.21395047,9.21695473 9.26021004,9.17066667 L9.36320498,9.06933333 C9.40593803,9.02763237 9.44887852,8.98593141 9.49202645,8.94423045 C9.53185531,8.90607407 9.57199533,8.86823045 9.61244652,8.83069959 C9.64854142,8.79723457 9.68463633,8.76439506 9.7210424,8.7312428 C9.76989498,8.68683128 9.81905873,8.64241975 9.86853364,8.59863374 C9.89404901,8.57611523 9.91956437,8.55422222 9.9453909,8.53201646 C10.0076235,8.47853498 10.0679891,8.42536626 10.1302217,8.3731358 L10.161338,8.34780247 C12.0482217,6.7687997 14.3253171,5.73287469 16.7508363,5.35002469 L16.7719953,5.34689712 C16.8703228,5.33125926 16.9688578,5.31666392 17.0676002,5.30311111 L17.1298327,5.29529218 C17.2157137,5.28403292 17.3015947,5.27308642 17.388098,5.26401646 L17.3946324,5.26401646 C17.8602404,5.20966607 18.1964068,4.78998274 18.1498498,4.3211736 C18.1032929,3.85236446 17.6912248,3.50775095 17.2241151,3.54697942 L17.0918709,3.56230453 L16.9876313,3.57512757 C13.6441787,3.99462031 10.5300049,5.50513368 8.12290937,7.87491358 L8.0899261,7.9061893 C7.93434461,8.06006584 7.78187476,8.21727846 7.63251653,8.37782716 C7.60544535,8.40691358 7.57837417,8.43631276 7.55161416,8.46571193 C7.51116297,8.5098107 7.47071179,8.55390947 7.43088292,8.59832099 C7.37362894,8.66233196 7.31689356,8.7268642 7.26067678,8.7919177 C7.15695579,8.91076543 7.05582782,9.03117695 6.95729288,9.15315226 C6.9504473,9.16190947 6.94329055,9.17066667 6.9361338,9.17911111 C6.89474912,9.23009053 6.85398678,9.28169547 6.81322443,9.33298765 L6.77183975,9.38553086 C6.73740438,9.42994239 6.70296901,9.47456241 6.66853364,9.51939095 L6.60910152,9.59726749 C6.58047452,9.63511111 6.55246986,9.67295473 6.52415403,9.71079835 C6.4958382,9.74864198 6.47281214,9.78023045 6.44729677,9.81525926 L6.38101906,9.90689712 C6.34990276,9.95026612 6.31878646,9.99394787 6.28767017,10.0379424 C6.27117853,10.0613992 6.25468689,10.084856 6.23850642,10.1086255 C6.20241151,10.1601262 6.16683521,10.2122524 6.13177752,10.2650041 L6.09879424,10.3169218 C6.06021004,10.3748861 6.02183327,10.4329547 5.98366394,10.4911276 C5.73908985,10.8664362 5.51090367,11.2527956 5.29910541,11.6502058 C5.15606499,11.9257994 4.87665229,12.1028101 4.5675825,12.1136328 C4.25851272,12.1244555 3.96752162,11.9674186 3.80574651,11.7024987 C3.6439714,11.4375788 3.63639841,11.1056927 3.78591988,10.8335967 C5.1813359,8.22544668 7.21728546,6.01939945 9.70019448,4.42520165 C10.8493547,3.68917612 12.0820289,3.09404102 13.3719175,2.65249383 L13.4217036,2.63560494 C13.4783353,2.61621399 13.5352781,2.5971358 13.5919098,2.57868313 L13.7269545,2.53489712 L13.825282,2.5036214 C13.9043174,2.47901783 13.9835602,2.45493553 14.0630105,2.43137449 L14.0676779,2.43137449 C15.0636618,2.13616791 16.084354,1.93286791 17.1170751,1.824 L17.1229872,1.824 C17.2110463,1.81493004 17.2991054,1.80617284 17.3871645,1.79835391 L17.4098794,1.79616461 C17.4928562,1.78886694 17.5763516,1.78209053 17.6603656,1.77583539 L17.6942824,1.77333333 C17.7786075,1.76739095 17.8632439,1.76176132 17.9478802,1.75706996 L17.9758849,1.75519342 C18.0692338,1.7501893 18.1625827,1.74549794 18.2581097,1.74174486 C18.3975107,1.73632373 18.5370154,1.7326749 18.6766239,1.73079835 C18.7363672,1.73079835 18.7957993,1.73079835 18.8552314,1.73079835 C18.934578,1.73079835 19.0139245,1.73079835 19.0935823,1.73079835 C19.1614158,1.73079835 19.2292493,1.73330041 19.2970828,1.73455144 C19.3649164,1.73580247 19.4414625,1.73767901 19.5148969,1.73986831 C19.5808635,1.74237037 19.6462077,1.74518519 19.7118631,1.74831276 C19.7887203,1.75175309 19.8652664,1.75519342 19.9418125,1.75988477 C19.9996888,1.76301235 20.0569428,1.76707819 20.114508,1.77114403 C20.2032931,1.77698217 20.2917671,1.78365432 20.37993,1.79116049 L20.5118631,1.80273251 C20.6189032,1.81253224 20.7257358,1.82295748 20.8323609,1.83400823 C20.857254,1.83682305 20.8824582,1.8393251 20.9073512,1.84245267 C21.0392843,1.85746502 21.1709063,1.8741454 21.302217,1.89249383 L21.304084,1.89249383 C21.3504473,1.89874897 21.3974329,1.9043786 21.4431739,1.91125926 C21.9081779,1.97206826 22.3357466,1.64673102 22.4037153,1.18038282 C22.4716839,0.714034607 22.1549224,0.279099303 21.6921042,0.203292181 C20.5335677,0.0327124463 19.3618479,-0.0301050367 18.191832,0.0156378601 C13.1509918,0.212674897 8.4857254,2.37163786 5.05888759,6.09469959 C1.63204979,9.81776132 -0.150291715,14.6583045 0.0457409568,19.7262222 C0.241773629,24.7941399 2.38973162,29.4823704 6.09381564,32.9267654 C9.61493582,36.199144 14.1370673,37.976856 18.9047063,37.9765432 C19.1536367,37.9765432 19.4059899,37.9718519 19.6570984,37.9618436 C24.773219,37.7681336 29.5904546,35.4894517 32.9997666,31.6504033 C34.2521853,30.3950838 34.610694,28.4963165 33.9029109,26.8670865 C33.1951277,25.2378566 31.5658651,24.2115042 29.798522,24.2815309 Z" id="Path"></path><path d="M14.0107351,12.9293827 C13.6723828,12.5960414 13.1293721,12.6010795 12.7971995,12.940642 C11.1424678,14.6397336 10.2552143,16.9477139 10.3433683,19.3237037 C10.5219759,23.9656461 14.3359004,27.6195885 18.9187087,27.6192757 C19.0307273,27.6192757 19.1439907,27.6170864 19.2569428,27.6127078 C20.5963367,27.5641437 21.905328,27.1979517 23.0770906,26.5440165 C23.3502107,26.3971498 23.5234851,26.1138353 23.5305516,25.8025793 C23.537618,25.4913234 23.3773814,25.2003594 23.1112108,25.0411234 C22.8450401,24.8818875 22.5141822,24.8790555 22.245352,25.0337119 C19.259245,26.6911675 15.5154595,25.895495 13.4524588,23.1649449 C11.3894582,20.4343948 11.6320597,16.5959637 14.0222482,14.1497613 C14.3542208,13.8095155 14.3490673,13.2632399 14.0107351,12.9293827 Z" id="Path"></path><path d="M30.4818359,11.1363457 C30.5751848,11.2642634 30.6868923,11.3815473 30.7852198,11.5057119 C30.9744564,11.7529284 31.2816634,11.8783014 31.5887989,11.8336572 C31.8959344,11.7890131 32.1552171,11.5812971 32.2670196,11.2903225 C32.3788221,10.999348 32.3257513,10.670382 32.1281991,10.4298272 C32.0174251,10.2900247 31.8973162,10.1549136 31.7859199,10.0144856 C28.922287,6.3599177 24.3886426,3.89664198 20.3789965,3.5200823 C20.073285,3.49142166 19.7755836,3.6288689 19.5980335,3.88064897 C19.4204834,4.13242905 19.3900588,4.46029057 19.5182202,4.74073128 C19.6463816,5.02117199 19.9136584,5.21158627 20.2193699,5.24024691 C23.7818748,5.57333333 28.1104629,7.92464198 30.4818359,11.1363457 Z" id="Path"></path><path d="M24.1941657,2.41761317 C26.2826916,3.1138107 29.1276546,4.67478189 31.312641,6.88534979 C31.4585764,7.03265844 31.6592765,7.0920823 31.8509529,7.09802469 C32.1080785,7.10632921 32.3553041,6.99804448 32.5243096,6.80309465 C32.8354726,6.44404938 32.7698172,5.9301893 32.4424737,5.58521811 C30.5471801,3.58888889 27.0213925,1.59130864 24.7667056,0.790024691 C24.3195518,0.631139062 23.828912,0.866654186 23.6707896,1.3160823 C23.5127188,1.7655144 23.7439129,2.26748971 24.1941657,2.41761317 Z" id="Path"></path><path d="M16.5924543,12.5137284 C17.2770317,12.25986 17.9972464,12.1164091 18.72641,12.0886914 C19.8252333,12.0420366 20.9190284,12.2626246 21.9148969,12.7317202 C22.3445233,12.9346791 22.8564964,12.7491445 23.0584208,12.3173169 C23.2603453,11.8854893 23.0757563,11.3708931 22.6461299,11.1679342 C20.553031,10.1913082 18.1590538,10.0931632 15.9937767,10.8952099 C15.70613,11.0028688 15.497476,11.2565938 15.4464128,11.560809 C15.3953496,11.8650241 15.5096348,12.173512 15.7462183,12.3700682 C15.9828019,12.5666244 16.305741,12.6213874 16.5933878,12.5137284 L16.5924543,12.5137284 Z" id="Path"></path><path d="M25.0259043,8.52106996 C24.7603244,8.36614607 24.4326888,8.36540162 24.1664147,8.51911703 C23.9001406,8.67283244 23.7356814,8.95765469 23.7349873,9.26629399 C23.7342931,9.57493329 23.8974695,9.86049998 24.1630494,10.0154239 C25.467803,10.7731614 26.5940377,11.8056225 27.4644885,13.0419753 C27.7373013,13.4337293 28.2744203,13.5290171 28.6641774,13.2548066 C29.0539344,12.9805961 29.1487365,12.4407252 28.8759238,12.0489712 C27.8607038,10.6077108 26.5473336,9.40422588 25.0259043,8.52106996 Z" id="Path"></path><path d="M34.3872423,28.4277531 C34.2938934,26.0451687 32.2906262,24.1889547 29.911163,24.2815309 C28.8247199,24.3223294 27.7938831,24.7748559 27.0257487,25.5481975 C26.9775235,25.5851274 26.9333019,25.6270597 26.8938156,25.6733004 C25.0663723,27.8335328 22.442161,29.1521648 19.6262977,29.3251335 C16.8104345,29.4981022 14.0459983,28.5104762 11.9704395,26.5899918 C9.94227927,24.7112593 8.76546091,22.1541564 8.65873201,19.3900082 C8.55200311,16.6258601 9.52563205,13.9846255 11.4016336,11.953893 C13.2776352,9.92316049 15.8316608,8.74562963 18.5922987,8.63866667 C19.6533871,8.59634249 20.7146568,8.71785408 21.7390898,8.99896296 C22.1850923,9.12348577 22.6490093,8.87018506 22.7878373,8.42634222 C22.9266653,7.98249937 22.6904115,7.50794495 22.2537534,7.35354733 C21.5386871,7.15210905 20.8066187,7.01757182 20.0669,6.95165432 L20.0566317,6.95165432 C19.9632828,6.94352263 19.8699339,6.93664198 19.7744068,6.93038683 L19.7501361,6.93038683 C19.5578374,6.91850206 19.3643978,6.91120439 19.1698172,6.90849383 L19.1041618,6.90849383 C19.0310385,6.90849383 18.957604,6.90849383 18.8841696,6.90849383 L18.8063788,6.90849383 C18.7173862,6.90849383 18.6280825,6.91224691 18.5387787,6.91568724 L18.5253987,6.91568724 C15.3045508,7.04079012 12.3251653,8.41504527 10.1361338,10.7841811 L10.1183975,10.8041975 C10.0561649,10.8707106 9.99559186,10.9378491 9.93667834,11.0056132 C9.89653831,11.0512757 9.85733178,11.0975638 9.81781408,11.1438519 C9.79354337,11.1723128 9.76833917,11.2007737 9.74437962,11.2295473 C9.6924154,11.2920988 9.64169584,11.3546502 9.59128744,11.4172016 C9.58039673,11.430963 9.56919487,11.4440988 9.55830416,11.4578601 C9.50105018,11.5295857 9.4448334,11.6017284 9.38965383,11.6742881 L9.37876313,11.6883621 C9.14207183,11.9969492 8.92239077,12.3158573 8.71971995,12.6450864 C7.45831189,14.6845881 6.83682763,17.0584806 6.9361338,19.4578765 C6.94470962,19.6870527 6.86229822,19.910256 6.70705144,20.078324 C6.55180465,20.246392 6.33645685,20.3455386 6.1084403,20.3539259 L6.07421237,20.3539259 C5.61232452,20.3544817 5.2324117,19.9883606 5.21353559,19.5244938 C5.0865811,16.2533663 6.09599378,13.1129712 8.07343446,10.5543045 L8.08712563,10.5364774 C8.17113963,10.4278464 8.25681317,10.3205706 8.34414625,10.2146502 C8.36157137,10.1936955 8.37837417,10.172428 8.3957993,10.1520988 C8.42224815,10.120823 8.44931933,10.0895473 8.47607935,10.0582716 C8.50283936,10.0269959 8.53177752,9.99196708 8.56009335,9.95912757 C8.5722287,9.9450535 8.58467522,9.93129218 8.59681058,9.91753086 C8.63290548,9.87593416 8.66962271,9.83465021 8.70633995,9.79242798 C8.74305718,9.75020576 8.78755348,9.70141564 8.82862699,9.65669136 C8.84294049,9.6410535 8.85663166,9.62541564 8.87094516,9.60977778 C8.88525865,9.59413992 8.90735123,9.5716214 8.92539868,9.55223045 C8.97082847,9.50344033 9.01656943,9.45527572 9.06262155,9.40711111 C9.09394529,9.37458436 9.12506158,9.34216187 9.15597044,9.30984362 C9.20202256,9.26272154 9.24838584,9.21601646 9.29506029,9.1697284 C9.32928821,9.13595062 9.36351614,9.10217284 9.39836639,9.06839506 C9.44099572,9.02679835 9.48424737,8.9855144 9.52749903,8.94329218 C9.57075068,8.90106996 9.60809024,8.86729218 9.64854142,8.82976132 C9.68899261,8.79223045 9.7210424,8.76345679 9.75744846,8.73030453 C9.80661221,8.685893 9.85577596,8.64148148 9.90556204,8.59769547 C9.9310774,8.57517695 9.95690393,8.55328395 9.98241929,8.53107819 C10.0446519,8.47759671 10.1068845,8.42442798 10.1691171,8.37219753 L10.2002334,8.3468642 C12.0962344,6.76697469 14.3816379,5.73123169 16.8149358,5.34908642 L16.8360949,5.34595885 C16.9346298,5.33032099 17.0335797,5.31572565 17.1329444,5.30217284 L17.195177,5.29435391 C17.2813691,5.28309465 17.3678724,5.27214815 17.4543757,5.26307819 L17.4612213,5.26307819 C17.9282677,5.21011288 18.266114,4.78950662 18.2191776,4.31945032 C18.1722412,3.84939402 17.7579736,3.50465988 17.2897705,3.54604115 L17.1572151,3.56136626 L17.0526643,3.5741893 C13.6981236,3.99186313 10.5720265,5.50244608 8.15246986,7.87491358 L8.11917542,7.9061893 C7.96297161,8.06006584 7.80998315,8.21727846 7.66021004,8.37782716 C7.63282769,8.40691358 7.60575651,8.43631276 7.57868534,8.46571193 C7.53823415,8.5098107 7.49778296,8.55390947 7.4579541,8.59832099 C7.40028523,8.66233196 7.34323869,8.7268642 7.28681447,8.7919177 C7.18309348,8.91076543 7.08165435,9.03117695 6.98249708,9.15315226 L6.96102684,9.17911111 C6.91964216,9.23009053 6.87856865,9.28169547 6.83656165,9.33298765 L6.79486581,9.38553086 C6.76001556,9.42994239 6.72547647,9.47456241 6.69124854,9.51939095 C6.67050434,9.54524554 6.65058991,9.57120439 6.63150525,9.59726749 L6.5462466,9.71079835 C6.52042007,9.7455144 6.49490471,9.78023045 6.46938934,9.81525926 C6.44698561,9.84653498 6.42458187,9.87624691 6.4024893,9.90689712 L6.30914041,10.0379424 L6.2596655,10.1086255 C6.22388176,10.1602305 6.18809802,10.2121481 6.1529366,10.2650041 L6.11777518,10.3166091 C6.07887981,10.3744691 6.04060677,10.432642 6.00233372,10.4908148 C5.75651497,10.8661235 5.52698042,11.2524829 5.31373007,11.649893 C5.07938094,12.0502473 4.57244554,12.193352 4.16498544,11.9741763 C3.75752534,11.7550007 3.59477694,11.2516685 3.79618825,10.8335967 C5.85994037,6.98230168 9.29801215,4.05929925 13.4189032,2.65249383 L13.4690004,2.63560494 C13.5260469,2.61621399 13.5830935,2.59724005 13.64014,2.57868313 L13.7754959,2.53489712 L13.8741346,2.5036214 C13.9535849,2.47901783 14.0331389,2.45493553 14.1127966,2.43137449 L14.117464,2.43137449 C15.1175571,2.13609484 16.1422841,1.93280025 17.1789965,1.824 L17.1849086,1.824 C17.2732789,1.81493004 17.3616492,1.80617284 17.4503306,1.79835391 L17.4730455,1.79616461 C17.5560223,1.78886694 17.6398289,1.78209053 17.7244652,1.77583539 L17.758382,1.77333333 C17.8433294,1.76739095 17.9279658,1.76176132 18.0132244,1.75706996 L18.0409179,1.75519342 C18.1342668,1.7501893 18.2294827,1.74549794 18.3243874,1.74174486 C18.4644107,1.73632373 18.6044341,1.7326749 18.7444574,1.73079835 C18.8045119,1.73079835 18.863944,1.73079835 18.9236873,1.73079835 C19.003345,1.73079835 19.0833139,1.73079835 19.1629716,1.73079835 C19.2311163,1.73079835 19.299261,1.73330041 19.3674057,1.73455144 C19.4355504,1.73580247 19.5124076,1.73767901 19.5852198,1.73986831 C19.6514975,1.74237037 19.7171529,1.74518519 19.7831194,1.74831276 C19.8602878,1.75175309 19.9387009,1.75519342 20.0140023,1.75988477 C20.0718786,1.76301235 20.1294438,1.76707819 20.1873201,1.77114403 C20.2761053,1.77698217 20.3647867,1.78365432 20.4533644,1.79116049 L20.5859199,1.80273251 C20.6935823,1.81242798 20.8006223,1.82337449 20.9076624,1.83400823 L20.983275,1.84245267 C21.115623,1.85746502 21.2476598,1.8741454 21.3793855,1.89249383 L21.3812524,1.89249383 C21.4276157,1.89874897 21.4746013,1.9043786 21.5209646,1.91125926 C21.8270421,1.96139311 22.1362361,1.84177546 22.3298851,1.59831278 C22.5235341,1.35485011 22.5715557,1.02536315 22.4555203,0.736301356 C22.3394849,0.447239558 22.0774181,0.243507258 21.769895,0.203292181 C20.6068682,0.0327006876 19.4307063,-0.0301148257 18.2562427,0.0156378601 C13.1957993,0.211736626 8.51435239,2.37069959 5.07444574,6.09376132 C1.63453909,9.81682305 -0.150914041,14.6583045 0.0457409568,19.7262222 C0.242395955,24.7941399 2.39875535,29.4823704 6.1168417,32.9264527 C9.64978608,36.199144 14.1905873,37.976856 18.9762738,37.9765432 C19.2270712,37.9765432 19.4794243,37.9718519 19.7314664,37.9618436 C24.8624797,37.770539 29.6961836,35.4928988 33.124543,31.6510288 C33.976769,30.8022846 34.4349599,29.6326667 34.3872423,28.4277531 Z" id="Path"></path><path d="M14.0645663,12.9293827 C13.7244782,12.5952597 13.1796618,12.6002926 12.845741,12.940642 C11.1858725,14.6370678 10.2947735,16.9459747 10.3822637,19.3237037 C10.5627382,23.9656461 14.3912874,27.6195885 18.9908985,27.6192757 C19.1035395,27.6192757 19.217114,27.6170864 19.3303773,27.6127078 C20.6743227,27.5642808 21.9879918,27.198152 23.1648386,26.5440165 C23.4332533,26.3941208 23.601718,26.1116802 23.6067735,25.8030874 C23.6118291,25.4944946 23.4527075,25.2066322 23.1893484,25.0479351 C22.9259893,24.8892381 22.598403,24.8838162 22.3299883,25.0337119 C20.2388393,26.1959941 17.6980575,26.1871456 15.6149717,25.0103263 C13.5318859,23.8335071 12.2035192,21.6565174 12.1042396,19.2567737 C12.0295605,17.3358189 12.7296772,15.5221399 14.0751459,14.1497613 C14.235384,13.9868507 14.3243691,13.7664366 14.3223833,13.5373604 C14.3203974,13.3082841 14.2276045,13.0894621 14.0645663,12.9293827 Z" id="Path"></path><path d="M30.5972773,11.1363457 C30.6906262,11.2642634 30.802956,11.3815473 30.9019059,11.5057119 C31.1991328,11.8741287 31.7360811,11.9332763 32.1056401,11.6383095 C32.4751991,11.3433427 32.5395328,10.8042764 32.2498639,10.4298272 C32.1387787,10.2900247 32.0180475,10.1549136 31.9075846,10.0144856 C29.0315053,6.3599177 24.4807468,3.89664198 20.4561649,3.5200823 C19.9835759,3.4755177 19.5645241,3.82446291 19.5201867,4.29947325 C19.4758493,4.77448359 19.8230158,5.19568231 20.2956048,5.24024691 C23.872112,5.57333333 28.2168806,7.92464198 30.5972773,11.1363457 Z" id="Path"></path><path d="M24.2856476,2.41761317 C26.3822637,3.1138107 29.2381175,4.67478189 31.4311941,6.88534979 C31.5774407,7.03265844 31.7790743,7.0920823 31.971373,7.09802469 C32.2293222,7.10642195 32.4774415,6.99819589 32.6475301,6.80309465 C32.9605601,6.44404938 32.8939712,5.9301893 32.5653831,5.58521811 C30.6629327,3.58888889 27.1237651,1.59130864 24.8619214,0.790024691 C24.4132353,0.62986595 23.9202817,0.865288576 23.7604045,1.3160823 C23.6017114,1.7655144 23.8350836,2.26748971 24.2856476,2.41761317 Z" id="Path"></path><path d="M56.4626993,14.8140576 C54.1638273,14.8140576 52.2931155,16.686535 52.2931155,18.988428 C52.2931155,21.290321 54.163205,23.1627984 56.4626993,23.1627984 C58.7621937,23.1627984 60.6322832,21.2900082 60.6322832,18.988428 C60.6322832,16.6868477 58.7612602,14.8140576 56.4626993,14.8140576 Z M56.4626993,21.6321646 C55.0064566,21.6321646 53.821548,20.4458765 53.821548,18.9878025 C53.821548,17.5297284 55.0064566,16.3431276 56.4626993,16.3431276 C57.918942,16.3431276 59.1035395,17.5294156 59.1035395,18.9878025 C59.1035395,20.4461893 57.9186309,21.6327901 56.4626993,21.6327901 L56.4626993,21.6321646 Z" id="Shape" fill-rule="nonzero"></path><path d="M46.894438,16.3437531 C47.8126219,16.3404054 48.6660193,16.8187884 49.1457021,17.6057284 C49.3658426,17.966909 49.8356041,18.0803302 50.1949436,17.8590617 C50.5542831,17.6377933 50.6671262,17.165625 50.4469856,16.8044444 C49.6899449,15.5628627 48.3432057,14.8083248 46.894438,14.8140576 C44.5958771,14.8140576 42.7248541,16.686535 42.7248541,18.988428 C42.7248541,21.290321 44.5949436,23.1627984 46.894438,23.1627984 C48.3429571,23.1687974 49.6896406,22.4147649 50.4469856,21.1736626 C50.6672121,20.812482 50.5544387,20.3402437 50.1950992,20.1188889 C49.8357597,19.8975341 49.3659286,20.0108853 49.1457021,20.3720658 C48.6661507,21.1591433 47.8126693,21.6375734 46.894438,21.6340412 C45.4381953,21.6340412 44.2535978,20.4477531 44.2535978,18.989679 C44.2535978,17.5316049 45.4381953,16.3437531 46.894438,16.3437531 Z" id="Path"></path><path d="M75.7118631,21.6327901 L72.4950603,21.6327901 L72.4950603,15.5790617 C72.4950603,15.155007 72.1530483,14.8112428 71.7311552,14.8112428 C71.3092621,14.8112428 70.9672501,15.155007 70.9672501,15.5790617 L70.9672501,22.3971687 C70.9675799,22.6004466 71.0482578,22.7952624 71.1915268,22.9387376 C71.3347959,23.0822127 71.5289136,23.162588 71.7311552,23.1621728 L75.7118631,23.1621728 C75.9837796,23.1621729 76.2350408,23.0163639 76.3709991,22.7796708 C76.5069573,22.5429777 76.5069573,22.2513598 76.3709991,22.0146667 C76.2350408,21.7779735 75.9837796,21.6321646 75.7118631,21.6321646 L75.7118631,21.6327901 Z" id="Path"></path><path d="M79.2155581,14.8140576 C79.0133166,14.8136425 78.8191988,14.8940177 78.6759298,15.0374929 C78.5326608,15.180968 78.4519828,15.3757839 78.4516531,15.5790617 L78.4516531,22.3971687 C78.4516531,22.8212234 78.793665,23.1649877 79.2155581,23.1649877 C79.6374513,23.1649877 79.9794632,22.8212234 79.9794632,22.3971687 L79.9794632,15.5790617 C79.9791335,15.3757839 79.8984555,15.180968 79.7551865,15.0374929 C79.6119175,14.8940177 79.4177997,14.8136425 79.2155581,14.8140576 Z" id="Path"></path><path d="M67.7177752,18.7813827 C68.0467149,18.3521289 68.2248577,17.8254109 68.2243485,17.2835885 C68.2243485,15.9218436 67.117853,14.8128066 65.7577596,14.8128066 L63.1287437,14.8128066 C62.9265021,14.8123915 62.7323844,14.8927667 62.5891153,15.0362419 C62.4458463,15.179717 62.3651684,15.3745328 62.3648386,15.5778107 L62.3648386,22.3959177 C62.3651684,22.5991956 62.4458463,22.7940114 62.5891153,22.9374865 C62.7323844,23.0809617 62.9265021,23.1613369 63.1287437,23.1609218 L66.1579152,23.1609218 C67.5180086,23.1609218 68.6245041,22.052823 68.6245041,20.6901399 C68.6234748,19.9491495 68.290424,19.2480436 67.7177752,18.7813827 Z M63.8926488,16.3437531 L65.7577596,16.3437531 C66.2741706,16.3437531 66.6928044,16.7645317 66.6928044,17.2835885 C66.6928044,17.8026452 66.2741706,18.2234239 65.7577596,18.2234239 L63.8926488,18.2234239 L63.8926488,16.3437531 Z M66.1579152,21.6327901 L63.8926488,21.6327901 L63.8926488,19.7534321 L66.1579152,19.7534321 C66.6742402,19.7534321 67.0928044,20.1741407 67.0928044,20.6931111 C67.0928044,21.2120815 66.6742402,21.6327901 66.1579152,21.6327901 Z" id="Shape" fill-rule="nonzero"></path>
</svg>