<svg id="Layer_1" data-name="Layer 1" xmlns="http://www.w3.org/2000/svg" viewBox="0 0 426.4 82.56"><defs><style>.cls-1{fill:#004f9d;}</style></defs><title>Facebook</title><g id="_Group_" data-name="&lt;Group&gt;"><path id="_Path_" data-name="&lt;Path&gt;" class="cls-1" d="M32.36,14.66c-5,0-6.47,2.23-6.47,7.14V30H39.28L37.94,43.11h-12v40H9.82V43.11H-1V30H9.82V22c0-13.27,5.36-20.3,20.31-20.3a74.54,74.54,0,0,1,9.37.56V14.66" transform="translate(1 -1.72)"/><path id="_Compound_Path_" data-name="&lt;Compound Path&gt;" class="cls-1" d="M40.39,54.83c0-14.84,7-26,21.76-26,8,0,12.94,4.13,15.28,9.26V29.94h15.4V83.05H77.43V75c-2.23,5.12-7.25,9.14-15.28,9.14-14.73,0-21.76-11.15-21.76-26m16.07.22c0,7.92,2.9,13.16,10.38,13.16,6.58,0,9.93-4.8,9.93-12.38V53.82c0-7.59-3.35-12.38-9.93-12.38-7.48,0-10.38,5.24-10.38,13.17Z" transform="translate(1 -1.72)"/><path id="_Path_2" data-name="&lt;Path&gt;" class="cls-1" d="M126.3,28.83c6.24,0,12.16,1.34,15.39,3.57l-3.57,11.38a25.19,25.19,0,0,0-10.71-2.45c-8.7,0-12.49,5-12.49,13.61v3.12c0,8.59,3.79,13.61,12.49,13.61a25.34,25.34,0,0,0,10.71-2.45l3.57,11.38c-3.23,2.23-9.15,3.57-15.39,3.57-18.85,0-27.45-10.16-27.45-26.44V55.27c0-16.29,8.6-26.44,27.45-26.44" transform="translate(1 -1.72)"/><path id="_Compound_Path_2" data-name="&lt;Compound Path&gt;" class="cls-1" d="M143.81,58.51V53.82c0-15.06,8.59-25,26.11-25,16.51,0,23.76,10,23.76,24.77v8.48h-33.8c.33,7.25,3.57,10.49,12.5,10.49a45.62,45.62,0,0,0,17.07-3.24l2.9,11c-4.24,2.23-12.95,3.9-20.65,3.9-20.3,0-27.89-10.15-27.89-25.77m16.07-6.92h19.41V50.25c0-5.8-2.34-10.37-9.37-10.37-7.25,0-10,4.57-10,11.71" transform="translate(1 -1.72)"/><path id="_Compound_Path_3" data-name="&lt;Compound Path&gt;" class="cls-1" d="M253.26,58.17c0,14.84-7.14,26-21.86,26-8,0-13.62-4-15.85-9.15v8H200.38V3.27l16.07-1.44V37.31c2.34-4.69,7.47-8.48,15-8.48,14.72,0,21.86,11.15,21.86,26m-16.06-.33c0-7.48-2.91-13.05-10.6-13.05-6.59,0-10.15,4.68-10.15,12.27v5.57c0,7.59,3.56,12.28,10.15,12.28,7.69,0,10.6-5.58,10.6-13.06Z" transform="translate(1 -1.72)"/><path id="_Compound_Path_4" data-name="&lt;Compound Path&gt;" class="cls-1" d="M258.61,57.84V55.16c0-15.28,8.7-26.33,26.45-26.33S311.5,39.88,311.5,55.16v2.68c0,15.29-8.71,26.33-26.44,26.33s-26.45-11-26.45-26.33M295.43,54c0-7-2.9-12.6-10.37-12.6S274.68,47,274.68,54V59c0,7,2.9,12.61,10.38,12.61S295.43,66,295.43,59Z" transform="translate(1 -1.72)"/><path id="_Compound_Path_5" data-name="&lt;Compound Path&gt;" class="cls-1" d="M316.85,57.84V55.16c0-15.28,8.7-26.33,26.44-26.33s26.45,11.05,26.45,26.33v2.68c0,15.29-8.71,26.33-26.45,26.33s-26.44-11-26.44-26.33M353.67,54c0-7-2.91-12.6-10.38-12.6S332.92,47,332.92,54V59c0,7,2.89,12.61,10.37,12.61S353.67,66,353.67,59Z" transform="translate(1 -1.72)"/><polyline id="_Path_3" data-name="&lt;Path&gt;" class="cls-1" points="392.82 53.55 408.66 28.22 425.73 28.22 409.11 54.44 426.4 81.33 409.33 81.33 392.82 55.34 392.82 81.33 376.75 81.33 376.75 1.56 392.82 0.1"/></g></svg>