<?xml version="1.0" encoding="utf-8"?>
<!-- Generator: Adobe Illustrator 22.0.0, SVG Export Plug-In . SVG Version: 6.00 Build 0)  -->
<svg version="1.1" id="Layer_1" xmlns="http://www.w3.org/2000/svg" xmlns:xlink="http://www.w3.org/1999/xlink" x="0px" y="0px"
	 viewBox="0 0 292 120.8" style="enable-background:new 0 0 292 120.8;" xml:space="preserve">
<style type="text/css">
	.st0{fill:#6B2A7E;}
	.st1{fill:#6D6E71;}
</style>
<g>
	<path class="st0" d="M124.5,118.4c-15.8,0-37.9-12-37.9-31.6l0-10.1c0-10.6,0-27.8,0-54.9c0-2.6,2.1-4.6,4.6-4.6h15
		c2.6,0,4.6,2.1,4.6,4.6v60.4c0,7.5,6.1,13.6,13.6,13.6H138c0-17.9,0-66.8,0-73.3h0c0,0,0-0.1,0-0.1c0-0.1,0-0.1,0-0.2
		c0-0.1,0-0.1,0-0.2c0,0,0-0.1,0-0.1h0c0,0,0,0,0,0c0-2.6,2.1-4.6,4.6-4.6h15c2.6,0,4.6,2.1,4.6,4.6v61.6c0,7.4-8.1,15.5-15.4,15.5
		h-5.7l0,6.6C141.1,113.5,134.7,118.4,124.5,118.4z M91.2,20.3c-0.9,0-1.6,0.7-1.6,1.6c0,27,0,44.3,0,54.9l0,10.1
		c0,17.7,20.3,28.5,34.8,28.5c4.1,0,13.5-0.9,13.5-9.7l0-6.7h-13.6c-9.2,0-16.7-7.5-16.7-16.7V21.8c0-0.9-0.7-1.6-1.6-1.6H91.2z
		 M141.1,95.9h5.7c5.7,0,12.4-6.7,12.4-12.4V21.8c0-0.9-0.7-1.6-1.6-1.6h-15c-0.9,0-1.6,0.7-1.6,1.6
		C141.1,22.2,141.1,67.7,141.1,95.9L141.1,95.9z"/>
</g>
<g>
	<path class="st0" d="M72.9,99h-15c-2.6,0-4.6-2.1-4.6-4.6V34c0-7.5-6.1-13.6-13.6-13.6H26.1c0,17.9,0,66.8,0,73.3h0
		c0,0,0,0.1,0,0.1c0,0.1,0,0.1,0,0.2c0,0.1,0,0.1,0,0.2c0,0,0,0.1,0,0.1h0c0,0,0,0,0,0c0,2.6-2.1,4.6-4.6,4.6h-15
		c-2.6,0-4.6-2.1-4.6-4.6V32.8c0-7.4,8.1-15.5,15.4-15.5H23l0-6.6c0-7.9,6.4-12.8,16.6-12.8c15.8,0,37.9,12,37.9,31.6l0,10.1
		c0,10.6,0,27.8,0,54.9C77.5,97,75.5,99,72.9,99z M72.9,96c0.9,0,1.6-0.7,1.6-1.6c0-27,0-44.3,0-54.9l0-10.1
		c0-17.7-20.3-28.5-34.8-28.5c-4.1,0-13.5,0.9-13.5,9.7l0,6.7h13.6c9.2,0,16.7,7.5,16.7,16.7v60.4c0,0.9,0.7,1.6,1.6,1.6H72.9z
		 M21.5,96c0.9,0,1.6-0.7,1.6-1.6c0-0.4,0-45.9,0-74h-5.7c-5.7,0-12.4,6.7-12.4,12.4v61.6c0,0.9,0.7,1.6,1.6,1.6H21.5z"/>
</g>
<g>
	<path class="st1" d="M189.2,96.5c-3.8,0-7-1-8.8-2.3V47.5h3.2v16.9c1.6-0.9,3.5-1.6,7-1.6c7.4,0,12.5,6.3,12.5,16.4
		C203.1,89.2,198.3,96.5,189.2,96.5z M189.9,64.8c-2.9,0-4.6,0.5-6.3,1.5v27c1.5,0.7,3.5,1,5.4,1c7.8,0,10.8-6.4,10.8-15.1
		C199.8,71.5,196.7,64.8,189.9,64.8z"/>
	<path class="st1" d="M220.2,96.5c-8,0-11.5-3.8-11.5-9.4c0-8.8,8-11.4,18.3-12.5v-2.3c0-5.9-3.5-7.5-8-7.5c-3.2,0-5.9,1.2-7.6,2.1
		l-0.9-2.1c1.7-1,5.1-2.4,8.9-2.4c5.5,0,10.7,2.4,10.7,10v21.7C227.7,95.6,224.3,96.5,220.2,96.5z M227,76.6
		c-9.6,1.3-15.1,3.2-15.1,10.5c0,5.2,3.3,7.4,8.7,7.4c2.4,0,4.8-0.5,6.4-1.3V76.6z"/>
	<path class="st1" d="M257.6,95.9V72.1c0-3.4-1.3-7.3-7.8-7.3c-3.7,0-5.3,0.5-7.3,1.3v29.8h-3.3V64.8c2.7-1.5,6.1-2.3,11.1-2.3
		c8.5,0,10.6,5.3,10.6,9.4v24H257.6z"/>
	<path class="st1" d="M287.2,95.9l-14-17.1h-0.1v17.1H270V47.5h3.2v31.2h0.1l12.9-15.6h3.6l-13.5,15.6l14.8,17.1H287.2z"/>
</g>
</svg>
