<svg id="Layer_35" enable-background="new 0 0 64 64" height="512" viewBox="0 0 64 64" width="512" xmlns="http://www.w3.org/2000/svg" xmlns:xlink="http://www.w3.org/1999/xlink"><linearGradient id="SVGID_1_" gradientUnits="userSpaceOnUse" x1="32" x2="32" y1="63" y2="1"><stop offset="0" stop-color="#9f2fff"/><stop offset="1" stop-color="#0bb1d3"/></linearGradient><path d="m42.683 26.766 1.944.469c-.711 2.948-2.406 5.414-5.039 7.33l-1.177-1.617c2.239-1.629 3.676-3.709 4.272-6.182zm.317-2.766c0 .314-.011.623-.034.927l1.995.146c.026-.352.039-.71.039-1.073v-1h-2zm-8-4v-2c-1.103 0-2-.897-2-2s.897-2 2-2 2 .897 2 2h2c0-2.206-1.794-4-4-4s-4 1.794-4 4 1.794 4 4 4zm-8-6c0-1.654-1.346-3-3-3v2c.551 0 1 .449 1 1s-.449 1-1 1-1-.449-1-1h-2c0 1.654 1.346 3 3 3s3-1.346 3-3zm1 3v2c.551 0 1 .449 1 1s-.449 1-1 1-1-.449-1-1h-2c0 1.654 1.346 3 3 3s3-1.346 3-3-1.346-3-3-3zm-20 19h6.451l-.387-4.258-3.064-1.021v-10.721c0-1.717.246-3.39.681-5h-3.681c-1.654 0-3-1.346-3-3v-1.101c-2.279-.465-4-2.485-4-4.899 0-2.757 2.243-5 5-5s5 2.243 5 5c0 2.414-1.721 4.434-4 4.899v1.101c0 .551.449 1 1 1h4.341c.983-2.483 2.48-4.756 4.466-6.673 3.743-3.612 8.676-5.501 13.885-5.314 9.953.353 18.06 8.83 18.287 18.987h7.021c1.654 0 3 1.346 3 3v9.101c2.279.465 4 2.484 4 4.899 0 2.757-2.243 5-5 5s-5-2.243-5-5c0-2.414 1.721-4.434 4-4.899v-9.101c0-.551-.449-1-1-1h-7v2c0 6.808-3.544 12.321-10 15.589v5.747l11.015 4.638c4.851 2.042 7.985 6.762 7.985 12.026v1h-52v-1c0-5.264 3.134-9.984 7.985-12.026l11.015-4.638v-2.336h-9.913l-.455-5h-6.632c-.551 0-1 .448-1 1v1.101c2.279.465 4 2.484 4 4.899 0 2.757-2.243 5-5 5s-5-2.243-5-5c0-2.414 1.721-4.434 4-4.899v-1.101c0-1.654 1.346-3 3-3zm-2 6c-1.654 0-3 1.346-3 3s1.346 3 3 3 3-1.346 3-3-1.346-3-3-3zm52-8c-1.654 0-3 1.346-3 3s1.346 3 3 3 3-1.346 3-3-1.346-3-3-3zm-52-25c1.654 0 3-1.346 3-3s-1.346-3-3-3-3 1.346-3 3 1.346 3 3 3zm25 20.555v16.737c0 2.057-1.234 3.879-3.144 4.643l-5.162 2.065h18.612l-5.163-2.065c-1.909-.764-3.143-2.586-3.143-4.643v-18.176c0-1.887 1.069-3.604 2.79-4.479 3.262-1.658 5.21-4.512 5.21-7.637 0-4.962-4.935-9-11-9s-11 4.038-11 9c0 4.065 3.351 7.641 8.149 8.694 2.231.49 3.851 2.534 3.851 4.861zm-13.54 27.445h29.08c-.472-.744-1.05-1.414-1.718-2h-25.644c-.668.586-1.246 1.256-1.718 2zm-1.385 4h31.85c-.073-.689-.213-1.359-.429-2h-30.992c-.216.641-.356 1.311-.429 2zm-.138-30.742.976 10.742h10.087v5.664l-12.239 5.153c-3.797 1.599-6.352 5.136-6.716 9.183h6.003c.369-4.246 3.063-7.921 7.081-9.528l5.986-2.395c1.145-.458 1.885-1.551 1.885-2.785v-16.737c0-1.395-.958-2.617-2.279-2.907-5.724-1.257-9.721-5.635-9.721-10.648 0-6.065 5.832-11 13-11s13 4.935 13 11c0 3.893-2.356 7.415-6.304 9.421-1.046.532-1.696 1.564-1.696 2.695v18.176c0 1.234.74 2.327 1.886 2.785l5.986 2.395c4.017 1.607 6.712 5.282 7.081 9.528h6.003c-.364-4.047-2.919-7.584-6.716-9.183l-12.24-5.153v-8.332l.572-.271c6.08-2.877 9.428-7.872 9.428-14.061v-3.568c0-9.285-7.348-17.1-16.379-17.42-4.653-.175-9.075 1.522-12.424 4.754-3.352 3.234-5.197 7.578-5.197 12.234v9.279z" fill="url(#SVGID_1_)"/></svg>