<svg xmlns="http://www.w3.org/2000/svg" viewBox="0 0 731.98 483.69"><defs><style>.cls-1{opacity:0.4;}.cls-2{fill:#55dde0;}.cls-3{fill:none;stroke:#4dffe1;stroke-miterlimit:10;stroke-width:0.5px;}.cls-4{fill:#4dffe1;}</style></defs><title>circuit</title><g id="BACKGROUND_2" data-name="BACKGROUND 2" class="cls-1"><polygon class="cls-2" points="140.65 283.76 139.65 283.76 139.65 420.87 154.55 435.77 154.55 483.69 155.55 483.69 155.55 435.35 140.65 420.45 140.65 283.76"/><rect class="cls-2" x="463.55" y="417.23" width="1" height="66.46"/><path class="cls-2" d="M1047.33,416a4.2,4.2,0,1,0,4.2-4.2A4.2,4.2,0,0,0,1047.33,416Z" transform="translate(-587.66 0)"/><polygon class="cls-2" points="468.57 298.76 467.57 298.76 467.57 382.96 486.55 401.93 486.55 483.69 487.55 483.69 487.55 401.52 468.57 382.54 468.57 298.76"/><circle class="cls-2" cx="468.07" cy="298.76" r="4.2"/><path class="cls-2" d="M1070.51,402.93a4.2,4.2,0,1,0,4.2-4.2A4.2,4.2,0,0,0,1070.51,402.93Z" transform="translate(-587.66 0)"/><rect class="cls-2" x="506.78" y="420.76" width="1" height="62.92"/><path class="cls-2" d="M1090.74,420.76a4.2,4.2,0,1,0,4.2-4.2A4.21,4.21,0,0,0,1090.74,420.76Z" transform="translate(-587.66 0)"/><path class="cls-2" d="M1090.74,442.39a4.2,4.2,0,1,0,4.2-4.2A4.2,4.2,0,0,0,1090.74,442.39Z" transform="translate(-587.66 0)"/><polygon class="cls-2" points="507.78 339.94 506.78 339.94 506.78 374.2 530.55 397.97 530.55 483.69 531.55 483.69 531.55 397.56 507.78 373.79 507.78 339.94"/><path class="cls-2" d="M1090.74,373.87a4.2,4.2,0,1,0,4.2-4.2A4.2,4.2,0,0,0,1090.74,373.87Z" transform="translate(-587.66 0)"/><path class="cls-2" d="M1114.51,398.73a4.2,4.2,0,1,0,4.2-4.2A4.2,4.2,0,0,0,1114.51,398.73Z" transform="translate(-587.66 0)"/><path class="cls-2" d="M1114.51,432.16a4.2,4.2,0,1,0,4.2-4.2A4.2,4.2,0,0,0,1114.51,432.16Z" transform="translate(-587.66 0)"/><path class="cls-2" d="M1090.74,339.94a4.2,4.2,0,1,0,4.2-4.2A4.2,4.2,0,0,0,1090.74,339.94Z" transform="translate(-587.66 0)"/><polygon class="cls-2" points="555.3 260.76 554.3 260.76 554.3 304.18 577.05 326.93 577.05 375.06 552.55 399.56 552.55 483.69 553.55 483.69 553.55 399.97 578.05 375.47 578.05 326.52 555.3 303.77 555.3 260.76"/><path class="cls-2" d="M1138,260.76a4.2,4.2,0,1,0,4.2-4.2A4.21,4.21,0,0,0,1138,260.76Z" transform="translate(-587.66 0)"/><path class="cls-2" d="M1138,303a4.2,4.2,0,1,0,4.2-4.21A4.21,4.21,0,0,0,1138,303Z" transform="translate(-587.66 0)"/><path class="cls-2" d="M1160.86,326.73a4.2,4.2,0,1,0,4.2-4.2A4.2,4.2,0,0,0,1160.86,326.73Z" transform="translate(-587.66 0)"/><path class="cls-2" d="M1160.86,373.87a4.2,4.2,0,1,0,4.2-4.2A4.2,4.2,0,0,0,1160.86,373.87Z" transform="translate(-587.66 0)"/><path class="cls-2" d="M1136,399.76a4.2,4.2,0,1,0,4.2-4.2A4.21,4.21,0,0,0,1136,399.76Z" transform="translate(-587.66 0)"/><polygon class="cls-2" points="418.07 345.97 418.07 381.04 438.55 401.52 438.55 483.69 437.55 483.69 437.55 401.93 417.07 381.46 417.07 345.56 436.46 326.17 437.16 326.88 418.07 345.97"/><path class="cls-2" d="M1020,326.17a4.2,4.2,0,1,0,4.2-4.2A4.2,4.2,0,0,0,1020,326.17Z" transform="translate(-587.66 0)"/><path class="cls-2" d="M1001.13,346.05a4.2,4.2,0,1,0,4.2-4.2A4.21,4.21,0,0,0,1001.13,346.05Z" transform="translate(-587.66 0)"/><path class="cls-2" d="M1001.13,381.55a4.2,4.2,0,1,0,4.2-4.2A4.21,4.21,0,0,0,1001.13,381.55Z" transform="translate(-587.66 0)"/><circle class="cls-2" cx="437.8" cy="401.68" r="4.2"/><polygon class="cls-2" points="582.52 169.76 581.52 169.76 581.52 237.88 598.07 254.43 598.07 388.08 574.55 411.61 574.55 483.69 575.55 483.69 575.55 412.02 599.07 388.5 599.07 254.02 582.52 237.47 582.52 169.76"/><path class="cls-2" d="M1165.06,237.1a4.2,4.2,0,1,0,4.2-4.2A4.2,4.2,0,0,0,1165.06,237.1Z" transform="translate(-587.66 0)"/><path class="cls-2" d="M1182,254.05a4.2,4.2,0,1,0,4.2-4.2A4.21,4.21,0,0,0,1182,254.05Z" transform="translate(-587.66 0)"/><path class="cls-2" d="M1182,326.73a4.2,4.2,0,1,0,4.2-4.2A4.2,4.2,0,0,0,1182,326.73Z" transform="translate(-587.66 0)"/><path class="cls-2" d="M1182,388.06a4.2,4.2,0,1,0,4.2-4.2A4.2,4.2,0,0,0,1182,388.06Z" transform="translate(-587.66 0)"/><path class="cls-2" d="M1158.13,411.94a4.2,4.2,0,1,0,4.2-4.2A4.21,4.21,0,0,0,1158.13,411.94Z" transform="translate(-587.66 0)"/><path class="cls-2" d="M1165.39,168.93a4.2,4.2,0,1,0,4.2-4.2A4.2,4.2,0,0,0,1165.39,168.93Z" transform="translate(-587.66 0)"/><polygon class="cls-2" points="657.21 104.93 634.58 127.56 634.58 271.9 622.92 283.56 622.92 411.98 599.55 435.35 599.55 483.69 600.55 483.69 600.55 435.77 623.92 412.4 623.92 283.97 635.58 272.31 635.58 127.97 657.92 105.63 657.21 104.93"/><path class="cls-2" d="M1241.38,104.93a4.2,4.2,0,1,0,4.2-4.2A4.2,4.2,0,0,0,1241.38,104.93Z" transform="translate(-587.66 0)"/><circle class="cls-2" cx="635.13" cy="127.91" r="4.2"/><circle class="cls-2" cx="635.13" cy="189.28" r="4.2"/><path class="cls-2" d="M1218.6,245.65a4.2,4.2,0,1,0,4.2-4.21A4.21,4.21,0,0,0,1218.6,245.65Z" transform="translate(-587.66 0)"/><path class="cls-2" d="M1218.6,272a4.2,4.2,0,1,0,4.2-4.2A4.2,4.2,0,0,0,1218.6,272Z" transform="translate(-587.66 0)"/><path class="cls-2" d="M1207.22,283.77a4.2,4.2,0,1,0,4.2-4.2A4.2,4.2,0,0,0,1207.22,283.77Z" transform="translate(-587.66 0)"/><path class="cls-2" d="M1207.22,329.27a4.2,4.2,0,1,0,4.2-4.2A4.2,4.2,0,0,0,1207.22,329.27Z" transform="translate(-587.66 0)"/><circle class="cls-2" cx="623.76" cy="411.64" r="4.2"/><circle class="cls-2" cx="599.29" cy="436.1" r="4.2"/><path class="cls-2" d="M1241.38,168.93h-1c.15,29.17-.24,82-.56,114.27l-17.36,17.36v87.79L1236.11,402v20.48l-12.9,12.9v48.33h1V435.76l12.9-12.89V401.56L1223.49,388V301l17.36-17.35v-.21C1241.13,254.85,1241.6,199.47,1241.38,168.93Z" transform="translate(-587.66 0)"/><path class="cls-2" d="M1236.62,171.31a4.2,4.2,0,1,0,4.2-4.2A4.2,4.2,0,0,0,1236.62,171.31Z" transform="translate(-587.66 0)"/><path class="cls-2" d="M1236,283.3a4.2,4.2,0,1,0,4.2-4.2A4.2,4.2,0,0,0,1236,283.3Z" transform="translate(-587.66 0)"/><circle class="cls-2" cx="635.44" cy="300.93" r="4.2"/><circle class="cls-2" cx="635.44" cy="358.05" r="4.2"/><path class="cls-2" d="M1218.9,388.06a4.21,4.21,0,1,0,4.2-4.2A4.21,4.21,0,0,0,1218.9,388.06Z" transform="translate(-587.66 0)"/><circle class="cls-2" cx="648.72" cy="401.34" r="4.2"/><circle class="cls-2" cx="648.72" cy="422.46" r="4.2"/><circle class="cls-2" cx="635.97" cy="435.21" r="4.2"/><polygon class="cls-2" points="694.32 24.77 693.32 24.77 693.32 111.96 682.73 122.56 682.73 179 666.17 195.56 666.17 303.14 650.76 318.56 650.76 381.73 675 405.97 675 428.12 648.55 454.57 648.55 483.69 649.55 483.69 649.55 454.99 676 428.53 676 405.56 651.76 381.31 651.76 318.97 667.17 303.56 667.17 195.97 683.73 179.42 683.73 122.97 694.32 112.38 694.32 24.77"/><circle class="cls-2" cx="648.92" cy="455.09" r="4.2"/><circle class="cls-2" cx="674.92" cy="428.46" r="4.2"/><path class="cls-2" d="M1258.38,405.54a4.2,4.2,0,1,0,4.2-4.2A4.2,4.2,0,0,0,1258.38,405.54Z" transform="translate(-587.66 0)"/><path class="cls-2" d="M1234.34,381.5a4.2,4.2,0,1,0,4.2-4.2A4.2,4.2,0,0,0,1234.34,381.5Z" transform="translate(-587.66 0)"/><path class="cls-2" d="M1234.34,349.65a4.2,4.2,0,1,0,4.2-4.2A4.2,4.2,0,0,0,1234.34,349.65Z" transform="translate(-587.66 0)"/><path class="cls-2" d="M1234.34,318.9a4.2,4.2,0,1,0,4.2-4.2A4.2,4.2,0,0,0,1234.34,318.9Z" transform="translate(-587.66 0)"/><path class="cls-2" d="M1249.91,303.34a4.2,4.2,0,1,0,4.2-4.2A4.2,4.2,0,0,0,1249.91,303.34Z" transform="translate(-587.66 0)"/><path class="cls-2" d="M1249.91,263.62a4.2,4.2,0,1,0,4.2-4.2A4.2,4.2,0,0,0,1249.91,263.62Z" transform="translate(-587.66 0)"/><path class="cls-2" d="M1249.91,196a4.2,4.2,0,1,0,4.2-4.2A4.2,4.2,0,0,0,1249.91,196Z" transform="translate(-587.66 0)"/><path class="cls-2" d="M1266.72,179.18a4.2,4.2,0,1,0,4.2-4.2A4.2,4.2,0,0,0,1266.72,179.18Z" transform="translate(-587.66 0)"/><path class="cls-2" d="M1266.72,122.81a4.2,4.2,0,1,0,4.2-4.2A4.2,4.2,0,0,0,1266.72,122.81Z" transform="translate(-587.66 0)"/><path class="cls-2" d="M1277.59,111.93a4.2,4.2,0,1,0,4.2-4.2A4.2,4.2,0,0,0,1277.59,111.93Z" transform="translate(-587.66 0)"/><path class="cls-2" d="M1277.59,25.56a4.2,4.2,0,1,0,4.2-4.2A4.2,4.2,0,0,0,1277.59,25.56Z" transform="translate(-587.66 0)"/><polygon class="cls-2" points="722.66 49.77 721.66 49.77 721.66 151.67 709.78 163.56 709.78 330.2 720.55 340.97 720.55 483.69 721.55 483.69 721.55 340.56 710.78 329.79 710.78 163.97 722.66 152.09 722.66 49.77"/><circle class="cls-2" cx="722.66" cy="49.76" r="4.2"/><path class="cls-2" d="M1306.13,151.14a4.2,4.2,0,1,0,4.2-4.2A4.2,4.2,0,0,0,1306.13,151.14Z" transform="translate(-587.66 0)"/><path class="cls-2" d="M1293.8,163.47a4.2,4.2,0,1,0,4.2-4.2A4.2,4.2,0,0,0,1293.8,163.47Z" transform="translate(-587.66 0)"/><path class="cls-2" d="M1293.8,197.68a4.2,4.2,0,1,0,4.2-4.2A4.2,4.2,0,0,0,1293.8,197.68Z" transform="translate(-587.66 0)"/><path class="cls-2" d="M1293.8,329.27a4.2,4.2,0,1,0,4.2-4.2A4.2,4.2,0,0,0,1293.8,329.27Z" transform="translate(-587.66 0)"/><path class="cls-2" d="M1303.88,341.25a4.2,4.2,0,1,0,4.2-4.2A4.2,4.2,0,0,0,1303.88,341.25Z" transform="translate(-587.66 0)"/><polygon class="cls-2" points="685.28 238.65 684.28 238.65 684.28 335.7 705.55 356.97 705.55 483.69 706.55 483.69 706.55 356.56 685.28 335.29 685.28 238.65"/><path class="cls-2" d="M1267.74,238.65a4.2,4.2,0,1,0,4.2-4.2A4.2,4.2,0,0,0,1267.74,238.65Z" transform="translate(-587.66 0)"/><circle class="cls-2" cx="684.28" cy="335.39" r="4.2"/><circle class="cls-2" cx="705.72" cy="356.83" r="4.2"/><rect class="cls-2" x="383.99" y="444.76" width="1" height="38.92"/><path class="cls-2" d="M968,442.39a4.2,4.2,0,1,0,4.2-4.2A4.2,4.2,0,0,0,968,442.39Z" transform="translate(-587.66 0)"/><polygon class="cls-2" points="665.22 339.59 664.51 340.3 690.65 366.43 690.65 435.45 667.55 458.56 667.55 483.69 668.55 483.69 668.55 458.97 691.65 435.87 691.65 366.02 665.22 339.59"/><path class="cls-2" d="M1274.11,366.45a4.2,4.2,0,1,0,4.2-4.2A4.2,4.2,0,0,0,1274.11,366.45Z" transform="translate(-587.66 0)"/><path class="cls-2" d="M1248,339.59a4.2,4.2,0,1,0,4.2-4.2A4.2,4.2,0,0,0,1248,339.59Z" transform="translate(-587.66 0)"/><circle class="cls-2" cx="690.65" cy="435.21" r="4.2"/><path class="cls-2" d="M1251.28,459.29a4.2,4.2,0,1,0,4.2-4.2A4.2,4.2,0,0,0,1251.28,459.29Z" transform="translate(-587.66 0)"/><rect class="cls-2" x="690.65" y="460.76" width="1" height="22.92"/><circle class="cls-2" cx="691.15" cy="460.76" r="4.2"/><polygon class="cls-2" points="384.99 372.23 383.99 372.23 383.99 402.53 407.55 426.08 407.55 483.69 408.55 483.69 408.55 425.67 384.99 402.11 384.99 372.23"/><path class="cls-2" d="M967.46,372.23a4.2,4.2,0,1,0,4.2-4.2A4.2,4.2,0,0,0,967.46,372.23Z" transform="translate(-587.66 0)"/><path class="cls-2" d="M967.46,402.56a4.2,4.2,0,1,0,4.2-4.2A4.2,4.2,0,0,0,967.46,402.56Z" transform="translate(-587.66 0)"/><circle class="cls-2" cx="407.83" cy="426.39" r="4.2"/><polygon class="cls-2" points="356.76 412.53 341.55 427.75 341.55 483.69 342.55 483.69 342.55 428.17 357.47 413.24 356.76 412.53"/><circle class="cls-2" cx="342.38" cy="427.96" r="4.2"/><path class="cls-2" d="M940.93,412.53a4.2,4.2,0,1,0,4.2-4.2A4.2,4.2,0,0,0,940.93,412.53Z" transform="translate(-587.66 0)"/><polygon class="cls-2" points="327.8 350.76 326.8 350.76 326.8 388.27 313.55 401.52 313.55 483.69 314.55 483.69 314.55 401.93 327.8 388.68 327.8 350.76"/><path class="cls-2" d="M910.51,350.25a4.2,4.2,0,1,0,4.2-4.2A4.2,4.2,0,0,0,910.51,350.25Z" transform="translate(-587.66 0)"/><path class="cls-2" d="M910.51,388.29a4.2,4.2,0,1,0,4.2-4.2A4.2,4.2,0,0,0,910.51,388.29Z" transform="translate(-587.66 0)"/><path class="cls-2" d="M897.68,401.73a4.2,4.2,0,1,0,4.2-4.2A4.2,4.2,0,0,0,897.68,401.73Z" transform="translate(-587.66 0)"/><polygon class="cls-2" points="256.57 319.76 255.57 319.76 255.57 398.58 242.55 411.61 242.55 483.69 243.55 483.69 243.55 412.02 256.57 399 256.57 319.76"/><path class="cls-2" d="M840,319.76a4.2,4.2,0,1,0,4.2-4.2A4.21,4.21,0,0,0,840,319.76Z" transform="translate(-587.66 0)"/><path class="cls-2" d="M840,398.36a4.2,4.2,0,1,0,4.2-4.2A4.2,4.2,0,0,0,840,398.36Z" transform="translate(-587.66 0)"/><path class="cls-2" d="M826.29,412.1a4.2,4.2,0,1,0,4.2-4.2A4.21,4.21,0,0,0,826.29,412.1Z" transform="translate(-587.66 0)"/><rect class="cls-2" x="197.04" y="454.78" width="1" height="28.91"/><path class="cls-2" d="M780.5,452.31a4.21,4.21,0,1,0,4.21-4.2A4.21,4.21,0,0,0,780.5,452.31Z" transform="translate(-587.66 0)"/><polygon class="cls-2" points="225.57 339.94 224.57 339.94 224.57 381.59 202.6 403.56 202.6 428.03 221.55 446.97 221.55 483.69 222.55 483.69 222.55 446.56 203.6 427.61 203.6 403.97 225.57 382 225.57 339.94"/><path class="cls-2" d="M804.83,446.59a4.2,4.2,0,1,0,4.2-4.2A4.2,4.2,0,0,0,804.83,446.59Z" transform="translate(-587.66 0)"/><path class="cls-2" d="M786.06,428a4.2,4.2,0,1,0,4.2-4.2A4.2,4.2,0,0,0,786.06,428Z" transform="translate(-587.66 0)"/><path class="cls-2" d="M786.06,405.88a4.2,4.2,0,1,0,4.2-4.2A4.2,4.2,0,0,0,786.06,405.88Z" transform="translate(-587.66 0)"/><path class="cls-2" d="M808,381.55a4.2,4.2,0,1,0,4.2-4.2A4.2,4.2,0,0,0,808,381.55Z" transform="translate(-587.66 0)"/><path class="cls-2" d="M808,339.94a4.2,4.2,0,1,0,4.2-4.2A4.2,4.2,0,0,0,808,339.94Z" transform="translate(-587.66 0)"/><path class="cls-2" d="M763.21,248.76c-.37,22.85-.84,61.34.14,62.32l21.36,21.35v45.63l-23.5,23.5v82.13h1V402l23.5-23.49V332l-21.59-21.58c-.62-2.3-.29-38,.09-61.67Z" transform="translate(-587.66 0)"/><path class="cls-2" d="M758.35,401.68a4.2,4.2,0,1,0,4.2-4.2A4.2,4.2,0,0,0,758.35,401.68Z" transform="translate(-587.66 0)"/><path class="cls-2" d="M780.5,378.6a4.21,4.21,0,1,0,4.21-4.2A4.21,4.21,0,0,0,780.5,378.6Z" transform="translate(-587.66 0)"/><path class="cls-2" d="M780.5,332.23a4.21,4.21,0,1,0,4.21-4.2A4.21,4.21,0,0,0,780.5,332.23Z" transform="translate(-587.66 0)"/><path class="cls-2" d="M759,310.72a4.2,4.2,0,1,0,4.2-4.2A4.2,4.2,0,0,0,759,310.72Z" transform="translate(-587.66 0)"/><path class="cls-2" d="M759,248.76a4.2,4.2,0,1,0,4.2-4.2A4.2,4.2,0,0,0,759,248.76Z" transform="translate(-587.66 0)"/><path class="cls-2" d="M723.11,288a4.2,4.2,0,1,0,4.2-4.2A4.2,4.2,0,0,0,723.11,288Z" transform="translate(-587.66 0)"/><path class="cls-2" d="M723.11,419.56a4.2,4.2,0,1,0,4.2-4.2A4.2,4.2,0,0,0,723.11,419.56Z" transform="translate(-587.66 0)"/><path class="cls-2" d="M738.49,435.56a4.2,4.2,0,1,0,4.2-4.2A4.2,4.2,0,0,0,738.49,435.56Z" transform="translate(-587.66 0)"/><polygon class="cls-2" points="126.46 169.76 125.46 169.76 125.46 224.47 102.38 247.56 102.38 312.11 122.7 332.43 122.7 427.92 130.55 435.77 130.55 483.69 131.55 483.69 131.55 435.35 123.7 427.51 123.7 332.02 103.38 311.69 103.38 247.97 126.46 224.89 126.46 169.76"/><path class="cls-2" d="M714.11,435.56a4.2,4.2,0,1,0,4.2-4.2A4.2,4.2,0,0,0,714.11,435.56Z" transform="translate(-587.66 0)"/><path class="cls-2" d="M706.75,427.16A4.2,4.2,0,1,0,711,423,4.2,4.2,0,0,0,706.75,427.16Z" transform="translate(-587.66 0)"/><path class="cls-2" d="M706.75,381.41a4.2,4.2,0,1,0,4.2-4.2A4.2,4.2,0,0,0,706.75,381.41Z" transform="translate(-587.66 0)"/><path class="cls-2" d="M706.75,332.23A4.2,4.2,0,1,0,711,328,4.2,4.2,0,0,0,706.75,332.23Z" transform="translate(-587.66 0)"/><path class="cls-2" d="M686.23,311.7a4.2,4.2,0,1,0,4.2-4.2A4.2,4.2,0,0,0,686.23,311.7Z" transform="translate(-587.66 0)"/><path class="cls-2" d="M686.23,288.57a4.2,4.2,0,1,0,4.2-4.2A4.2,4.2,0,0,0,686.23,288.57Z" transform="translate(-587.66 0)"/><path class="cls-2" d="M686.23,247.7a4.2,4.2,0,1,0,4.2-4.2A4.2,4.2,0,0,0,686.23,247.7Z" transform="translate(-587.66 0)"/><circle class="cls-2" cx="126.01" cy="223.71" r="4.2"/><path class="cls-2" d="M709.47,203a4.2,4.2,0,1,0,4.2-4.2A4.2,4.2,0,0,0,709.47,203Z" transform="translate(-587.66 0)"/><circle class="cls-2" cx="126.01" cy="169.76" r="4.2"/><polygon class="cls-2" points="89.05 141.76 88.05 141.76 88.05 350.47 101.55 363.97 101.55 483.69 102.55 483.69 102.55 363.56 89.05 350.06 89.05 141.76"/><path class="cls-2" d="M671.78,142a4.2,4.2,0,1,0,4.2-4.2A4.21,4.21,0,0,0,671.78,142Z" transform="translate(-587.66 0)"/><path class="cls-2" d="M671.78,207.24A4.2,4.2,0,1,0,676,203,4.21,4.21,0,0,0,671.78,207.24Z" transform="translate(-587.66 0)"/><path class="cls-2" d="M671.78,230.25a4.2,4.2,0,1,0,4.2-4.2A4.21,4.21,0,0,0,671.78,230.25Z" transform="translate(-587.66 0)"/><path class="cls-2" d="M671.78,350a4.2,4.2,0,1,0,4.2-4.2A4.21,4.21,0,0,0,671.78,350Z" transform="translate(-587.66 0)"/><path class="cls-2" d="M685.62,363.82a4.2,4.2,0,1,0,4.2-4.2A4.2,4.2,0,0,0,685.62,363.82Z" transform="translate(-587.66 0)"/><polygon class="cls-2" points="38.28 127.77 37.28 127.77 37.28 235.33 49.92 247.97 49.92 363.01 74.55 387.64 74.55 483.69 75.55 483.69 75.55 387.23 50.92 362.6 50.92 247.56 38.28 234.91 38.28 127.77"/><path class="cls-2" d="M621.43,128.54a4.2,4.2,0,1,0,4.2-4.2A4.2,4.2,0,0,0,621.43,128.54Z" transform="translate(-587.66 0)"/><path class="cls-2" d="M621.43,159.34a4.2,4.2,0,1,0,4.2-4.2A4.2,4.2,0,0,0,621.43,159.34Z" transform="translate(-587.66 0)"/><path class="cls-2" d="M621.43,234.45a4.2,4.2,0,1,0,4.2-4.2A4.2,4.2,0,0,0,621.43,234.45Z" transform="translate(-587.66 0)"/><circle class="cls-2" cx="50.85" cy="247.33" r="4.2"/><circle class="cls-2" cx="50.85" cy="315.9" r="4.2"/><path class="cls-2" d="M634.32,361.73a4.2,4.2,0,1,0,4.2-4.2A4.2,4.2,0,0,0,634.32,361.73Z" transform="translate(-587.66 0)"/><path class="cls-2" d="M659,387.4a4.2,4.2,0,1,0,4.2-4.2A4.2,4.2,0,0,0,659,387.4Z" transform="translate(-587.66 0)"/><polygon class="cls-2" points="14.26 59.02 13.26 59.02 13.26 336.77 3.21 346.81 3.21 483.69 4.21 483.69 4.21 347.23 14.26 337.18 14.26 59.02"/><path class="cls-2" d="M597,57a4.2,4.2,0,1,0,4.2-4.2A4.2,4.2,0,0,0,597,57Z" transform="translate(-587.66 0)"/><path class="cls-2" d="M597.22,335.74a4.2,4.2,0,1,0,4.2-4.2A4.21,4.21,0,0,0,597.22,335.74Z" transform="translate(-587.66 0)"/><path class="cls-2" d="M587.66,347.06a4.2,4.2,0,1,0,4.2-4.2A4.2,4.2,0,0,0,587.66,347.06Z" transform="translate(-587.66 0)"/><polygon class="cls-2" points="73.55 180.76 72.55 180.76 72.55 351.97 91.55 370.97 91.55 483.69 92.55 483.69 92.55 370.56 73.55 351.56 73.55 180.76"/><path class="cls-2" d="M675.71,370.9a4.2,4.2,0,1,0,4.2-4.2A4.2,4.2,0,0,0,675.71,370.9Z" transform="translate(-587.66 0)"/><circle class="cls-2" cx="73.1" cy="181.72" r="4.2"/><circle class="cls-2" cx="73.1" cy="280.17" r="4.2"/><circle class="cls-2" cx="73.1" cy="351.26" r="4.2"/><polygon class="cls-2" points="22.88 273.51 22.17 274.21 29.6 281.64 29.6 365.61 11.98 383.23 11.98 483.69 12.98 483.69 12.98 383.64 30.6 366.02 30.6 281.23 22.88 273.51"/><circle class="cls-2" cx="21.77" cy="273.51" r="4.2"/><path class="cls-2" d="M613.63,316.93a4.2,4.2,0,1,0,4.2-4.2A4.2,4.2,0,0,0,613.63,316.93Z" transform="translate(-587.66 0)"/><path class="cls-2" d="M613.63,365.93a4.2,4.2,0,1,0,4.2-4.2A4.2,4.2,0,0,0,613.63,365.93Z" transform="translate(-587.66 0)"/><path class="cls-2" d="M596.37,383.2a4.2,4.2,0,1,0,4.2-4.2A4.2,4.2,0,0,0,596.37,383.2Z" transform="translate(-587.66 0)"/><polygon class="cls-2" points="39.72 387.43 38.72 387.43 38.72 413.47 50.88 425.64 50.88 455.97 61.22 466.31 61.22 483.69 62.22 483.69 62.22 465.89 51.88 455.56 51.88 425.23 39.72 413.06 39.72 387.43"/><path class="cls-2" d="M623.18,387.43a4.2,4.2,0,1,0,4.2-4.2A4.2,4.2,0,0,0,623.18,387.43Z" transform="translate(-587.66 0)"/><path class="cls-2" d="M623.18,413.43a4.2,4.2,0,1,0,4.2-4.2A4.2,4.2,0,0,0,623.18,413.43Z" transform="translate(-587.66 0)"/><path class="cls-2" d="M635.15,425.4a4.2,4.2,0,1,0,4.2-4.2A4.2,4.2,0,0,0,635.15,425.4Z" transform="translate(-587.66 0)"/><path class="cls-2" d="M635.15,455.74a4.2,4.2,0,1,0,4.2-4.2A4.2,4.2,0,0,0,635.15,455.74Z" transform="translate(-587.66 0)"/><path class="cls-2" d="M644.9,465.49a4.2,4.2,0,1,0,4.2-4.2A4.2,4.2,0,0,0,644.9,465.49Z" transform="translate(-587.66 0)"/><polygon class="cls-2" points="26.68 425.52 25.97 426.23 38.72 438.97 38.72 483.69 39.72 483.69 39.72 438.56 26.68 425.52"/><path class="cls-2" d="M609.43,425.52a4.2,4.2,0,1,0,4.2-4.2A4.2,4.2,0,0,0,609.43,425.52Z" transform="translate(-587.66 0)"/><path class="cls-2" d="M622.3,438.39a4.2,4.2,0,1,0,4.2-4.2A4.2,4.2,0,0,0,622.3,438.39Z" transform="translate(-587.66 0)"/><polygon class="cls-2" points="277.03 283.76 276.03 283.76 276.03 406.45 290.55 420.97 290.55 483.69 291.55 483.69 291.55 420.56 277.03 406.04 277.03 283.76"/><circle class="cls-2" cx="276.03" cy="283.76" r="4.2"/><path class="cls-2" d="M859.49,405.88a4.2,4.2,0,1,0,4.2-4.2A4.2,4.2,0,0,0,859.49,405.88Z" transform="translate(-587.66 0)"/><path class="cls-2" d="M874.42,420.81a4.2,4.2,0,1,0,4.2-4.2A4.2,4.2,0,0,0,874.42,420.81Z" transform="translate(-587.66 0)"/><rect class="cls-2" x="268.55" y="435.56" width="1" height="48.13"/><path class="cls-2" d="M852.51,434a4.2,4.2,0,1,0,4.2-4.2A4.2,4.2,0,0,0,852.51,434Z" transform="translate(-587.66 0)"/><polyline class="cls-3" points="289.75 303.34 256.57 303.34 256.57 247.7 268.55 247.7"/><path class="cls-4" d="M875.47,303.34a1.94,1.94,0,1,0,1.94-1.94A1.94,1.94,0,0,0,875.47,303.34Z" transform="translate(-587.66 0)"/><path class="cls-4" d="M854.27,247.7a1.94,1.94,0,1,0,1.94-1.94A1.94,1.94,0,0,0,854.27,247.7Z" transform="translate(-587.66 0)"/><polyline class="cls-3" points="63.1 197.59 29.93 197.59 29.93 141.94 41.91 141.94"/><path class="cls-4" d="M648.83,197.59a1.94,1.94,0,1,0,1.94-1.94A1.93,1.93,0,0,0,648.83,197.59Z" transform="translate(-587.66 0)"/><path class="cls-4" d="M627.63,141.94a1.94,1.94,0,1,0,1.94-1.93A1.94,1.94,0,0,0,627.63,141.94Z" transform="translate(-587.66 0)"/><polyline class="cls-3" points="651.59 156.36 618.42 156.36 618.42 100.72 630.39 100.72"/><path class="cls-4" d="M1237.31,156.36a1.94,1.94,0,1,0,1.94-1.94A1.94,1.94,0,0,0,1237.31,156.36Z" transform="translate(-587.66 0)"/><path class="cls-4" d="M1216.12,100.72a1.94,1.94,0,1,0,1.93-1.94A1.93,1.93,0,0,0,1216.12,100.72Z" transform="translate(-587.66 0)"/><polyline class="cls-3" points="706.27 38.98 673.1 38.98 673.1 94.62 685.07 94.62"/><path class="cls-4" d="M1292,39a1.94,1.94,0,1,1,1.94,1.94A1.94,1.94,0,0,1,1292,39Z" transform="translate(-587.66 0)"/><path class="cls-4" d="M1270.79,94.62a1.94,1.94,0,1,1,1.94,1.94A1.94,1.94,0,0,1,1270.79,94.62Z" transform="translate(-587.66 0)"/><polyline class="cls-3" points="576.86 385.87 543.69 385.87 543.69 330.23 555.66 330.23"/><path class="cls-4" d="M1162.59,385.87a1.94,1.94,0,1,0,1.93-1.93A1.94,1.94,0,0,0,1162.59,385.87Z" transform="translate(-587.66 0)"/><path class="cls-4" d="M1141.39,330.23a1.94,1.94,0,1,0,1.94-1.94A1.94,1.94,0,0,0,1141.39,330.23Z" transform="translate(-587.66 0)"/><path class="cls-4" d="M868.51,78a1.94,1.94,0,1,0,1.93-1.94A1.92,1.92,0,0,0,868.51,78Z" transform="translate(-587.66 0)"/><path class="cls-4" d="M893.26,78a1.94,1.94,0,1,0,1.93-1.94A1.92,1.92,0,0,0,893.26,78Z" transform="translate(-587.66 0)"/><line class="cls-3" x1="282.78" y1="78.04" x2="307.53" y2="78.04"/><path class="cls-4" d="M914.9,446.59a1.94,1.94,0,1,0,1.93-1.93A1.94,1.94,0,0,0,914.9,446.59Z" transform="translate(-587.66 0)"/><path class="cls-4" d="M939.65,446.59a1.94,1.94,0,1,0,1.93-1.93A1.94,1.94,0,0,0,939.65,446.59Z" transform="translate(-587.66 0)"/><line class="cls-3" x1="329.17" y1="446.59" x2="353.92" y2="446.59"/><path class="cls-4" d="M1036.52,471.62a1.94,1.94,0,1,0,1.94-1.93A1.94,1.94,0,0,0,1036.52,471.62Z" transform="translate(-587.66 0)"/><path class="cls-4" d="M1061.27,471.62a1.94,1.94,0,1,0,1.94-1.93A1.94,1.94,0,0,0,1061.27,471.62Z" transform="translate(-587.66 0)"/><line class="cls-3" x1="450.8" y1="471.62" x2="475.55" y2="471.62"/><path class="cls-4" d="M1172.9,463.17a1.94,1.94,0,1,0,1.93-1.94A1.93,1.93,0,0,0,1172.9,463.17Z" transform="translate(-587.66 0)"/><path class="cls-4" d="M1197.65,463.17a1.94,1.94,0,1,0,1.93-1.94A1.93,1.93,0,0,0,1197.65,463.17Z" transform="translate(-587.66 0)"/><line class="cls-3" x1="587.17" y1="463.17" x2="611.92" y2="463.17"/><path class="cls-4" d="M697.14,187.34a1.94,1.94,0,1,0,1.93-1.93A1.93,1.93,0,0,0,697.14,187.34Z" transform="translate(-587.66 0)"/><path class="cls-4" d="M721.89,187.34a1.94,1.94,0,1,0,1.93-1.93A1.93,1.93,0,0,0,721.89,187.34Z" transform="translate(-587.66 0)"/><line class="cls-3" x1="111.41" y1="187.34" x2="136.16" y2="187.34"/><circle class="cls-4" cx="404.7" cy="370.13" r="1.94"/><circle class="cls-4" cx="429.45" cy="370.13" r="1.94"/><line class="cls-3" x1="404.7" y1="370.13" x2="429.45" y2="370.13"/><path class="cls-4" d="M642.25,401.73a1.94,1.94,0,1,0,1.94-1.94A1.93,1.93,0,0,0,642.25,401.73Z" transform="translate(-587.66 0)"/><path class="cls-4" d="M667,401.73a1.94,1.94,0,1,0,1.94-1.94A1.93,1.93,0,0,0,667,401.73Z" transform="translate(-587.66 0)"/><line class="cls-3" x1="56.53" y1="401.73" x2="81.28" y2="401.73"/><path class="cls-4" d="M749.86,273.51a1.94,1.94,0,1,0,1.94-1.94A1.93,1.93,0,0,0,749.86,273.51Z" transform="translate(-587.66 0)"/><path class="cls-4" d="M774.61,273.51a1.94,1.94,0,1,0,1.94-1.94A1.93,1.93,0,0,0,774.61,273.51Z" transform="translate(-587.66 0)"/><line class="cls-3" x1="164.14" y1="273.51" x2="188.89" y2="273.51"/><path class="cls-4" d="M1263.28,100.73a1.94,1.94,0,1,0,1.94-1.94A1.93,1.93,0,0,0,1263.28,100.73Z" transform="translate(-587.66 0)"/><path class="cls-4" d="M1288,100.73a1.94,1.94,0,1,0,1.94-1.94A1.93,1.93,0,0,0,1288,100.73Z" transform="translate(-587.66 0)"/><line class="cls-3" x1="677.56" y1="100.73" x2="702.31" y2="100.73"/><path class="cls-4" d="M1283.27,301.4a1.94,1.94,0,1,0,1.94-1.93A1.94,1.94,0,0,0,1283.27,301.4Z" transform="translate(-587.66 0)"/><path class="cls-4" d="M1308,301.4a1.94,1.94,0,1,0,1.94-1.93A1.94,1.94,0,0,0,1308,301.4Z" transform="translate(-587.66 0)"/><line class="cls-3" x1="697.54" y1="301.4" x2="722.29" y2="301.4"/><path class="cls-4" d="M1250.91,146.94a1.94,1.94,0,1,0,1.93-1.94A1.93,1.93,0,0,0,1250.91,146.94Z" transform="translate(-587.66 0)"/><path class="cls-4" d="M1275.66,146.94a1.94,1.94,0,1,0,1.93-1.94A1.93,1.93,0,0,0,1275.66,146.94Z" transform="translate(-587.66 0)"/><line class="cls-3" x1="665.18" y1="146.94" x2="689.93" y2="146.94"/><path class="cls-4" d="M770.39,361.78a1.94,1.94,0,1,0,1.94-1.94A1.93,1.93,0,0,0,770.39,361.78Z" transform="translate(-587.66 0)"/><path class="cls-4" d="M795.14,361.78a1.94,1.94,0,1,0,1.94-1.94A1.93,1.93,0,0,0,795.14,361.78Z" transform="translate(-587.66 0)"/><line class="cls-3" x1="184.67" y1="361.78" x2="209.42" y2="361.78"/><path class="cls-4" d="M617.26,219.51a1.94,1.94,0,1,0,1.94-1.94A1.93,1.93,0,0,0,617.26,219.51Z" transform="translate(-587.66 0)"/><path class="cls-4" d="M642,219.51a1.94,1.94,0,1,0,1.94-1.94A1.93,1.93,0,0,0,642,219.51Z" transform="translate(-587.66 0)"/><line class="cls-3" x1="31.54" y1="219.5" x2="56.29" y2="219.5"/><path class="cls-4" d="M717.2,303.34a1.94,1.94,0,1,0,1.94-1.94A1.94,1.94,0,0,0,717.2,303.34Z" transform="translate(-587.66 0)"/><path class="cls-4" d="M742,303.34a1.94,1.94,0,1,0,1.94-1.94A1.94,1.94,0,0,0,742,303.34Z" transform="translate(-587.66 0)"/><line class="cls-3" x1="131.48" y1="303.34" x2="156.23" y2="303.34"/><path class="cls-4" d="M746.9,420.76a1.94,1.94,0,1,0,1.93-1.93A1.94,1.94,0,0,0,746.9,420.76Z" transform="translate(-587.66 0)"/><path class="cls-4" d="M771.65,420.76a1.94,1.94,0,1,0,1.93-1.93A1.94,1.94,0,0,0,771.65,420.76Z" transform="translate(-587.66 0)"/><line class="cls-3" x1="161.17" y1="420.76" x2="185.92" y2="420.76"/><path class="cls-4" d="M901.32,357.48a1.94,1.94,0,1,0,1.93-1.94A1.93,1.93,0,0,0,901.32,357.48Z" transform="translate(-587.66 0)"/><path class="cls-4" d="M914.87,374.39a1.94,1.94,0,1,0,1.93-1.94A1.93,1.93,0,0,0,914.87,374.39Z" transform="translate(-587.66 0)"/><polyline class="cls-3" points="315.59 357.48 315.59 374.39 329.14 374.39"/><path class="cls-4" d="M1043,442a1.94,1.94,0,1,0,1.93-1.93A1.94,1.94,0,0,0,1043,442Z" transform="translate(-587.66 0)"/><path class="cls-4" d="M1056.55,458.91a1.94,1.94,0,1,0,1.93-1.94A1.94,1.94,0,0,0,1056.55,458.91Z" transform="translate(-587.66 0)"/><polyline class="cls-3" points="457.27 442 457.27 458.91 470.82 458.91"/><path class="cls-4" d="M1270.82,399.88a1.94,1.94,0,1,0,1.94-1.94A1.94,1.94,0,0,0,1270.82,399.88Z" transform="translate(-587.66 0)"/><path class="cls-4" d="M1284.37,416.79a1.94,1.94,0,1,0,1.94-1.94A1.93,1.93,0,0,0,1284.37,416.79Z" transform="translate(-587.66 0)"/><polyline class="cls-3" points="685.09 399.88 685.09 416.79 698.64 416.79"/><path class="cls-4" d="M1176.73,346a1.94,1.94,0,1,0,1.94-1.93A1.94,1.94,0,0,0,1176.73,346Z" transform="translate(-587.66 0)"/><path class="cls-4" d="M1190.28,362.9a1.94,1.94,0,1,0,1.94-1.93A1.94,1.94,0,0,0,1190.28,362.9Z" transform="translate(-587.66 0)"/><polyline class="cls-3" points="591.01 345.99 591.01 362.9 604.56 362.9"/><path class="cls-4" d="M1263.23,300.92a1.94,1.94,0,1,0,1.94-1.94A1.94,1.94,0,0,0,1263.23,300.92Z" transform="translate(-587.66 0)"/><path class="cls-4" d="M1276.78,317.83a1.94,1.94,0,1,0,1.94-1.94A1.93,1.93,0,0,0,1276.78,317.83Z" transform="translate(-587.66 0)"/><polyline class="cls-3" points="677.5 300.92 677.5 317.83 691.05 317.83"/><path class="cls-4" d="M1263.23,255.17a1.94,1.94,0,1,0,1.94-1.94A1.93,1.93,0,0,0,1263.23,255.17Z" transform="translate(-587.66 0)"/><path class="cls-4" d="M1276.78,272.07a1.94,1.94,0,1,0,1.94-1.93A1.94,1.94,0,0,0,1276.78,272.07Z" transform="translate(-587.66 0)"/><polyline class="cls-3" points="677.5 255.17 677.5 272.07 691.05 272.07"/><path class="cls-4" d="M1214.39,454.71a1.94,1.94,0,1,0,1.94-1.94A1.94,1.94,0,0,0,1214.39,454.71Z" transform="translate(-587.66 0)"/><path class="cls-4" d="M1227.94,471.62a1.94,1.94,0,1,0,1.94-1.94A1.94,1.94,0,0,0,1227.94,471.62Z" transform="translate(-587.66 0)"/><polyline class="cls-3" points="628.67 454.71 628.67 471.62 642.22 471.62"/><path class="cls-4" d="M1214.39,210.23a1.94,1.94,0,1,0,1.94-1.94A1.94,1.94,0,0,0,1214.39,210.23Z" transform="translate(-587.66 0)"/><path class="cls-4" d="M1227.94,227.14a1.94,1.94,0,1,0,1.94-1.94A1.93,1.93,0,0,0,1227.94,227.14Z" transform="translate(-587.66 0)"/><polyline class="cls-3" points="628.67 210.23 628.67 227.14 642.22 227.14"/><path class="cls-4" d="M870.17,456.82a1.94,1.94,0,1,0-1.94-1.93A1.92,1.92,0,0,0,870.17,456.82Z" transform="translate(-587.66 0)"/><path class="cls-4" d="M887.07,443.27a1.94,1.94,0,1,0-1.93-1.93A1.93,1.93,0,0,0,887.07,443.27Z" transform="translate(-587.66 0)"/><polyline class="cls-3" points="282.5 454.89 299.41 454.89 299.41 441.34"/><path class="cls-4" d="M834,353.21a1.94,1.94,0,1,0,1.94-1.94A1.94,1.94,0,0,0,834,353.21Z" transform="translate(-587.66 0)"/><path class="cls-4" d="M848.73,335a1.94,1.94,0,1,0,1.94-1.93A1.94,1.94,0,0,0,848.73,335Z" transform="translate(-587.66 0)"/><polyline class="cls-3" points="248.25 353.5 248.25 375.34 263 375.34 263 334.95"/><path class="cls-4" d="M1046.9,342.82a1.94,1.94,0,1,0,1.93-1.93A1.94,1.94,0,0,0,1046.9,342.82Z" transform="translate(-587.66 0)"/><path class="cls-4" d="M1061.65,324.57a1.94,1.94,0,1,0,1.93-1.94A1.93,1.93,0,0,0,1061.65,324.57Z" transform="translate(-587.66 0)"/><polyline class="cls-3" points="461.17 343.12 461.17 364.95 475.92 364.95 475.92 324.57"/><circle class="cls-4" cx="702.4" cy="231.93" r="1.94"/><path class="cls-4" d="M1302.88,213.67a1.94,1.94,0,1,0,1.94-1.93A1.94,1.94,0,0,0,1302.88,213.67Z" transform="translate(-587.66 0)"/><polyline class="cls-3" points="702.4 232.22 702.4 254.06 717.15 254.06 717.15 213.67"/><path class="cls-4" d="M1301,111A1.94,1.94,0,1,0,1303,109,1.94,1.94,0,0,0,1301,111Z" transform="translate(-587.66 0)"/><circle class="cls-4" cx="730.04" cy="92.71" r="1.94"/><polyline class="cls-3" points="715.29 111.26 715.29 133.09 730.04 133.09 730.04 92.71"/><path class="cls-4" d="M1298.77,377.63a1.94,1.94,0,1,0,1.94-1.94A1.94,1.94,0,0,0,1298.77,377.63Z" transform="translate(-587.66 0)"/><path class="cls-4" d="M1313.52,359.37a1.94,1.94,0,1,0,1.94-1.93A1.94,1.94,0,0,0,1313.52,359.37Z" transform="translate(-587.66 0)"/><polyline class="cls-3" points="713.05 377.92 713.05 399.76 727.8 399.76 727.8 359.37"/><path class="cls-4" d="M1016.9,435.39a1.94,1.94,0,1,0,1.93-1.94A1.94,1.94,0,0,0,1016.9,435.39Z" transform="translate(-587.66 0)"/><path class="cls-4" d="M1031.65,417.13a1.94,1.94,0,1,0,1.93-1.93A1.94,1.94,0,0,0,1031.65,417.13Z" transform="translate(-587.66 0)"/><polyline class="cls-3" points="431.17 435.68 431.17 457.52 445.92 457.52 445.92 417.13"/><path class="cls-4" d="M718,367.05a1.94,1.94,0,1,0,1.94-1.94A1.94,1.94,0,0,0,718,367.05Z" transform="translate(-587.66 0)"/><circle class="cls-4" cx="147.03" cy="348.79" r="1.94"/><polyline class="cls-3" points="132.28 367.34 132.28 389.18 147.03 389.18 147.03 348.79"/><path class="cls-4" d="M666.4,308.41a1.94,1.94,0,1,0,1.93-1.94A1.93,1.93,0,0,0,666.4,308.41Z" transform="translate(-587.66 0)"/><path class="cls-4" d="M681.15,290.15a1.94,1.94,0,1,0,1.93-1.94A1.94,1.94,0,0,0,681.15,290.15Z" transform="translate(-587.66 0)"/><polyline class="cls-3" points="80.67 308.7 80.67 330.54 95.42 330.54 95.42 290.15"/><path class="cls-4" d="M592.11,136.87a1.94,1.94,0,1,0,1.94-1.94A1.94,1.94,0,0,0,592.11,136.87Z" transform="translate(-587.66 0)"/><path class="cls-4" d="M606.86,118.61a1.94,1.94,0,1,0,1.94-1.93A1.94,1.94,0,0,0,606.86,118.61Z" transform="translate(-587.66 0)"/><polyline class="cls-3" points="6.39 137.16 6.39 159 21.14 159 21.14 118.61"/><path class="cls-4" d="M820.9,441a1.94,1.94,0,1,0,1.93-1.94A1.93,1.93,0,0,0,820.9,441Z" transform="translate(-587.66 0)"/><path class="cls-4" d="M835.65,422.78a1.94,1.94,0,1,0,1.93-1.94A1.94,1.94,0,0,0,835.65,422.78Z" transform="translate(-587.66 0)"/><polyline class="cls-3" points="235.17 441.33 235.17 463.17 249.92 463.17 249.92 422.78"/><path class="cls-4" d="M628.81,282.8a1.94,1.94,0,1,0,1.94-1.94A1.94,1.94,0,0,0,628.81,282.8Z" transform="translate(-587.66 0)"/><path class="cls-4" d="M643.56,264.54a1.94,1.94,0,1,0,1.94-1.93A1.94,1.94,0,0,0,643.56,264.54Z" transform="translate(-587.66 0)"/><polyline class="cls-3" points="43.09 283.1 43.09 304.93 57.84 304.93 57.84 264.55"/><path class="cls-4" d="M1109.4,442.3a1.94,1.94,0,1,0,1.93-1.93A1.94,1.94,0,0,0,1109.4,442.3Z" transform="translate(-587.66 0)"/><path class="cls-4" d="M1124.15,424.05a1.94,1.94,0,1,0,1.93-1.94A1.94,1.94,0,0,0,1124.15,424.05Z" transform="translate(-587.66 0)"/><polyline class="cls-3" points="523.67 442.6 523.67 464.44 538.42 464.44 538.42 424.05"/><path class="cls-4" d="M1176.13,282.8a1.94,1.94,0,1,0,1.94-1.94A1.94,1.94,0,0,0,1176.13,282.8Z" transform="translate(-587.66 0)"/><path class="cls-4" d="M1190.88,264.54a1.94,1.94,0,1,0,1.94-1.93A1.94,1.94,0,0,0,1190.88,264.54Z" transform="translate(-587.66 0)"/><polyline class="cls-3" points="590.41 283.1 590.41 304.93 605.16 304.93 605.16 264.55"/><path class="cls-4" d="M707.57,103.1a1.94,1.94,0,1,0,1.94-1.94A1.94,1.94,0,0,0,707.57,103.1Z" transform="translate(-587.66 0)"/><path class="cls-4" d="M732.32,103.1a1.94,1.94,0,1,0,1.94-1.94A1.94,1.94,0,0,0,732.32,103.1Z" transform="translate(-587.66 0)"/><line class="cls-3" x1="121.85" y1="103.1" x2="146.6" y2="103.1"/><path class="cls-4" d="M661.67,155.14a1.94,1.94,0,1,0,1.94-1.94A1.94,1.94,0,0,0,661.67,155.14Z" transform="translate(-587.66 0)"/><path class="cls-4" d="M686.42,155.14a1.94,1.94,0,1,0,1.94-1.94A1.94,1.94,0,0,0,686.42,155.14Z" transform="translate(-587.66 0)"/><line class="cls-3" x1="75.95" y1="155.14" x2="100.7" y2="155.14"/><path class="cls-4" d="M590.46,99.23a1.94,1.94,0,1,0,1.93-1.94A1.92,1.92,0,0,0,590.46,99.23Z" transform="translate(-587.66 0)"/><path class="cls-4" d="M615.21,99.23a1.94,1.94,0,1,0,1.93-1.94A1.92,1.92,0,0,0,615.21,99.23Z" transform="translate(-587.66 0)"/><line class="cls-3" x1="4.73" y1="99.23" x2="29.48" y2="99.23"/><path class="cls-4" d="M612.06,471.62a1.94,1.94,0,1,0,1.94-1.93A1.94,1.94,0,0,0,612.06,471.62Z" transform="translate(-587.66 0)"/><path class="cls-4" d="M636.81,471.62a1.94,1.94,0,1,0,1.94-1.93A1.94,1.94,0,0,0,636.81,471.62Z" transform="translate(-587.66 0)"/><line class="cls-3" x1="26.34" y1="471.62" x2="51.09" y2="471.62"/><path class="cls-4" d="M591.09,74.16A1.94,1.94,0,1,0,593,72.22,1.94,1.94,0,0,0,591.09,74.16Z" transform="translate(-587.66 0)"/><path class="cls-4" d="M615.84,74.16a1.94,1.94,0,1,0,1.94-1.94A1.94,1.94,0,0,0,615.84,74.16Z" transform="translate(-587.66 0)"/><line class="cls-3" x1="5.37" y1="74.16" x2="30.12" y2="74.16"/><path class="cls-4" d="M815.9,76.1a1.94,1.94,0,1,0,1.93-1.94A1.94,1.94,0,0,0,815.9,76.1Z" transform="translate(-587.66 0)"/><path class="cls-4" d="M840.65,76.1a1.94,1.94,0,1,0,1.93-1.94A1.94,1.94,0,0,0,840.65,76.1Z" transform="translate(-587.66 0)"/><line class="cls-3" x1="230.17" y1="76.1" x2="254.92" y2="76.1"/><path class="cls-4" d="M845.18,23.74a1.94,1.94,0,1,0,1.94-1.93A1.94,1.94,0,0,0,845.18,23.74Z" transform="translate(-587.66 0)"/><path class="cls-4" d="M869.93,23.74a1.94,1.94,0,1,0,1.94-1.93A1.94,1.94,0,0,0,869.93,23.74Z" transform="translate(-587.66 0)"/><line class="cls-3" x1="259.45" y1="23.74" x2="284.2" y2="23.74"/><path class="cls-4" d="M1152.22,189.28a1.94,1.94,0,1,0,1.93-1.94A1.93,1.93,0,0,0,1152.22,189.28Z" transform="translate(-587.66 0)"/><path class="cls-4" d="M1177,189.28a1.94,1.94,0,1,0,1.93-1.94A1.93,1.93,0,0,0,1177,189.28Z" transform="translate(-587.66 0)"/><line class="cls-3" x1="566.49" y1="189.28" x2="591.24" y2="189.28"/><polyline class="cls-3" points="171.16 1.94 137.99 1.94 137.99 57.58 149.97 57.58"/><path class="cls-4" d="M756.89,1.94a1.94,1.94,0,1,1,1.94,1.93A1.94,1.94,0,0,1,756.89,1.94Z" transform="translate(-587.66 0)"/><path class="cls-4" d="M735.69,57.58a1.94,1.94,0,1,1,1.94,1.93A1.94,1.94,0,0,1,735.69,57.58Z" transform="translate(-587.66 0)"/></g></svg>