<?xml version="1.0" encoding="utf-8"?>
<!-- Generator: Adobe Illustrator 22.0.0, SVG Export Plug-In . SVG Version: 6.00 Build 0)  -->
<svg version="1.1" id="Layer_1" xmlns="http://www.w3.org/2000/svg" xmlns:xlink="http://www.w3.org/1999/xlink" x="0px" y="0px"
	 viewBox="0 0 494 342.3" style="enable-background:new 0 0 494 342.3;" xml:space="preserve">
<style type="text/css">
	.st0{opacity:0.3;fill:#42E8E0;enable-background:new    ;}
	.st1{opacity:0.1;fill:#4ECDC4;enable-background:new    ;}
	.st2{opacity:0.5;fill:url(#SVGID_1_);enable-background:new    ;}
	.st3{opacity:0.67;}
	.st4{fill:#0C3A37;}
	.st5{opacity:0.9;}
	.st6{fill:#42E8E0;}
	.st7{fill:url(#SVGID_2_);}
	.st8{fill:url(#SVGID_3_);}
	.st9{opacity:0.1;fill:#0C3A37;enable-background:new    ;}
	.st10{fill:#FFFFFF;}
	.st11{fill:url(#SVGID_4_);}
	.st12{fill:#C9C5FF;}
	.st13{fill:#2D2870;}
	.st14{opacity:0.5;fill:url(#SVGID_5_);enable-background:new    ;}
	.st15{opacity:0.5;fill:url(#SVGID_6_);enable-background:new    ;}
	.st16{opacity:0.5;fill:url(#SVGID_7_);enable-background:new    ;}
	.st17{opacity:0.5;fill:url(#SVGID_8_);enable-background:new    ;}
	.st18{opacity:0.5;fill:url(#SVGID_9_);enable-background:new    ;}
	.st19{opacity:0.5;fill:url(#SVGID_10_);enable-background:new    ;}
	.st20{opacity:0.5;fill:url(#SVGID_11_);enable-background:new    ;}
	.st21{opacity:0.5;fill:url(#SVGID_12_);enable-background:new    ;}
	.st22{opacity:0.8;fill:#4ECDC4;enable-background:new    ;}
	.st23{fill:#4ECDC4;}
	.st24{fill:url(#SVGID_13_);}
	.st25{fill:url(#SVGID_14_);}
	.st26{fill:url(#SVGID_15_);}
	.st27{fill:url(#SVGID_16_);}
	.st28{fill:url(#SVGID_17_);}
	.st29{fill:url(#SVGID_18_);}
	.st30{fill:url(#SVGID_19_);}
	.st31{fill:url(#SVGID_20_);}
	.st32{fill:url(#SVGID_21_);}
	.st33{fill:url(#SVGID_22_);}
	.st34{fill:url(#SVGID_23_);}
	.st35{fill:url(#SVGID_24_);}
	.st36{fill:url(#SVGID_25_);}
	.st37{fill:url(#SVGID_26_);}
	.st38{fill:url(#SVGID_27_);}
	.st39{fill:url(#SVGID_28_);}
	.st40{fill:url(#SVGID_29_);}
	.st41{fill:url(#SVGID_30_);}
	.st42{fill:url(#SVGID_31_);}
	.st43{fill:url(#SVGID_32_);}
	.st44{fill:url(#SVGID_33_);}
	.st45{fill:url(#SVGID_34_);}
	.st46{fill:url(#SVGID_35_);}
	.st47{fill:url(#SVGID_36_);}
	.st48{fill:url(#SVGID_37_);}
	.st49{fill:url(#SVGID_38_);}
	.st50{opacity:0.3;fill:url(#SVGID_39_);enable-background:new    ;}
</style>
<title>Asset 1cpu</title>
<g>
	<g id="Layer_2_1_">
		<g id="_ÎÓÈ_1">
			<g id="circuit">
				<path class="st0" d="M394.6,104.5L494,47.1v-0.8l-83.8,48.4V48.6l64.1-37l0.1,0.1c1.3,0.7,2.8,0.7,4.1,0c0.7-0.2,1-1,0.8-1.6
					c-0.1-0.4-0.4-0.7-0.8-0.8c-1.3-0.7-2.8-0.7-4.1,0c-0.9,0.5-1.1,1.2-0.6,1.8l-64.3,37.1v46.8l-15.7,9V155l-53.6,31l-8.3-4.8
					l41.4-23.9v-27.9l-0.2-0.1l-47-27.2v-9.5l26.6-15.3c1.2,0.5,2.6,0.4,3.8-0.2c0.7-0.2,1-0.9,0.8-1.6c-0.1-0.4-0.4-0.7-0.8-0.8
					c-1.3-0.7-2.8-0.7-4.1,0c-1,0.6-1.1,1.5-0.3,2.2l-26.6,15.4v10.2l0.2,0.1l47,27.1V157l-31.2,18v-11.6l14.3-8.3
					c1.2,0.5,2.6,0.4,3.8-0.2c0.7-0.2,1-1,0.8-1.6c-0.1-0.4-0.4-0.7-0.8-0.8c-1.3-0.7-2.8-0.7-4.1,0c-1,0.6-1.1,1.5-0.3,2.2
					l-14.3,8.3v12.4l-9.5,5.5l-11.2-6.4v-20.3l21.1-12.2v-14l-0.2-0.1l-44.4-25.6c0.8-0.7,0.7-1.6-0.3-2.2c-1.3-0.7-2.8-0.7-4.1,0
					c-0.7,0.2-1,0.9-0.8,1.6c0.1,0.4,0.4,0.7,0.8,0.8c1.2,0.6,2.6,0.7,3.8,0.2l44.5,25.7v13.2l-20.4,11.8v-14l-0.2-0.1l-27.1-15.7
					c0.8-0.7,0.7-1.6-0.3-2.2c-1.3-0.7-2.8-0.7-4.1,0c-0.7,0.2-1,1-0.8,1.6c0.1,0.4,0.4,0.7,0.8,0.8c1.2,0.6,2.6,0.7,3.8,0.2
					l27.3,15.8V174l-7.9-4.5l-12.9,7.5l-11.7-6.8v-16.4l-0.2-0.1l-31-17.9v-15.5c0.6,0,1.2-0.2,1.8-0.5c0.7-0.2,1-1,0.8-1.6
					c-0.1-0.4-0.4-0.7-0.8-0.8c-1.3-0.7-2.8-0.7-4.1,0c-0.7,0.2-1,1-0.8,1.6c0.1,0.4,0.4,0.7,0.8,0.8c0.5,0.3,1.1,0.5,1.7,0.5v15.9
					l0.2,0.1l31,17.9v15.7L236,140.7v-30.8l27.3-15.8h25.1h0.1l43-24.8c1.2,0.5,2.6,0.4,3.8-0.2c0.7-0.2,1-0.9,0.8-1.6
					c-0.1-0.4-0.4-0.7-0.8-0.8c-1.3-0.7-2.8-0.7-4.1,0c-1,0.6-1.1,1.5-0.3,2.2l-42.6,24.6h-23.8l79.1-45.7c1.2,0.5,2.6,0.4,3.8-0.2
					c0.7-0.2,1-1,0.8-1.6c-0.1-0.4-0.4-0.7-0.8-0.8c-1.3-0.7-2.8-0.7-4.1,0c-1,0.6-1.1,1.5-0.3,2.2l-107.5,62.1v31.6l0.2,0.1
					l62.6,36.1l-12.6,7.3l-106.9-61.7V86.1l-0.2-0.1l-36.3-21c0.8-0.7,0.7-1.6-0.3-2.2c-1.3-0.7-2.8-0.7-4.1,0c-0.7,0.2-1,1-0.8,1.6
					c0.1,0.4,0.4,0.7,0.8,0.8c1.2,0.6,2.6,0.7,3.8,0.2l36.5,21.1v36.8l0.2,0.1L284.8,185l-12,6.9l-105.7-61h-63l-39.4-22.7v-35
					c0.4-0.1,0.8-0.2,1.1-0.4c0.7-0.2,1-1,0.8-1.6c-0.1-0.4-0.4-0.7-0.8-0.8c-1.3-0.7-2.8-0.7-4.2,0c-0.7,0.2-1,1-0.8,1.6
					c0.1,0.4,0.4,0.7,0.8,0.8c0.7,0.4,1.5,0.5,2.3,0.5v35.2l0.2,0.1l39.7,22.9h63l89.2,51.5h-17.9l-30.5-17.6h-23.4l-0.1,0.1
					l-32.5,18.8c-1.2-0.5-2.6-0.4-3.8,0.2c-0.7,0.2-1,1-0.8,1.6c0.1,0.4,0.4,0.7,0.8,0.8c1.3,0.7,2.8,0.7,4.1,0
					c1-0.6,1.1-1.5,0.3-2.2l32.1-18.6h23.1l30.4,17.6h19.3l14.9,8.6l-32,18.5l-9.1-5.3v-13.8l-23.1-13.4c0.8-0.7,0.7-1.6-0.3-2.2
					c-1.3-0.7-2.8-0.7-4.1,0c-0.7,0.2-1,1-0.8,1.6c0.1,0.4,0.4,0.7,0.8,0.8c1.2,0.6,2.6,0.7,3.8,0.2l23.1,13.4v13l-24.7-14.2H194
					h-0.1L180,199c-1.2-0.5-2.6-0.4-3.8,0.2c-0.7,0.2-1,1-0.8,1.6c0.1,0.4,0.4,0.7,0.8,0.8c1.3,0.7,2.8,0.7,4.1,0
					c1-0.6,1.1-1.5,0.3-2.2l13.5-7.8h11.3l34,19.6l-6.2,3.6l19.7,11.3l-9.2,5.3h-14l-10-5.8c0.8-0.7,0.7-1.6-0.3-2.2
					c-1.3-0.7-2.8-0.7-4.1,0c-0.7,0.2-1,1-0.8,1.6c0.1,0.4,0.4,0.7,0.8,0.8c1.2,0.6,2.6,0.7,3.8,0.1l10.4,6h13l-23.5,13.6
					l-55.3-31.9H124h-0.1l-22.4,12.9c-1.2-0.5-2.6-0.4-3.8,0.2c-0.7,0.2-1,0.9-0.8,1.6c0.1,0.4,0.4,0.7,0.8,0.8
					c1.3,0.7,2.8,0.7,4.2,0c1-0.6,1.1-1.5,0.3-2.2l22-12.7h39.4l42.7,24.7H188l-17.8-10.3c0.8-0.7,0.7-1.6-0.3-2.2
					c-1.3-0.7-2.8-0.7-4.1,0c-0.7,0.2-1,1-0.8,1.6c0.1,0.4,0.4,0.7,0.8,0.8c1.2,0.6,2.6,0.7,3.8,0.2l18.3,10.6h19.6l11,6.4
					l-28.1,16.2h-89.7L31,222c0.8-0.7,0.7-1.6-0.3-2.2c-1.3-0.7-2.9-0.7-4.2,0c-0.7,0.2-1,1-0.8,1.6c0.1,0.4,0.4,0.7,0.8,0.8
					c1.2,0.6,2.6,0.7,3.8,0.2l70.2,40.5h88.8l-11.1,6.4h-66.4h-0.1l-32.8,18.9c-1.2-0.5-2.6-0.4-3.8,0.2c-0.7,0.2-1,1-0.8,1.6
					c0.1,0.4,0.4,0.7,0.8,0.8c1.3,0.7,2.9,0.7,4.2,0c1-0.6,1.1-1.5,0.3-2.2l32.3-18.7h66.4l0.1,0l75.3-43.4l8.4,4.8L182.9,277H125
					h-0.1l-25.8,14.9c0,0.1,0,0.1,0,0.2v0c0,0.1,0,0.1,0,0.2c0,0.1,0,0.1,0,0.2l0,0l0,0l0,0l0,0v15l-28.9,16.7
					c-1.2-0.5-2.6-0.4-3.8,0.2c-0.7,0.2-1,1-0.8,1.6c0.1,0.4,0.4,0.7,0.8,0.8c1.3,0.7,2.8,0.7,4.2,0c1-0.6,1.1-1.5,0.3-2.2l29-16.7
					v-15.7h-0.2l25.5-14.7H183h0.1l79.5-45.9l9.5,5.5l-154.3,89.1v16.1h0.7v-15.8l154.3-89.1l11.7,6.8l-79.6,46v8.2l-14.1,8.1v18.9
					l-27.4,15.8c-1.2-0.5-2.6-0.4-3.8,0.2c-0.4,0.2-0.6,0.5-0.8,0.9h5.7c-0.1-0.3-0.3-0.5-0.5-0.6l27.4-15.8V307l13.4-7.8v30.3
					l8,4.6l-14.3,8.3h1.3l13.6-7.9l13.7,7.9h1.3l-22.9-13.2v-38.5l79.6-46l10.7,6.2l-56.3,32.5c-1.2-0.5-2.6-0.4-3.8,0.2
					c-0.7,0.2-1,1-0.8,1.6c0.1,0.4,0.4,0.7,0.8,0.8c1.3,0.7,2.8,0.7,4.1,0c1-0.6,1.1-1.5,0.3-2.2l56.3-32.5l10.3,6L239.5,296h-18.4
					c-0.1-0.4-0.4-0.7-0.8-0.9c-1.3-0.7-2.8-0.7-4.1,0c-0.7,0.2-1,1-0.8,1.6c0.1,0.4,0.4,0.7,0.8,0.8c1.3,0.7,2.8,0.7,4.1,0
					c0.4-0.2,0.7-0.5,0.8-0.9h18.5h0.1l67.8-39.1l4.2,2.4l3.2-1.9l16.2,9.3v13l-13.3,7.7l0,0h-21h-0.1l-23,13.3
					c-1.2-0.5-2.6-0.4-3.8,0.2c-0.7,0.2-1,1-0.8,1.6c0.1,0.4,0.4,0.7,0.8,0.8c1.3,0.7,2.8,0.7,4.1,0c1-0.6,1.1-1.5,0.3-2.2l22.6-13
					h19.7l-39.2,22.6c-1.2-0.5-2.7-0.5-3.9,0.1c-0.7,0.2-1,0.9-0.8,1.6c0.1,0.4,0.4,0.7,0.8,0.8c1.3,0.7,2.8,0.7,4.1,0
					c1-0.6,1.1-1.5,0.4-2.1l48.9-28.2v6.2l-29.1,16.8v11.9l-23.7,13.7c-1.2-0.5-2.6-0.4-3.8,0.2c-0.7,0.2-1,1-0.8,1.6
					c0.1,0.4,0.4,0.7,0.8,0.8c1.3,0.7,2.8,0.7,4.1,0c1-0.6,1.1-1.5,0.3-2.2l23.7-13.7v-11.9l29.1-16.8v-7l4.1-2.4V267l-16.1-9.3
					l10.6-6.1l33.2,19.2v21.8l-22.6,13c-1.2-0.5-2.7-0.5-3.9,0.1c-0.7,0.2-1,0.9-0.8,1.6c0.1,0.4,0.4,0.7,0.8,0.8
					c1.3,0.7,2.8,0.7,4.1,0c1-0.6,1.1-1.5,0.4-2.1l21.9-12.6v17.6l-17.3,10v21.4h0.7v-21l16.7-9.6v30.6h0.7v-71.9l-33.2-19.2
					l11.9-6.9l43.4,25.1v59.7l20.9,12.1v1.2h0.7v-1.6l-20.9-12V269l-43.4-25.1l8.8-5.1l58.6,33.8v50.9l32.4,18.7h1.3l-33.1-19.1
					v-50.9l-58.6-33.8l14.3-8.3l97.5,56.3v25.4l33.4,19.3v-0.8l-32.8-18.9v-25.4l-54.8-31.7h43.4L494,280v-0.8l-44-25.4h-44.7
					l-41.5-24l16.6-9.6l35.7,20.6h57.3l20.6,11.9V252l-4.5-2.6h4.5v-0.7h-5.7l-14.8-8.5h-57.3l-10-5.8h24.4l0.1-0.1l12.3-7.1h50.9
					l0.2,0.1v-0.8h-50l13.8-7.9c1.2,0.5,2.6,0.4,3.8-0.2c0.7-0.2,1-0.9,0.8-1.6c-0.1-0.4-0.4-0.7-0.8-0.8c-1.3-0.7-2.8-0.7-4.1,0
					c-1,0.6-1.1,1.5-0.3,2.2l-26.7,15.4h-25.3l-24.1-13.9l8.9-5.1l-5.7-3.3h16.6l21.8,12.6c-0.8,0.7-0.7,1.6,0.3,2.2
					c1.3,0.7,2.8,0.7,4.1,0c0.7-0.2,1-1,0.8-1.6c-0.1-0.4-0.4-0.7-0.8-0.8c-1.2-0.6-2.6-0.7-3.8-0.2l-22.2-12.8h-18l-12.2-7l7.5-4.3
					h13.3l11.7-6.7h8.7l19.7,11.3c-0.9,0.7-0.8,1.6,0.2,2.2c1.3,0.7,2.9,0.7,4.2,0c0.7-0.2,1-1,0.8-1.6c-0.1-0.4-0.4-0.7-0.8-0.8
					c-1.2-0.6-2.5-0.7-3.7-0.2L412.3,192h-9.1l-11.7,6.8h-12l24-13.8h12.9l27,15.6H494v-0.7h-50.5l-27-15.6h-13.3l-0.1,0.1l-33,19
					l-8.7-5l37.3-21.5h26.3l21.7,12.5H494v-0.7h-47l-20.5-11.9H494v-0.7h-95.3h-0.1L361,197.9l-9.8-5.7l52-30h90.9v-0.7h-66.4
					l66.3-38.3v-0.8l-67.6,39h-22.9l49.3-28.4v-6.3l23.6-13.6c1.2,0.5,2.6,0.4,3.8-0.2c0.7-0.2,1-0.9,0.8-1.6
					c-0.1-0.4-0.4-0.7-0.8-0.8c-1.3-0.7-2.8-0.7-4.1,0c-1,0.6-1.1,1.5-0.3,2.2l-12.8,7.4v-17.2l31.1-18v-0.8l-31.8,18.3v18
					l-10.1,5.8v6.3l-49.7,28.7l0.2,0.3l-52.2,30.1l-9.5-5.5l53.6-31L394.6,104.5z M388.6,214.7l-77,44.5l-77-44.5l77-44.5
					L388.6,214.7z"/>
				<path id="circuit_shadow" class="st1" d="M494,89l-13.7,7.9v25.5l-121.6,70.2l-9.2-5.3l62.8-36.2v-6.5l11.1-6.4v-14.9l21.6-12.4
					c1,0.4,2.1,0.3,3-0.1c0.5-0.2,0.8-0.8,0.6-1.3c-0.1-0.3-0.3-0.5-0.6-0.6c-1-0.5-2.2-0.5-3.3,0c-0.8,0.5-0.9,1.2-0.2,1.7
					L422.8,123v14.9l-10.6,6.1v-23.9l-0.1-0.1l-6.1-3.5l36.8-21.2V71.4l26.1-15.1c1,0.4,2.1,0.3,3-0.1c0.5-0.2,0.8-0.8,0.6-1.3
					c-0.1-0.3-0.3-0.5-0.6-0.6c-1-0.5-2.2-0.5-3.3,0c-0.8,0.5-0.9,1.2-0.2,1.7l-26.1,15.1V95l-36.8,21.2l-59.8-34.5V55
					c0.5,0,1-0.2,1.4-0.4c0.5-0.2,0.8-0.8,0.6-1.3c-0.1-0.3-0.3-0.5-0.6-0.6c-1-0.5-2.2-0.5-3.3,0c-0.5,0.2-0.8,0.8-0.6,1.3
					c0.1,0.3,0.3,0.5,0.6,0.6c0.4,0.2,0.9,0.4,1.4,0.4v27l0.1,0.1l36,20.8H355l-21.2-12.2c0.7-0.5,0.6-1.2-0.2-1.7
					c-1-0.5-2.2-0.5-3.3,0c-0.5,0.2-0.8,0.8-0.6,1.3c0.1,0.3,0.3,0.5,0.6,0.6c0.9,0.5,2,0.5,3,0.1l21.6,12.5h27.2l29.6,17.1v30.3
					L349,187l-8.4-4.9l44.4-25.6c1,0.4,2.1,0.3,3-0.1c0.5-0.2,0.8-0.8,0.6-1.3c-0.1-0.3-0.3-0.5-0.6-0.6c-1-0.5-2.2-0.5-3.3,0
					c-0.8,0.5-0.9,1.2-0.2,1.7L340,181.8l-8.1-4.7l53.1-30.7h14.4c0.1,0.3,0.3,0.5,0.6,0.7c1,0.5,2.2,0.5,3.3,0
					c0.9-0.5,0.9-1.4,0-1.9c-1-0.5-2.2-0.5-3.3,0c-0.3,0.1-0.5,0.4-0.6,0.7h-14.6h-0.1l-53.4,30.9l-3.3-1.9L328,175l-2.4,1.4
					l-12.8-7.4v-10.2l10.5-6.1l0,0h16.5l18.1-10.5c1,0.4,2.1,0.3,3-0.1c0.9-0.5,0.9-1.4,0-1.9c-1-0.5-2.2-0.5-3.3,0
					c-0.8,0.5-0.9,1.2-0.2,1.7l-17.8,10.3h-15.5l30.9-17.9c1,0.4,2.1,0.4,3.1-0.1c0.5-0.2,0.8-0.8,0.6-1.3c-0.1-0.3-0.3-0.5-0.6-0.6
					c-1-0.5-2.2-0.5-3.3,0c-0.8,0.5-0.9,1.2-0.3,1.7l-38.5,22.2v-4.9l22.9-13.2v-9.4l18.7-10.8c1,0.4,2.1,0.3,3-0.1
					c0.9-0.5,0.9-1.4,0-1.9c-1-0.5-2.2-0.5-3.3,0c-0.8,0.5-0.9,1.2-0.2,1.7l-18.7,10.8v9.4l-22.9,13.2v5.5l-3.2,1.9v10.8l12.7,7.4
					l-8.4,4.8l-26.2-15.1v-17.2l17.8-10.2c1,0.4,2.1,0.4,3-0.1c0.5-0.2,0.8-0.8,0.6-1.3c-0.1-0.3-0.3-0.5-0.6-0.6
					c-1-0.5-2.2-0.5-3.3,0c-0.8,0.5-0.9,1.2-0.3,1.7l-17.3,10v-14l13.6-7.9v-26.1c0.5,0,1-0.1,1.4-0.4c0.5-0.2,0.8-0.8,0.6-1.3
					c-0.1-0.3-0.3-0.5-0.6-0.6c-1-0.5-2.2-0.5-3.3,0c-0.9,0.5-0.9,1.4,0,1.9c0.4,0.2,0.9,0.4,1.4,0.4v25.8l-13.1,7.6v-46H290v78.6
					l26.2,15.1l-9.4,5.4l-34.2-19.8v-47.1l-16.5-9.5V93.2l-14.5-8.4c0.6-0.5,0.6-1.2-0.2-1.7c-1-0.5-2.3-0.5-3.3,0
					c-0.5,0.2-0.8,0.8-0.6,1.3c0.1,0.3,0.3,0.5,0.6,0.6c0.9,0.5,2,0.5,3,0.1l14.5,8.4v17.7l16.5,9.5v47.1l34.2,19.8l-7,4l-46.2-26.7
					v-40.1l-0.1-0.1l-40.9-23.6c0.6-0.5,0.6-1.3-0.2-1.7c-1-0.5-2.2-0.5-3.3,0c-0.5,0.2-0.8,0.8-0.6,1.3c0.1,0.3,0.3,0.5,0.6,0.6
					c0.9,0.5,2,0.5,3,0.1l41,23.7v40.2l0.1,0.1l46.1,26.6l-11.3,6.5L210.7,154v-20l-0.1-0.1l-64.3-37.1c0.6-0.5,0.6-1.3-0.2-1.7
					c-1-0.5-2.2-0.5-3.3,0c-0.5,0.2-0.8,0.8-0.6,1.3c0.1,0.3,0.3,0.5,0.6,0.6c0.9,0.5,2,0.5,3,0.1l64.5,37.2v20l0.1,0.1l43.1,24.9
					h-34.2l-39.6-22.8c0.7-0.5,0.6-1.3-0.2-1.7c-1-0.5-2.2-0.5-3.3,0c-0.5,0.2-0.8,0.8-0.6,1.3c0.1,0.3,0.3,0.5,0.6,0.6
					c0.9,0.5,2,0.5,3,0.1l40,23.1h35.2l32.7,18.9l-13.1,7.6L245.8,190h-45.2l-51.4-29.7h-28.5l-11.6-6.7c0.7-0.5,0.6-1.2-0.2-1.7
					c-1-0.5-2.2-0.5-3.3,0c-0.5,0.2-0.8,0.8-0.6,1.3c0.1,0.3,0.3,0.5,0.6,0.6c0.9,0.5,2,0.5,3,0.1l12,6.9h28.5l38.8,22.4h-33.6
					l-16.1-9.3c0.7-0.5,0.6-1.2-0.2-1.7c-1-0.5-2.2-0.5-3.3,0c-0.5,0.2-0.8,0.8-0.6,1.3c0.1,0.3,0.3,0.5,0.6,0.6
					c0.9,0.5,2,0.5,3,0.1l16.5,9.5h34.6l11.7,6.7h45.2l7.9,4.6h-19.2h-0.1l-9.6,5.6h-40.1l-11.3-6.5h-22.7c-0.1-0.3-0.4-0.5-0.6-0.7
					c-1-0.5-2.2-0.5-3.3,0c-0.5,0.2-0.8,0.8-0.6,1.3c0.1,0.3,0.3,0.5,0.6,0.6c1,0.5,2.2,0.5,3.3,0c0.3-0.1,0.5-0.4,0.6-0.7H173
					l11.3,6.5h39.4l-10.8,6.3c-1-0.4-2.1-0.3-3,0.1c-0.5,0.2-0.8,0.8-0.6,1.3c0.1,0.3,0.3,0.5,0.6,0.6c1,0.5,2.3,0.5,3.3,0
					c0.8-0.5,0.9-1.2,0.2-1.7l21-12.2h20l19,11l-7,4.1l0.4,0.2l4.1,2.4h-13.1l-17.1-9.9c0.7-0.5,0.6-1.3-0.2-1.7
					c-1-0.5-2.2-0.5-3.3,0c-0.5,0.2-0.8,0.8-0.6,1.3c0.1,0.3,0.3,0.5,0.6,0.6c0.9,0.5,2,0.5,3,0.1l17.5,10.1h14.1l9.6,5.5l-5.9,3.4
					H265h-0.1l-9.2,5.3h-6.9l-15.5-9c0.7-0.5,0.6-1.3-0.2-1.8c-1-0.5-2.2-0.5-3.3,0c-0.5,0.2-0.8,0.8-0.6,1.3
					c0.1,0.3,0.3,0.5,0.6,0.6c0.9,0.5,2,0.5,2.9,0.2l15.9,9.2h7.1h0.1l9.1-5.3h9.4l-18.9,10.9h-10.2l-21.2-12.3h-64.1l-39.7-22.9
					c0.7-0.5,0.6-1.3-0.2-1.8c-1-0.5-2.2-0.5-3.3,0c-0.5,0.2-0.8,0.8-0.6,1.3c0.1,0.3,0.3,0.5,0.6,0.6c0.9,0.5,2,0.5,3,0.1
					l40.1,23.2h64.1l21.2,12.3h10.5h0.1l26-15l6.8,3.9l-29.4,16.9h-20.8l-17.1-9.9h-43.9c-0.1-0.3-0.3-0.5-0.6-0.7
					c-1-0.5-2.2-0.5-3.3,0c-0.5,0.2-0.8,0.8-0.6,1.3c0.1,0.3,0.3,0.5,0.6,0.6c1,0.5,2.2,0.5,3.3,0c0.3-0.1,0.5-0.4,0.6-0.7h43.7
					l16.2,9.4h-61.8h-0.1l-58.9,34c-1-0.4-2.1-0.3-3,0.1c-0.5,0.2-0.8,0.8-0.6,1.3c0.1,0.3,0.3,0.5,0.6,0.6c1,0.5,2.2,0.5,3.3,0
					c0.8-0.5,0.9-1.2,0.2-1.7l58.6-33.8h83.6h0.1l29.7-17.1l7.8,4.5L256,252h-72.1h-0.1l-63.2,36.4H47.1L4.2,263.6
					c0.7-0.5,0.6-1.3-0.2-1.7c-1-0.5-2.2-0.5-3.3,0c-0.5,0.2-0.8,0.8-0.6,1.3c0.1,0.3,0.3,0.5,0.6,0.6c0.9,0.5,2,0.5,3,0.1l43.3,25
					h73.9h0.1l63.1-36.5h52.5L159.4,297v11.7l-30.8,17.8c-1-0.4-2.1-0.3-3,0.1c-0.5,0.2-0.8,0.8-0.6,1.3c0.1,0.3,0.3,0.5,0.6,0.6
					c1,0.5,2.2,0.5,3.3,0c0.8-0.5,0.9-1.2,0.2-1.7l30.8-17.8v-11.7l77.7-44.8h18l-38.8,22.4v5l-18.6,10.7c-1-0.4-2.1-0.3-3,0.1
					c-0.5,0.2-0.8,0.8-0.6,1.3c0.1,0.3,0.3,0.5,0.6,0.6c1,0.5,2.2,0.5,3.3,0c0.8-0.5,0.9-1.2,0.2-1.7l10.1-5.9v13.5l-58.5,33.7
					c-1-0.4-2.1-0.3-3,0.1c-0.5,0.2-0.8,0.8-0.6,1.3c0.1,0.3,0.3,0.5,0.6,0.6c1,0.5,2.2,0.5,3.3,0c0.8-0.5,0.9-1.2,0.2-1.7
					l58.4-33.8v-14.1l7.9-4.6v-5l39.1-22.6l-0.1-0.2l41.1-23.8l7.5,4.3l-42.3,24.4v40.1L185,342.3h1l64.4-37.2v36.3l-1.5,0.9h1
					l0.9-0.5v-36.9l12.3-7.1v-40.1l42.3-24.4l6.6,3.8l-32.6,18.8v22l0.1,0.1l37.1,21.4v7.5l-21,12.1c-1-0.4-2.1-0.3-3,0.1
					c-0.5,0.2-0.8,0.8-0.6,1.3c0.1,0.3,0.3,0.5,0.6,0.6c1,0.5,2.2,0.5,3.3,0c0.8-0.5,0.9-1.2,0.2-1.7l21-12.1v-8l-0.1-0.1l-37-21.4
					v-21.4l24.6-14.2v9.2l-11.3,6.5c-1-0.4-2.1-0.3-3,0.1c-0.5,0.2-0.8,0.8-0.6,1.3c0.1,0.3,0.3,0.5,0.6,0.6c1,0.5,2.2,0.5,3.3,0
					c0.8-0.5,0.9-1.2,0.2-1.7l11.3-6.5v-9.8l7.5-4.3l8.8,5.1v16l-16.6,9.6v11l0.1,0.1l35,20.2c-0.6,0.5-0.6,1.3,0.2,1.7
					c1,0.5,2.2,0.5,3.3,0c0.5-0.2,0.8-0.8,0.6-1.3c-0.1-0.3-0.3-0.5-0.6-0.6c-0.9-0.5-2-0.5-3-0.1l-35.1-20.3v-10.5l16.1-9.3v11
					l21.5,12.4c-0.6,0.5-0.6,1.2,0.2,1.7c1,0.5,2.2,0.5,3.3,0c0.5-0.2,0.8-0.8,0.6-1.3c-0.1-0.3-0.3-0.5-0.6-0.6
					c-0.9-0.5-2-0.5-3-0.1l-21.5-12.4v-27l6.2,3.6l0.1-0.1l10.1-5.8l9.2,5.3v12.9l24.5,14.2V285c-0.5,0-0.9,0.1-1.4,0.4
					c-0.9,0.5-0.9,1.4,0,1.9c1,0.5,2.2,0.5,3.3,0c0.5-0.2,0.8-0.8,0.6-1.3c-0.1-0.3-0.3-0.5-0.6-0.6c-0.4-0.2-0.9-0.4-1.4-0.4v-12.5
					L348,258.3V246l39.7,22.9v24.3l-21.5,12.4h-19.7h-0.1l-33.9,19.6c-1-0.4-2.1-0.3-3,0.1c-0.5,0.2-0.8,0.8-0.6,1.3
					c0.1,0.3,0.3,0.5,0.6,0.6c1,0.5,2.2,0.5,3.3,0c0.8-0.5,0.9-1.2,0.2-1.7l33.6-19.4h18.7l-62.3,36c-1-0.4-2.1-0.3-3,0.1l0,0h3.8
					l84.5-48.8v-24.9l-0.1-0.1L338.8,240l9.9-5.7L433,283v29l28.8,16.6c-0.7,0.5-0.6,1.3,0.2,1.7c1,0.5,2.2,0.5,3.3,0
					c0.5-0.2,0.8-0.8,0.6-1.3c-0.1-0.3-0.3-0.5-0.6-0.6c-0.9-0.5-2-0.5-3-0.1l-28.8-16.6v-29l-0.1-0.1L349.3,234l9.5-5.5l83.3,48.1
					h49.7l2.3,1.4v-0.6l-2.2-1.3h-49.6l-70.3-40.6H386l24,13.9h18.5h0.1l25.6-14.8c1,0.4,2.1,0.3,3-0.1c0.5-0.2,0.8-0.8,0.6-1.3
					c-0.1-0.3-0.3-0.5-0.6-0.6c-1-0.5-2.2-0.5-3.3,0c-0.8,0.5-0.9,1.2-0.2,1.7l-25.3,14.6h-18.2l-24-13.9h-15.2l-11.7-6.8l25.2-14.6
					l7.2,4.1v10.9l18.2,10.5c-0.7,0.5-0.6,1.3,0.2,1.7c1,0.5,2.2,0.5,3.3,0c0.9-0.5,0.9-1.4,0-1.9c-0.9-0.5-2-0.5-3-0.1l-18.2-10.5
					v-10.3l19.4,11.2h9.2h0.1l11-6.3c1,0.4,2.1,0.3,3-0.1c0.5-0.2,0.8-0.8,0.6-1.3c-0.1-0.3-0.3-0.5-0.6-0.6c-1-0.5-2.2-0.5-3.3,0
					c-0.8,0.5-0.9,1.2-0.2,1.7l-10.7,6.2h-8.9L385,213.4l4.9-2.8l-0.4-0.2l-15.1-8.7l7.3-4.2h11l7.9,4.5c-0.6,0.5-0.5,1.2,0.3,1.7
					c1,0.5,2.2,0.5,3.3,0c0.5-0.2,0.8-0.8,0.6-1.3c-0.1-0.3-0.3-0.5-0.6-0.6c-0.9-0.5-2-0.5-3-0.1l-8.2-4.8h-10.3l18.5-10.7
					l43.6,25.2H476h0.1l17.7-10.2c0.1,0,0.2,0.1,0.4,0.1v-2.4c-0.2,0.1-0.4,0.1-0.6,0.3c-0.8,0.5-0.9,1.2-0.2,1.7l-17.3,10h-31.1
					l-33.6-19.4h14.4l14.1,8.1c-0.6,0.5-0.6,1.2,0.2,1.7c1,0.5,2.2,0.5,3.3,0c0.5-0.2,0.8-0.8,0.6-1.3c-0.1-0.3-0.3-0.5-0.6-0.6
					c-0.9-0.5-2-0.5-3-0.1l-14.4-8.3h-15.4l-8.7-5l22.1-12.8h70.4v-0.5h-69.5l8.8-5.1h52.4h0.1l8.3-4.8v-0.6l-8.5,4.9h-52.3h-0.1
					l-59.3,34.2l-6.6-3.8l62.4-36h45.6h0.1l18.8-10.8V150l-19,11h-45.6h-0.1l-62.7,36.2l-7.5-4.3l121.6-70.2V97.2l13.2-7.6V89z
					 M388.8,210.6l-60.7,35.1l-60.7-35.1l60.7-35.1L388.8,210.6z"/>
			</g>
			<g id="cpu">
				
					<radialGradient id="SVGID_1_" cx="-3228.6733" cy="-68.6533" r="149.74" gradientTransform="matrix(-0.87 0.5 -0.87 -0.5 -2545.8101 1782.77)" gradientUnits="userSpaceOnUse">
					<stop  offset="0" style="stop-color:#4ECDC4"/>
					<stop  offset="0.11" style="stop-color:#41B1A9"/>
					<stop  offset="0.31" style="stop-color:#2E8680"/>
					<stop  offset="0.5" style="stop-color:#1F6560"/>
					<stop  offset="0.69" style="stop-color:#154D4A"/>
					<stop  offset="0.86" style="stop-color:#0E3F3C"/>
					<stop  offset="1" style="stop-color:#0C3A37"/>
				</radialGradient>
				<ellipse class="st2" cx="309.9" cy="202.8" rx="183.4" ry="105.9"/>
				<g class="st3">
					<polygon class="st4" points="308.5,293 464.5,202.9 308.5,112.8 152.5,202.9 					"/>
				</g>
				<g class="st3">
					<polygon class="st4" points="308.5,279 440.3,202.9 308.5,126.8 176.7,202.9 					"/>
				</g>
				<g class="st5">
					<polygon class="st4" points="308.5,262.8 412.2,202.9 308.5,143 204.8,202.9 					"/>
				</g>
				<path class="st6" d="M305,269.6L305,269.6l-110.9-64c-0.9-0.4-1.6-1.4-1.6-2.4c0.2-1.3,1-2.5,2.2-3.1l109.6-63.3
					c2.6-1.5,6.6-1.7,8.9-0.4l110.9,64c0.9,0.4,1.6,1.4,1.6,2.4c-0.2,1.3-1,2.5-2.2,3.1l-109.6,63.3c-1.5,0.8-3.3,1.3-5,1.2
					C307.5,270.6,306.2,270.3,305,269.6z M304.6,137.4l-109.6,63.3c-1.1,0.4-1.8,1.4-2,2.6c0.1,0.8,0.6,1.6,1.4,1.9l110.9,64
					c2.1,1.2,5.9,1.1,8.3-0.4l109.6-63.3c1.1-0.5,1.8-1.4,2-2.6c-0.1-0.8-0.6-1.6-1.4-1.9L313,137c-1.1-0.6-2.3-0.9-3.6-0.8
					C307.7,136.2,306.1,136.6,304.6,137.4L304.6,137.4z"/>
				
					<linearGradient id="SVGID_2_" gradientUnits="userSpaceOnUse" x1="1654.6807" y1="-32.2862" x2="1394.4807" y2="158.9538" gradientTransform="matrix(1 0 0 -1 -1101.36 344)">
					<stop  offset="0" style="stop-color:#5761D7"/>
					<stop  offset="0.18" style="stop-color:#5C66D9"/>
					<stop  offset="0.39" style="stop-color:#6A73DF"/>
					<stop  offset="0.61" style="stop-color:#8289E8"/>
					<stop  offset="0.85" style="stop-color:#A3A7F5"/>
					<stop  offset="1" style="stop-color:#BCBEFF"/>
				</linearGradient>
				<path class="st7" d="M425.5,193.5h-6.7l-105.7-61c-2.2-1.3-6-1.1-8.6,0.4l-105.2,60.8h-6.5v5.4l0,0c0.1,0.9,0.6,1.8,1.5,2.2
					l110.9,64c2.2,1.3,6.1,1.1,8.6-0.4l109.6-63.3c1.4-0.8,2.1-1.9,2.1-2.9l0,0L425.5,193.5z"/>
				
					<linearGradient id="SVGID_3_" gradientUnits="userSpaceOnUse" x1="1117.88" y1="150.505" x2="1499.02" y2="150.505" gradientTransform="matrix(1 0 0 -1 -1101.36 344)">
					<stop  offset="0" style="stop-color:#C0BFF6"/>
					<stop  offset="0.29" style="stop-color:#C5C4F7"/>
					<stop  offset="0.64" style="stop-color:#D3D2F9"/>
					<stop  offset="1" style="stop-color:#E9E9FD"/>
				</linearGradient>
				<path class="st8" d="M305.1,259.8l-110.9-64c-2.2-1.3-1.9-3.5,0.6-5l109.6-63.3c2.5-1.5,6.4-1.6,8.6-0.4l110.9,64
					c2.2,1.3,1.9,3.5-0.6,5l-109.6,63.3C311.2,260.9,307.4,261.1,305.1,259.8z"/>
				<path class="st9" d="M305.4,255.2l-103.2-59.6c-2-1.2-1.8-3.2,0.6-4.6l102.1-58.9c2.4-1.4,6-1.5,8-0.3L416,191.4
					c2,1.2,1.8,3.3-0.6,4.6l-102,58.9C311.1,256.3,307.5,256.4,305.4,255.2z"/>
				<path class="st10" d="M423.4,195.6l-109.6,63.3c-2.5,1.5-6.4,1.6-8.6,0.4l-110.9-64c-0.7-0.4-1.3-1-1.4-1.9
					c-0.1,1.1,0.5,2,1.4,2.5l110.9,64c2.2,1.3,6.1,1.1,8.6-0.4l109.6-63.3c1.5-0.9,2.2-2,2.1-3.1
					C425.2,194.2,424.4,195.1,423.4,195.6z"/>
				<path class="st6" d="M301.4,146.9c0.4,0,0.7-0.1,1-0.2c0.8-0.5,1.2-1.4,1.1-2.3V142c-0.2-0.8,0.3-1.5,1-1.7c0.5-0.1,1,0,1.3,0.4
					l2,1.2c0.2,0.1,0.4,0.1,0.5-0.1c0.1-0.2,0.1-0.4-0.1-0.6l0,0l-2.1-1.2c-0.9-0.8-2.3-0.6-3.1,0.3c-0.4,0.5-0.6,1.1-0.5,1.8v2.4
					c0.2,0.8-0.3,1.5-1,1.7c-0.5,0.1-1,0-1.4-0.4l-9.8-5.7c-0.2-0.1-0.4,0-0.5,0.1c0,0,0,0,0,0c-0.1,0.2-0.1,0.4,0.1,0.5
					c0,0,0,0,0,0l9.8,5.7C300.3,146.7,300.9,146.9,301.4,146.9z"/>
				<path class="st6" d="M297.6,149.1c0.4,0,0.7-0.1,1-0.3c0.7-0.5,1.2-1.4,1.1-2.3v-2.4c-0.2-0.8,0.3-1.5,1.1-1.7
					c0.4-0.1,0.9,0,1.2,0.3l2,1.2c0.2,0.1,0.4,0.1,0.5-0.1c0,0,0,0,0,0c0.1-0.2,0-0.4-0.1-0.5c0,0,0,0,0,0l-2-1.2
					c-0.9-0.8-2.3-0.6-3.1,0.3c-0.4,0.5-0.6,1.1-0.5,1.8v2.4c0.2,0.8-0.3,1.5-1,1.7c-0.5,0.1-1,0-1.3-0.4l-9.8-5.7
					c-0.2-0.1-0.4-0.1-0.5,0.1c0,0,0,0,0,0c-0.1,0.2-0.1,0.4,0.1,0.5c0,0,0,0,0,0l9.8,5.7C296.5,148.9,297,149.1,297.6,149.1z"/>
				<path class="st6" d="M293.8,151.3c0.4,0,0.7-0.1,1-0.3c0.7-0.5,1.2-1.4,1.1-2.3v-2.4c-0.2-0.8,0.3-1.5,1-1.7
					c0.5-0.1,1,0,1.4,0.4l2,1.2c0.2,0.1,0.4,0.1,0.6-0.1c0.1-0.2,0.1-0.4-0.1-0.6c0,0,0,0-0.1,0l-2-1.2c-0.9-0.8-2.3-0.6-3.1,0.3
					c-0.4,0.5-0.6,1.1-0.5,1.8v2.4c0.1,0.6-0.2,1.2-0.7,1.6c-0.6,0.2-1.2,0.2-1.7-0.2l-9.8-5.7c-0.2-0.1-0.4-0.1-0.6,0.1
					c-0.1,0.2-0.1,0.4,0.1,0.6c0,0,0,0,0.1,0l9.8,5.7C292.7,151.1,293.2,151.3,293.8,151.3z"/>
				<path class="st6" d="M290,153.5c0.4,0,0.7-0.1,1-0.3c0.7-0.5,1.2-1.4,1.1-2.3v-2.4c-0.2-0.8,0.3-1.5,1-1.7c0.5-0.1,1,0,1.4,0.4
					l2,1.2c0.2,0.1,0.4,0,0.5-0.1c0,0,0,0,0,0c0.1-0.2,0-0.4-0.1-0.5l-2-1.2c-0.9-0.8-2.3-0.6-3.1,0.3c-0.4,0.5-0.6,1.1-0.5,1.8v2.4
					c0.2,0.8-0.3,1.5-1,1.7c-0.5,0.1-1,0-1.3-0.4l-9.9-5.7c-0.2-0.1-0.4,0-0.5,0.1c-0.1,0.2,0,0.4,0.1,0.6l9.8,5.7
					C288.9,153.3,289.4,153.5,290,153.5z"/>
				<path class="st6" d="M286.1,155.7c0.3,0,0.7-0.1,1-0.2c0.7-0.5,1.2-1.4,1.1-2.3v-2.4c-0.2-0.8,0.3-1.5,1-1.7
					c0.5-0.1,1,0,1.3,0.4l2.1,1.2c0.2,0.1,0.4,0,0.5-0.1c0,0,0,0,0,0c0.1-0.2,0-0.4-0.1-0.6l-2-1.2c-0.9-0.8-2.3-0.6-3.1,0.3
					c-0.4,0.5-0.6,1.1-0.5,1.8v2.4c0.2,0.8-0.3,1.6-1.1,1.7c-0.5,0.1-1,0-1.3-0.4l-9.8-5.7c-0.2-0.1-0.4,0-0.5,0.1
					c-0.1,0.2,0,0.4,0.1,0.5c0,0,0,0,0,0l9.8,5.7C285.1,155.5,285.6,155.6,286.1,155.7z"/>
				<path class="st6" d="M282.3,157.9c0.4,0,0.7-0.1,1-0.2c0.8-0.5,1.2-1.4,1.1-2.3V153c-0.2-0.8,0.3-1.5,1-1.7c0.5-0.1,1,0,1.3,0.4
					l2,1.2c0.2,0.1,0.4,0,0.5-0.1c0,0,0,0,0,0c0.1-0.2,0-0.4-0.1-0.5c0,0,0,0,0,0l-2-1.2c-0.9-0.8-2.3-0.6-3.1,0.3
					c-0.4,0.5-0.6,1.1-0.5,1.8v2.4c0.2,0.8-0.3,1.5-1,1.7c-0.5,0.1-1,0-1.4-0.4l-9.8-5.7c-0.2-0.1-0.4,0-0.5,0.1c0,0,0,0,0,0
					c-0.1,0.2-0.1,0.4,0.1,0.5c0,0,0,0,0,0l9.8,5.7C281.2,157.7,281.8,157.8,282.3,157.9z"/>
				<path class="st6" d="M278.5,160.1c0.3,0,0.7-0.1,1-0.2c0.7-0.5,1.2-1.4,1.1-2.3v-2.4c-0.1-0.6,0.2-1.2,0.7-1.6
					c0.6-0.2,1.2-0.2,1.7,0.2l2.1,1.2c0.2,0.1,0.4,0,0.5-0.2c0.1-0.2,0-0.4-0.1-0.5l0,0l-2-1.2c-0.9-0.8-2.3-0.6-3.1,0.3
					c-0.4,0.5-0.6,1.1-0.5,1.8v2.4c0.2,0.8-0.3,1.5-1.1,1.7c-0.5,0.1-1,0-1.3-0.4l-9.8-5.7c-0.2-0.1-0.4,0-0.5,0.1c0,0,0,0,0,0
					c-0.1,0.2,0,0.4,0.1,0.6l9.8,5.7C277.4,159.9,278,160.1,278.5,160.1z"/>
				<path class="st6" d="M274.7,162.3c0.3,0,0.7-0.1,1-0.2c0.7-0.5,1.2-1.4,1.1-2.3v-2.4c-0.2-0.8,0.3-1.5,1.1-1.7
					c0.4-0.1,0.9,0,1.3,0.3l2,1.2c0.2,0.1,0.4,0,0.5-0.1c0.1-0.2,0-0.4-0.1-0.6l-2-1.2c-0.9-0.8-2.3-0.6-3.1,0.3
					c-0.4,0.5-0.6,1.1-0.5,1.8v2.4c0.2,0.8-0.3,1.5-1.1,1.7c-0.5,0.1-1,0-1.3-0.4l-9.8-5.7c-0.2-0.1-0.4,0-0.5,0.1c0,0,0,0,0,0
					c-0.1,0.2,0,0.4,0.1,0.5l9.8,5.7C273.6,162.1,274.1,162.3,274.7,162.3z"/>
				<path class="st6" d="M270.8,164.5c0.4,0,0.7-0.1,1-0.3c0.7-0.5,1.2-1.4,1.1-2.3v-2.4c-0.2-0.8,0.3-1.6,1.1-1.7
					c0.5-0.1,1,0,1.3,0.4l2,1.2c0.2,0.1,0.4,0.1,0.6-0.1c0.1-0.2,0.1-0.4-0.1-0.6c0,0,0,0-0.1,0l-2-1.2c-0.7-0.5-1.7-0.6-2.5-0.2
					c-0.7,0.5-1.2,1.4-1.1,2.3v2.4c0.2,0.8-0.3,1.5-1,1.7c-0.5,0.1-1,0-1.3-0.4l-9.8-5.7c-0.2-0.1-0.4-0.1-0.6,0.1
					c-0.1,0.2-0.1,0.4,0.1,0.6c0,0,0,0,0.1,0l9.8,5.7C269.8,164.3,270.3,164.4,270.8,164.5z"/>
				<path class="st6" d="M267,166.7c0.4,0,0.7-0.1,1-0.3c0.8-0.5,1.2-1.4,1.1-2.3v-2.4c-0.2-0.8,0.3-1.5,1.1-1.7
					c0.5-0.1,1,0,1.3,0.4l2.1,1.2c0.2,0.1,0.4,0.1,0.5-0.1c0,0,0,0,0,0c0.1-0.2,0.1-0.4-0.1-0.5c0,0,0,0,0,0l-2.1-1.2
					c-0.9-0.8-2.3-0.6-3.1,0.3c-0.4,0.5-0.6,1.1-0.5,1.8v2.4c0.2,0.8-0.3,1.6-1.1,1.7c-0.5,0.1-1,0-1.3-0.4l-9.8-5.7
					c-0.2-0.1-0.4-0.1-0.5,0.1c0,0,0,0,0,0c-0.1,0.2,0,0.4,0.1,0.5c0,0,0,0,0,0l9.8,5.7C265.9,166.5,266.5,166.6,267,166.7z"/>
				<path class="st6" d="M263.2,168.9c0.4,0,0.7-0.1,1-0.3c0.8-0.5,1.2-1.4,1.1-2.3V164c-0.2-0.8,0.3-1.5,1.1-1.7
					c0.5-0.1,1,0,1.3,0.4l2,1.2c0.2,0.1,0.4,0,0.5-0.1c0,0,0,0,0,0c0.1-0.2,0-0.4-0.1-0.5c0,0,0,0,0,0l-2.1-1.2
					c-0.9-0.8-2.3-0.6-3.1,0.3c-0.4,0.5-0.6,1.1-0.5,1.8v2.4c0.1,0.6-0.2,1.2-0.7,1.6c-0.6,0.2-1.2,0.2-1.7-0.2l-9.8-5.7
					c-0.2-0.1-0.4,0-0.5,0.2c-0.1,0.2,0,0.4,0.1,0.5l9.8,5.7C262.1,168.7,262.7,168.8,263.2,168.9z"/>
				<path class="st6" d="M259.4,171.1c0.3,0,0.7-0.1,1-0.2c0.7-0.5,1.2-1.4,1.1-2.3v-2.4c-0.2-0.8,0.3-1.5,1.1-1.7
					c0.5-0.1,1,0,1.3,0.4l2,1.2c0.2,0.1,0.4,0.1,0.6-0.1c0.1-0.2,0.1-0.4-0.1-0.6c0,0,0,0-0.1,0l-2-1.2c-0.9-0.8-2.3-0.6-3.1,0.3
					c-0.4,0.5-0.6,1.1-0.5,1.8v2.4c0.2,0.8-0.3,1.5-1,1.7c-0.5,0.1-1,0-1.3-0.4l-9.8-5.7c-0.2-0.1-0.4,0-0.5,0.2
					c-0.1,0.2,0,0.4,0.1,0.5l9.8,5.7C258.3,170.9,258.8,171,259.4,171.1z"/>
				<path class="st6" d="M255.6,173.3c0.3,0,0.7-0.1,1-0.2c0.7-0.5,1.2-1.4,1.1-2.3v-2.4c-0.2-0.8,0.3-1.5,1.1-1.7
					c0.5-0.1,0.9,0,1.3,0.3l2,1.2c0.2,0.1,0.4,0,0.5-0.2c0.1-0.2,0-0.4-0.1-0.5l0,0l-2-1.2c-0.9-0.8-2.3-0.6-3.1,0.3
					c-0.4,0.5-0.6,1.1-0.5,1.8v2.4c0.2,0.8-0.3,1.5-1,1.7c-0.5,0.1-1,0-1.3-0.4l-9.8-5.7c-0.2-0.1-0.4,0-0.5,0.2
					c-0.1,0.2,0,0.4,0.1,0.5l9.8,5.6C254.5,173.1,255,173.2,255.6,173.3z"/>
				<path class="st6" d="M251.7,175.5c0.3,0,0.7-0.1,1-0.2c0.7-0.5,1.2-1.4,1.1-2.3v-2.4c-0.2-0.8,0.3-1.5,1-1.7
					c0.5-0.1,1,0,1.3,0.4l2.1,1.2c0.2,0.1,0.4,0,0.5-0.2c0.1-0.2,0-0.4-0.1-0.5l0,0l-2-1.2c-0.9-0.8-2.3-0.6-3.1,0.3
					c-0.4,0.5-0.6,1.1-0.5,1.8v2.4c0.1,0.6-0.2,1.2-0.7,1.6c-0.6,0.2-1.2,0.2-1.7-0.2l-9.8-5.7c-0.2-0.1-0.4,0-0.5,0.1c0,0,0,0,0,0
					c-0.1,0.2,0,0.4,0.1,0.6l9.8,5.7C250.7,175.3,251.2,175.4,251.7,175.5z"/>
				<path class="st6" d="M247.9,177.7c0.4,0,0.7-0.1,1-0.2c0.8-0.5,1.2-1.4,1.1-2.3v-2.4c-0.1-0.6,0.2-1.2,0.7-1.6
					c0.6-0.2,1.2-0.2,1.7,0.2l2.1,1.2c0.2,0.1,0.4,0,0.5-0.2c0.1-0.2,0-0.4-0.1-0.5l0,0l-2.1-1.2c-0.9-0.8-2.3-0.6-3.1,0.3
					c-0.4,0.5-0.6,1.1-0.5,1.8v2.4c0.2,0.8-0.3,1.5-1,1.7c-0.5,0.1-1,0-1.4-0.4l-9.8-5.7c-0.2-0.1-0.4,0-0.5,0.1c0,0,0,0,0,0
					c-0.1,0.2,0,0.4,0.1,0.5c0,0,0,0,0,0l9.8,5.7C246.9,177.5,247.4,177.6,247.9,177.7z"/>
				<path class="st6" d="M244.1,179.9c0.4,0,0.7-0.1,1-0.2c0.8-0.5,1.2-1.4,1.1-2.3V175c-0.2-0.8,0.3-1.5,1-1.7c0.5-0.1,1,0,1.3,0.4
					l2,1.2c0.2,0.1,0.4,0.1,0.5-0.1c0,0,0,0,0,0c0.1-0.2,0-0.4-0.1-0.5c0,0,0,0,0,0l-2.1-1.2c-0.9-0.8-2.3-0.6-3.1,0.3
					c-0.4,0.5-0.6,1.1-0.5,1.8v2.4c0.1,0.8-0.4,1.5-1.2,1.6c-0.4,0.1-0.8,0-1.1-0.3l-9.9-5.7c-0.2-0.1-0.4,0-0.5,0.1c0,0,0,0,0,0
					c-0.1,0.2-0.1,0.4,0.1,0.5c0,0,0,0,0,0l9.8,5.7C243,179.7,243.5,179.8,244.1,179.9z"/>
				<path class="st6" d="M240.3,182.1c0.4,0,0.7-0.1,1-0.3c0.7-0.5,1.2-1.4,1.1-2.3v-2.4c-0.2-0.8,0.3-1.5,1-1.7
					c0.5-0.1,1,0,1.4,0.4l2.1,1.2c0.2,0.1,0.4,0.1,0.6-0.1s0.1-0.4-0.1-0.6c0,0,0,0-0.1,0l-2.1-1.2c-0.7-0.5-1.7-0.6-2.5-0.2
					c-0.8,0.5-1.2,1.4-1.1,2.3v2.4c0.2,0.8-0.3,1.5-1,1.7c-0.5,0.1-1,0-1.3-0.4l-9.8-5.7c-0.2-0.1-0.4-0.1-0.6,0.1s-0.1,0.4,0.1,0.6
					c0,0,0,0,0.1,0l9.8,5.7C239.2,181.9,239.7,182,240.3,182.1z"/>
				<path class="st6" d="M236.4,184.3c0.4,0,0.7-0.1,1-0.3c0.7-0.5,1.2-1.4,1.1-2.3v-2.4c-0.2-0.8,0.3-1.5,1-1.7
					c0.5-0.1,1,0,1.4,0.4l2.1,1.2c0.2,0.1,0.4,0.1,0.6-0.1s0.1-0.4-0.1-0.6c0,0,0,0-0.1,0l-2.1-1.2c-0.9-0.8-2.3-0.6-3.1,0.3
					c-0.4,0.5-0.6,1.1-0.5,1.8v2.4c0.2,0.8-0.3,1.5-1,1.7c-0.5,0.1-1,0-1.3-0.4l-9.8-5.7c-0.2-0.1-0.4,0-0.6,0.1
					c-0.1,0.2,0,0.4,0.1,0.6l9.8,5.7C235.4,184.1,235.9,184.2,236.4,184.3z"/>
				<path class="st6" d="M232.6,186.4c0.3,0,0.7-0.1,1-0.2c0.7-0.5,1.2-1.4,1.1-2.3v-2.4c-0.1-0.6,0.2-1.2,0.7-1.6
					c0.6-0.2,1.2-0.2,1.7,0.2l2.1,1.2c0.2,0.1,0.4,0,0.5-0.1c0,0,0,0,0,0c0.1-0.2,0-0.4-0.1-0.5l-2-1.2c-0.9-0.8-2.3-0.6-3.1,0.3
					c-0.4,0.5-0.6,1.1-0.5,1.8v2.4c0.2,0.8-0.3,1.5-1,1.7c-0.5,0.1-1,0-1.3-0.4l-9.8-5.7c-0.2-0.1-0.4,0-0.5,0.2
					c-0.1,0.2,0,0.4,0.1,0.5l9.8,5.7C231.6,186.3,232.1,186.4,232.6,186.4z"/>
				<path class="st6" d="M228.8,188.6c0.4,0,0.7-0.1,1-0.2c0.8-0.5,1.2-1.4,1.1-2.3v-2.4c-0.2-0.8,0.3-1.5,1-1.7
					c0.5-0.1,1,0,1.3,0.4l2.1,1.2c0.2,0.1,0.4,0,0.5-0.1c0,0,0,0,0,0c0.1-0.2,0-0.4-0.1-0.6l-2.1-1.2c-0.9-0.8-2.3-0.6-3.1,0.3
					c-0.4,0.5-0.6,1.1-0.5,1.8v2.4c0.2,0.8-0.3,1.6-1.1,1.7c-0.5,0.1-1,0-1.3-0.4l-9.8-5.7c-0.2-0.1-0.4,0-0.6,0.1
					c-0.1,0.2,0,0.4,0.1,0.5c0,0,0,0,0,0l9.8,5.7C227.7,188.5,228.3,188.6,228.8,188.6z"/>
				<path class="st6" d="M317.1,147.1c0.5,0,1.1-0.2,1.5-0.5l9.8-5.7c0.2-0.1,0.3-0.3,0.2-0.5c-0.1-0.2-0.3-0.3-0.5-0.2
					c0,0,0,0-0.1,0l-9.8,5.7c-0.6,0.5-1.5,0.5-2,0c-0.3-0.4-0.5-0.9-0.4-1.3v-2.4c0.2-1.2-0.6-2.4-1.8-2.5c-0.6-0.1-1.3,0.1-1.8,0.5
					l-2,1.2c-0.2,0.1-0.3,0.3-0.2,0.5c0.1,0.2,0.3,0.3,0.5,0.2c0,0,0,0,0.1,0l2-1.2c0.6-0.5,1.5-0.5,2,0c0.3,0.4,0.5,0.9,0.4,1.3
					v2.4c-0.1,0.9,0.3,1.8,1.1,2.3C316.4,147,316.7,147.1,317.1,147.1z"/>
				<path class="st6" d="M320.9,149.3c0.5,0,1.1-0.2,1.5-0.5l9.8-5.7c0.2-0.1,0.3-0.3,0.2-0.5c-0.1-0.2-0.3-0.3-0.5-0.2
					c0,0,0,0-0.1,0l-9.9,5.7c-0.6,0.5-1.5,0.5-2,0c-0.3-0.4-0.5-0.9-0.4-1.3v-2.4c0.2-1.2-0.6-2.3-1.8-2.5c-0.6-0.1-1.3,0.1-1.8,0.5
					l-2,1.2c-0.2,0.1-0.3,0.3-0.2,0.5c0.1,0.2,0.3,0.3,0.5,0.2c0,0,0,0,0.1,0l2-1.2c0.6-0.6,1.5-0.5,2,0c0.4,0.4,0.5,0.9,0.4,1.4
					v2.4c-0.1,0.9,0.3,1.8,1.1,2.3C320.2,149.2,320.5,149.3,320.9,149.3z"/>
				<path class="st6" d="M324.7,151.5c0.5,0,1.1-0.2,1.5-0.5l9.8-5.7c0.2-0.1,0.3-0.3,0.2-0.5c-0.1-0.2-0.3-0.3-0.5-0.2
					c0,0,0,0-0.1,0l-9.8,5.7c-0.5,0.4-1.1,0.5-1.7,0.2c-0.5-0.4-0.7-1-0.7-1.6v-2.4c0.2-1.2-0.6-2.3-1.8-2.5
					c-0.6-0.1-1.3,0.1-1.8,0.5l-2,1.2c-0.2,0.1-0.3,0.3-0.1,0.5c0.1,0.2,0.4,0.3,0.5,0.2c0,0,0,0,0,0l2-1.2c0.6-0.6,1.5-0.5,2,0
					c0.4,0.4,0.5,0.9,0.4,1.4v2.4c-0.1,0.9,0.3,1.8,1.1,2.3C324,151.4,324.4,151.5,324.7,151.5z"/>
				<path class="st6" d="M328.5,153.7c0.5,0,1.1-0.2,1.5-0.5l9.8-5.7c0.2-0.1,0.3-0.4,0.2-0.5c0,0,0,0,0,0c-0.1-0.2-0.4-0.3-0.5-0.1
					l-9.8,5.7c-0.5,0.4-1.1,0.4-1.7,0.2c-0.5-0.4-0.8-1-0.7-1.6v-2.4c0.2-1.2-0.6-2.3-1.8-2.5c-0.6-0.1-1.3,0.1-1.8,0.5l-2.1,1.2
					c-0.2,0.1-0.3,0.3-0.1,0.5c0,0,0,0,0,0c0.1,0.2,0.3,0.3,0.5,0.2c0,0,0,0,0,0l2.1-1.2c0.6-0.5,1.5-0.5,2,0
					c0.3,0.4,0.5,0.9,0.4,1.3v2.4c-0.1,0.9,0.3,1.8,1.1,2.3C327.9,153.6,328.2,153.7,328.5,153.7z"/>
				<path class="st6" d="M332.4,155.9c0.5,0,1.1-0.2,1.5-0.5l9.8-5.7c0.2-0.1,0.3-0.4,0.1-0.5c0,0,0,0,0,0c-0.1-0.2-0.3-0.3-0.5-0.1
					l-9.8,5.7c-0.6,0.5-1.5,0.5-2-0.1c-0.3-0.4-0.5-0.9-0.4-1.3V151c0.2-1.2-0.6-2.3-1.8-2.5c-0.6-0.1-1.3,0.1-1.8,0.5l-2,1.2
					c-0.2,0.1-0.3,0.4-0.2,0.5c0,0,0,0,0,0c0.1,0.2,0.4,0.3,0.5,0.1l2-1.2c0.6-0.5,1.5-0.5,2,0c0.3,0.4,0.5,0.9,0.4,1.3v2.4
					c-0.1,0.9,0.3,1.8,1.1,2.3C331.7,155.8,332,155.9,332.4,155.9z"/>
				<path class="st6" d="M336.2,158.1c0.5,0,1.1-0.2,1.5-0.5l9.8-5.7c0.2-0.1,0.3-0.4,0.1-0.6c-0.1-0.2-0.4-0.3-0.5-0.2c0,0,0,0,0,0
					l-9.8,5.7c-0.6,0.5-1.5,0.5-2,0c-0.3-0.4-0.5-0.9-0.4-1.3v-2.4c0.2-1.2-0.6-2.3-1.8-2.5c-0.6-0.1-1.3,0.1-1.8,0.5l-2,1.2
					c-0.2,0.1-0.3,0.4-0.1,0.5c0.1,0.2,0.4,0.3,0.5,0.2l0,0l2-1.2c0.5-0.4,1.1-0.4,1.7-0.2c0.5,0.4,0.7,1,0.7,1.6v2.4
					c-0.1,0.9,0.3,1.8,1.1,2.3C335.5,158,335.8,158.1,336.2,158.1z"/>
				<path class="st6" d="M340,160.2c0.5,0,1.1-0.2,1.5-0.5l9.8-5.7c0.2-0.1,0.3-0.3,0.2-0.5c-0.1-0.2-0.3-0.3-0.5-0.2c0,0,0,0-0.1,0
					l-9.8,5.7c-0.6,0.5-1.5,0.5-2,0c-0.3-0.4-0.5-0.9-0.4-1.3v-2.4c0.2-1.2-0.6-2.3-1.8-2.5c-0.6-0.1-1.3,0.1-1.8,0.5l-2,1.2
					c-0.2,0.1-0.3,0.4-0.1,0.6c0.1,0.2,0.4,0.3,0.5,0.1l2-1.2c0.6-0.5,1.5-0.5,2,0.1c0.3,0.4,0.5,0.9,0.4,1.3v2.4
					c-0.1,0.9,0.3,1.8,1,2.3C339.3,160.2,339.7,160.3,340,160.2z"/>
				<path class="st6" d="M343.8,162.4c0.5,0,1.1-0.2,1.5-0.5l9.8-5.7c0.2-0.1,0.3-0.3,0.2-0.5c-0.1-0.2-0.3-0.3-0.5-0.2
					c0,0,0,0-0.1,0l-9.8,5.7c-0.6,0.5-1.5,0.5-2,0c-0.3-0.4-0.5-0.9-0.4-1.3v-2.4c0.2-1.2-0.6-2.3-1.8-2.5c-0.6-0.1-1.3,0.1-1.8,0.5
					l-2,1.2c-0.2,0.1-0.3,0.4-0.1,0.6c0.1,0.2,0.4,0.3,0.5,0.1l2.1-1.2c0.6-0.5,1.5-0.5,2,0c0.3,0.4,0.5,0.9,0.4,1.3v2.4
					c-0.1,0.9,0.3,1.8,1.1,2.3C343.2,162.4,343.5,162.4,343.8,162.4z"/>
				<path class="st6" d="M347.6,164.6c0.5,0,1.1-0.2,1.5-0.5l9.8-5.7c0.2-0.1,0.3-0.4,0.2-0.5c0,0,0,0,0,0c-0.1-0.2-0.4-0.3-0.5-0.1
					c0,0,0,0,0,0l-9.8,5.7c-0.6,0.5-1.5,0.5-2-0.1c-0.3-0.4-0.5-0.9-0.4-1.3v-2.4c0.2-1.2-0.6-2.3-1.8-2.5c-0.6-0.1-1.3,0.1-1.8,0.5
					l-2.1,1.2c-0.2,0.1-0.3,0.4-0.1,0.5c0,0,0,0,0,0c0.1,0.2,0.3,0.3,0.5,0.1c0,0,0,0,0,0l2.1-1.2c0.6-0.5,1.5-0.5,2,0
					c0.3,0.4,0.5,0.9,0.4,1.3v2.4c-0.1,0.9,0.3,1.8,1.1,2.3C347,164.6,347.3,164.7,347.6,164.6z"/>
				<path class="st6" d="M351.5,166.9c0.5,0,1.1-0.2,1.5-0.5l9.8-5.7c0.2-0.1,0.3-0.4,0.1-0.5c0,0,0,0,0,0c-0.1-0.2-0.3-0.3-0.5-0.1
					c0,0,0,0,0,0l-9.8,5.7c-0.5,0.4-1.1,0.4-1.7,0.2c-0.5-0.4-0.8-1-0.7-1.6v-2.4c0.2-1.2-0.6-2.3-1.8-2.5c-0.6-0.1-1.3,0.1-1.8,0.5
					l-2,1.2c-0.2,0.1-0.3,0.4-0.2,0.5c0,0,0,0,0,0c0.1,0.2,0.4,0.3,0.5,0.1c0,0,0,0,0,0l2-1.2c0.6-0.5,1.5-0.5,2,0
					c0.3,0.4,0.5,0.9,0.4,1.3v2.4c-0.1,0.9,0.3,1.8,1.1,2.3C350.8,166.8,351.1,166.9,351.5,166.9z"/>
				<path class="st6" d="M355.3,169.1c0.5,0,1.1-0.2,1.5-0.5l9.8-5.7c0.2-0.1,0.3-0.4,0.1-0.6c-0.1-0.2-0.4-0.3-0.5-0.1l-9.8,5.7
					c-0.6,0.5-1.5,0.5-2,0c-0.3-0.4-0.5-0.9-0.4-1.3v-2.4c0.2-1.2-0.6-2.3-1.8-2.5c-0.6-0.1-1.3,0.1-1.8,0.5l-2,1.2
					c-0.2,0.1-0.3,0.3-0.2,0.5c0.1,0.2,0.3,0.3,0.5,0.2c0,0,0,0,0.1,0l2-1.2c0.6-0.6,1.5-0.5,2,0c0.4,0.4,0.5,0.9,0.4,1.4v2.4
					c-0.1,0.9,0.3,1.8,1.1,2.3C354.7,169,355,169,355.3,169.1z"/>
				<path class="st6" d="M359.1,171.2c0.5,0,1.1-0.2,1.5-0.5l9.8-5.7c0.2-0.1,0.3-0.4,0.1-0.5c-0.1-0.2-0.4-0.3-0.5-0.2l-9.8,5.7
					c-0.6,0.5-1.5,0.5-2,0c-0.3-0.4-0.5-0.9-0.4-1.3v-2.4c0.2-1.2-0.6-2.3-1.8-2.5c-0.6-0.1-1.3,0.1-1.8,0.5l-2,1.2
					c-0.2,0.1-0.3,0.4-0.1,0.6c0.1,0.2,0.4,0.3,0.5,0.2c0,0,0,0,0,0l2-1.2c0.6-0.5,1.5-0.5,2,0.1c0.3,0.4,0.5,0.9,0.4,1.3v2.4
					c-0.1,0.9,0.3,1.8,1.1,2.3C358.5,171.1,358.8,171.2,359.1,171.2z"/>
				<path class="st6" d="M362.9,173.4c0.5,0,1.1-0.2,1.5-0.5l9.8-5.7c0.2-0.1,0.3-0.4,0.1-0.5c-0.1-0.2-0.4-0.3-0.5-0.2l-9.8,5.7
					c-0.6,0.5-1.5,0.5-2,0c-0.3-0.4-0.5-0.9-0.4-1.3v-2.4c0.2-1.2-0.6-2.3-1.8-2.5c-0.6-0.1-1.3,0.1-1.8,0.5l-2,1.2
					c-0.2,0.1-0.3,0.4-0.1,0.5c0.1,0.2,0.4,0.3,0.5,0.2l0,0l2.1-1.2c0.6-0.5,1.5-0.5,2,0c0.3,0.4,0.5,0.9,0.4,1.3v2.4
					c-0.1,0.9,0.3,1.8,1.1,2.3C362.3,173.4,362.6,173.4,362.9,173.4z"/>
				<path class="st6" d="M366.8,175.6c0.5,0,1.1-0.2,1.5-0.5l9.8-5.7c0.2-0.1,0.3-0.4,0.1-0.5c-0.1-0.2-0.4-0.3-0.5-0.2l-9.8,5.7
					c-0.6,0.6-1.5,0.5-2,0c-0.4-0.4-0.5-0.9-0.4-1.4v-2.4c0.2-1.2-0.6-2.3-1.8-2.5c-0.6-0.1-1.3,0.1-1.8,0.5l-2.1,1.2
					c-0.2,0.1-0.2,0.4-0.1,0.6c0.1,0.1,0.3,0.2,0.5,0.1l2-1.2c0.6-0.5,1.5-0.5,2,0c0.3,0.4,0.5,0.9,0.4,1.3v2.4
					c-0.1,0.9,0.3,1.8,1.1,2.3C366.1,175.6,366.4,175.6,366.8,175.6z"/>
				<path class="st6" d="M370.6,177.8c0.5,0,1.1-0.2,1.5-0.5l9.9-5.7c0.2-0.1,0.2-0.4,0.1-0.6c-0.1-0.2-0.3-0.2-0.5-0.1l-9.8,5.7
					c-0.6,0.5-1.5,0.5-2,0c-0.3-0.4-0.5-0.9-0.4-1.3v-2.4c0.2-1.2-0.6-2.3-1.8-2.5c-0.6-0.1-1.3,0.1-1.8,0.5l-2,1.2
					c-0.2,0.1-0.3,0.4-0.2,0.5c0,0,0,0,0,0c0.1,0.2,0.4,0.3,0.5,0.1l2-1.2c0.5-0.4,1.1-0.5,1.7-0.2c0.5,0.4,0.7,1,0.7,1.6v2.4
					c-0.1,0.9,0.3,1.8,1.1,2.3C369.9,177.8,370.2,177.8,370.6,177.8z"/>
				<path class="st6" d="M374.4,180c0.5,0,1.1-0.2,1.5-0.5l9.8-5.7c0.2-0.1,0.3-0.3,0.2-0.5c-0.1-0.2-0.3-0.3-0.5-0.2c0,0,0,0-0.1,0
					l-9.8,5.7c-0.6,0.5-1.5,0.5-2,0c-0.3-0.4-0.5-0.9-0.4-1.3v-2.4c0.2-1.2-0.6-2.3-1.8-2.5c-0.6-0.1-1.3,0.1-1.8,0.5l-2,1.2
					c-0.2,0.1-0.3,0.3-0.2,0.5c0.1,0.2,0.3,0.3,0.5,0.2c0,0,0,0,0.1,0l2-1.2c0.6-0.6,1.5-0.5,2,0c0.4,0.4,0.5,0.9,0.4,1.4v2.4
					c-0.1,0.9,0.3,1.8,1.1,2.3C373.7,179.9,374.1,180,374.4,180z"/>
				<path class="st6" d="M378.2,182.2c0.5,0,1.1-0.2,1.5-0.5l9.8-5.7c0.2-0.1,0.3-0.3,0.2-0.5c-0.1-0.2-0.3-0.3-0.5-0.2
					c0,0,0,0-0.1,0l-9.8,5.7c-0.5,0.4-1.1,0.5-1.7,0.2c-0.5-0.4-0.7-1-0.7-1.6v-2.4c0.2-1.2-0.6-2.3-1.8-2.5
					c-0.6-0.1-1.3,0.1-1.8,0.5l-2,1.2c-0.2,0.1-0.3,0.3-0.2,0.5c0.1,0.2,0.3,0.3,0.5,0.2c0,0,0,0,0.1,0l2-1.2c0.6-0.6,1.5-0.5,2,0
					c0.4,0.4,0.5,0.9,0.4,1.4v2.4c-0.1,0.9,0.3,1.8,1.1,2.3C377.5,182.1,377.9,182.2,378.2,182.2z"/>
				<path class="st6" d="M382,184.4c0.5,0,1.1-0.2,1.5-0.5l9.8-5.7c0.2-0.1,0.3-0.4,0.1-0.6c-0.1-0.2-0.4-0.3-0.5-0.1l-9.8,5.7
					c-0.5,0.4-1.1,0.4-1.7,0.2c-0.5-0.4-0.8-1-0.7-1.6v-2.4c0.2-1.2-0.6-2.3-1.8-2.5c-0.6-0.1-1.3,0.1-1.8,0.5l-2,1.2
					c-0.2,0.1-0.3,0.3-0.1,0.5c0,0,0,0,0,0c0.1,0.2,0.3,0.3,0.5,0.2c0,0,0,0,0,0l2.1-1.2c0.5-0.4,1.1-0.5,1.7-0.2
					c0.5,0.4,0.7,1,0.7,1.6v2.4c-0.1,0.9,0.3,1.8,1.1,2.3C381.4,184.3,381.7,184.4,382,184.4z"/>
				<path class="st6" d="M385.9,186.6c0.5,0,1.1-0.2,1.5-0.5l9.8-5.7c0.2-0.1,0.2-0.4,0.1-0.6c-0.1-0.1-0.3-0.2-0.5-0.1l-9.8,5.7
					c-0.6,0.5-1.5,0.5-2-0.1c-0.3-0.4-0.5-0.9-0.4-1.3v-2.4c0.2-1.2-0.6-2.3-1.8-2.5c-0.6-0.1-1.3,0.1-1.8,0.5l-2,1.2
					c-0.2,0.1-0.3,0.4-0.1,0.6c0.1,0.2,0.4,0.3,0.5,0.1l2-1.2c0.6-0.5,1.5-0.5,2,0c0.3,0.4,0.5,0.9,0.4,1.3v2.4
					c-0.1,0.9,0.3,1.8,1.1,2.3C385.2,186.5,385.5,186.6,385.9,186.6z"/>
				<path class="st6" d="M389.7,188.8c0.5,0,1.1-0.2,1.5-0.5l9.8-5.7c0.2-0.1,0.3-0.4,0.1-0.5c0,0,0,0,0,0c-0.1-0.2-0.3-0.3-0.5-0.1
					l-9.8,5.7c-0.6,0.5-1.5,0.5-2,0c-0.3-0.4-0.5-0.9-0.4-1.3v-2.4c0.2-1.2-0.6-2.3-1.8-2.5c-0.6-0.1-1.3,0.1-1.8,0.5l-2.1,1.1
					c-0.2,0.1-0.3,0.4-0.2,0.5c0,0,0,0,0,0c0.1,0.2,0.4,0.3,0.5,0.1l2-1.2c0.6-0.5,1.5-0.5,2,0c0.3,0.4,0.5,0.9,0.4,1.3v2.4
					c-0.1,0.9,0.3,1.8,1.1,2.3C389,188.7,389.4,188.8,389.7,188.8z"/>
				
					<linearGradient id="SVGID_4_" gradientUnits="userSpaceOnUse" x1="1297.79" y1="133.6" x2="1491.3199" y2="133.6" gradientTransform="matrix(1 0 0 -1 -1101.36 344)">
					<stop  offset="0" style="stop-color:#715AFF"/>
					<stop  offset="0.16" style="stop-color:#7761FF"/>
					<stop  offset="0.39" style="stop-color:#8775FF"/>
					<stop  offset="0.67" style="stop-color:#A195FF"/>
					<stop  offset="0.97" style="stop-color:#C6C1FF"/>
					<stop  offset="1" style="stop-color:#C9C5FF"/>
				</linearGradient>
				<polygon class="st11" points="384.8,184.2 384.8,193 309.3,236.6 233.8,193 233.8,184.2 				"/>
				<polygon class="st12" points="309.3,227.8 233.8,184.2 309.3,140.6 384.8,184.2 				"/>
				<polygon class="st10" points="309.3,226.8 234.6,183.7 233.8,184.2 309.3,227.8 384.8,184.2 383.9,183.7 				"/>
				<polygon class="st13" points="309.3,217.8 251.2,184.2 309.3,150.7 367.4,184.2 				"/>
				
					<linearGradient id="SVGID_5_" gradientUnits="userSpaceOnUse" x1="1352.5599" y1="159.75" x2="1468.72" y2="159.75" gradientTransform="matrix(1 0 0 -1 -1101.36 344)">
					<stop  offset="0" style="stop-color:#4ECDC4"/>
					<stop  offset="0.17" style="stop-color:#50C8C7"/>
					<stop  offset="0.36" style="stop-color:#54BACE"/>
					<stop  offset="0.57" style="stop-color:#5BA2DA"/>
					<stop  offset="0.79" style="stop-color:#6581EB"/>
					<stop  offset="1" style="stop-color:#715AFF"/>
				</linearGradient>
				<polygon class="st14" points="309.3,217.8 251.2,184.2 309.3,150.7 367.4,184.2 				"/>
				
					<linearGradient id="SVGID_6_" gradientUnits="userSpaceOnUse" x1="1410.64" y1="180.745" x2="1468.72" y2="180.745" gradientTransform="matrix(1 0 0 -1 -1101.36 344)">
					<stop  offset="0" style="stop-color:#42E8E0"/>
					<stop  offset="0.15" style="stop-color:#43E3E0"/>
					<stop  offset="0.33" style="stop-color:#45D5DF"/>
					<stop  offset="0.52" style="stop-color:#49BDDD"/>
					<stop  offset="0.72" style="stop-color:#4E9CDB"/>
					<stop  offset="0.93" style="stop-color:#5472D8"/>
					<stop  offset="1" style="stop-color:#5761D7"/>
				</linearGradient>
				<polygon class="st15" points="309.3,142.3 367.4,175.8 367.4,184.2 309.3,150.7 				"/>
				
					<linearGradient id="SVGID_7_" gradientUnits="userSpaceOnUse" x1="1352.5599" y1="180.745" x2="1410.64" y2="180.745" gradientTransform="matrix(1 0 0 -1 -1101.36 344)">
					<stop  offset="0" style="stop-color:#42E8E0"/>
					<stop  offset="0.15" style="stop-color:#43E3E0"/>
					<stop  offset="0.33" style="stop-color:#45D5DF"/>
					<stop  offset="0.52" style="stop-color:#49BDDD"/>
					<stop  offset="0.72" style="stop-color:#4E9CDB"/>
					<stop  offset="0.93" style="stop-color:#5472D8"/>
					<stop  offset="1" style="stop-color:#5761D7"/>
				</linearGradient>
				<polygon class="st16" points="309.3,150.7 251.2,184.2 251.2,175.8 309.3,142.3 				"/>
				
					<linearGradient id="SVGID_8_" gradientUnits="userSpaceOnUse" x1="1352.5599" y1="168.205" x2="1468.72" y2="168.205" gradientTransform="matrix(1 0 0 -1 -1101.36 344)">
					<stop  offset="0" style="stop-color:#42E8E0"/>
					<stop  offset="0.15" style="stop-color:#43E3E0"/>
					<stop  offset="0.33" style="stop-color:#45D5DF"/>
					<stop  offset="0.52" style="stop-color:#49BDDD"/>
					<stop  offset="0.72" style="stop-color:#4E9CDB"/>
					<stop  offset="0.93" style="stop-color:#5472D8"/>
					<stop  offset="1" style="stop-color:#5761D7"/>
				</linearGradient>
				<polygon class="st17" points="309.3,209.3 251.2,175.8 309.3,142.3 367.4,175.8 				"/>
				
					<linearGradient id="SVGID_9_" gradientUnits="userSpaceOnUse" x1="-453.28" y1="168.205" x2="-406.86" y2="168.205" gradientTransform="matrix(-1 0 0 -1 -120.79 344)">
					<stop  offset="0" style="stop-color:#42E8E0"/>
					<stop  offset="0.15" style="stop-color:#43E3E0"/>
					<stop  offset="0.33" style="stop-color:#45D5DF"/>
					<stop  offset="0.52" style="stop-color:#49BDDD"/>
					<stop  offset="0.72" style="stop-color:#4E9CDB"/>
					<stop  offset="0.93" style="stop-color:#5472D8"/>
					<stop  offset="1" style="stop-color:#5761D7"/>
				</linearGradient>
				<polygon class="st18" points="309.3,189.2 286.1,175.8 309.3,162.4 332.5,175.8 				"/>
				
					<linearGradient id="SVGID_10_" gradientUnits="userSpaceOnUse" x1="-453.28" y1="174.595" x2="-406.86" y2="174.595" gradientTransform="matrix(-1 0 0 -1 -120.79 344)">
					<stop  offset="0" style="stop-color:#42E8E0"/>
					<stop  offset="0.15" style="stop-color:#43E3E0"/>
					<stop  offset="0.33" style="stop-color:#45D5DF"/>
					<stop  offset="0.52" style="stop-color:#49BDDD"/>
					<stop  offset="0.72" style="stop-color:#4E9CDB"/>
					<stop  offset="0.93" style="stop-color:#5472D8"/>
					<stop  offset="1" style="stop-color:#5761D7"/>
				</linearGradient>
				<polygon class="st19" points="309.3,163.6 331.4,176.4 332.5,175.8 309.3,162.4 286.1,175.8 287.1,176.4 				"/>
				
					<linearGradient id="SVGID_11_" gradientUnits="userSpaceOnUse" x1="1410.64" y1="147.21" x2="1468.72" y2="147.21" gradientTransform="matrix(1 0 0 -1 -1101.36 344)">
					<stop  offset="0" style="stop-color:#42E8E0"/>
					<stop  offset="0.15" style="stop-color:#43E3E0"/>
					<stop  offset="0.33" style="stop-color:#45D5DF"/>
					<stop  offset="0.52" style="stop-color:#49BDDD"/>
					<stop  offset="0.72" style="stop-color:#4E9CDB"/>
					<stop  offset="0.93" style="stop-color:#5472D8"/>
					<stop  offset="1" style="stop-color:#5761D7"/>
				</linearGradient>
				<polygon class="st20" points="309.3,209.3 309.3,217.8 367.4,184.2 367.4,175.8 				"/>
				
					<linearGradient id="SVGID_12_" gradientUnits="userSpaceOnUse" x1="1352.5599" y1="147.215" x2="1410.64" y2="147.215" gradientTransform="matrix(1 0 0 -1 -1101.36 344)">
					<stop  offset="0" style="stop-color:#4ECDC4"/>
					<stop  offset="0.17" style="stop-color:#50C8C7"/>
					<stop  offset="0.36" style="stop-color:#54BACE"/>
					<stop  offset="0.57" style="stop-color:#5BA2DA"/>
					<stop  offset="0.79" style="stop-color:#6581EB"/>
					<stop  offset="1" style="stop-color:#715AFF"/>
				</linearGradient>
				<polygon class="st21" points="251.2,175.8 251.2,184.2 309.3,217.8 309.3,209.3 				"/>
				<polygon class="st22" points="309.3,208.4 252,175.3 251.2,175.8 309.3,209.3 367.4,175.8 366.6,175.3 				"/>
				<path class="st23" d="M328.2,247.1c0.2,0,0.4-0.2,0.4-0.4c0-0.1-0.1-0.3-0.2-0.4l-9.8-5.7c-1.6-1.1-2.7-2.9-2.8-4.8v-2.4
					c-0.1-2.2-1.3-4.3-3.2-5.5l-2-1.2c-0.2-0.1-0.4,0-0.5,0.1c0,0,0,0,0,0c-0.1,0.2,0,0.4,0.1,0.6l2,1.2c1.6,1.1,2.7,2.9,2.8,4.8
					v2.4c0.1,2.2,1.3,4.3,3.2,5.5l9.8,5.6C328.1,247.1,328.2,247.1,328.2,247.1z"/>
				<path class="st23" d="M332.1,244.9c0.1,0,0.3-0.1,0.4-0.2c0.1-0.2,0-0.4-0.1-0.5l-9.8-5.7c-1.6-1.1-2.7-2.9-2.8-4.8v-2.4
					c-0.1-2.2-1.3-4.3-3.2-5.5l-2-1.2c-0.2-0.1-0.4-0.1-0.6,0.1c-0.1,0.2-0.1,0.4,0.1,0.6c0,0,0,0,0.1,0l2,1.2
					c1.6,1.1,2.7,2.9,2.8,4.8v2.4c0.1,2.2,1.3,4.3,3.2,5.5l9.8,5.7C332,244.9,332,244.9,332.1,244.9z"/>
				<path class="st23" d="M335.9,242.7c0.2,0,0.4-0.2,0.4-0.4c0-0.1-0.1-0.3-0.2-0.4l-9.8-5.7c-1.6-1.1-2.7-2.9-2.8-4.8v-2.4
					c-0.1-2.2-1.3-4.3-3.2-5.5l-2-1.2c-0.2-0.1-0.4-0.1-0.5,0.1c0,0,0,0,0,0c-0.1,0.2,0,0.4,0.1,0.6l2,1.2c1.6,1.1,2.7,2.9,2.8,4.8
					v2.4c0.1,2.2,1.3,4.3,3.2,5.5l9.8,5.7C335.8,242.7,335.8,242.7,335.9,242.7z"/>
				<path class="st23" d="M339.7,240.5c0.2,0,0.4-0.2,0.4-0.4c0-0.1-0.1-0.3-0.2-0.4l-9.8-5.7c-1.6-1.1-2.7-2.9-2.8-4.8v-2.4
					c-0.1-2.2-1.3-4.3-3.2-5.5l-2.1-1.2c-0.2-0.1-0.4,0-0.5,0.1c-0.1,0.2-0.1,0.4,0.1,0.5c0,0,0,0,0,0l2.1,1.2
					c1.6,1.1,2.7,2.9,2.8,4.8v2.4c0.1,2.2,1.3,4.3,3.2,5.5l9.8,5.7C339.6,240.5,339.6,240.5,339.7,240.5z"/>
				<path class="st23" d="M343.5,238.3c0.1,0,0.3-0.1,0.3-0.2c0.1-0.2,0.1-0.4-0.1-0.5c0,0,0,0,0,0l-9.8-5.7
					c-1.6-1.1-2.7-2.9-2.8-4.8v-2.4c-0.1-2.2-1.3-4.3-3.2-5.5l-2-1.2c-0.2-0.1-0.4,0-0.5,0.2c-0.1,0.2,0,0.4,0.1,0.5l2,1.2
					c1.6,1.1,2.7,2.9,2.8,4.8v2.3c0.1,2.2,1.3,4.3,3.2,5.5l9.8,5.7C343.3,238.3,343.4,238.3,343.5,238.3z"/>
				<path class="st23" d="M347.4,236.1c0.1,0,0.3-0.1,0.4-0.2c0.1-0.2,0-0.4-0.1-0.5l-9.8-5.7c-1.6-1.1-2.7-2.9-2.8-4.8v-2.4
					c-0.1-2.2-1.3-4.3-3.2-5.5l-2-1.2c-0.2-0.1-0.4-0.1-0.6,0.1c-0.1,0.2-0.1,0.4,0.1,0.6c0,0,0,0,0.1,0l2,1.2
					c1.6,1.1,2.7,2.9,2.8,4.8v2.4c0.1,2.2,1.3,4.3,3.2,5.5l9.8,5.7C347.2,236.1,347.3,236.1,347.4,236.1z"/>
				<path class="st23" d="M351.2,233.9c0.2,0,0.4-0.2,0.4-0.4c0-0.1-0.1-0.3-0.2-0.4l-9.8-5.7c-1.6-1.1-2.7-2.9-2.8-4.8v-2.4
					c-0.1-2.2-1.3-4.3-3.2-5.5l-2-1.2c-0.2-0.1-0.4-0.1-0.6,0.1c-0.1,0.2-0.1,0.4,0.1,0.6c0,0,0,0,0.1,0l2,1.2
					c1.6,1.1,2.7,2.9,2.8,4.8v2.4c0.1,2.2,1.3,4.3,3.2,5.5l9.8,5.7C351,233.9,351.1,233.9,351.2,233.9z"/>
				<path class="st23" d="M355,231.7c0.2,0,0.4-0.2,0.4-0.4c0-0.1-0.1-0.3-0.2-0.4l-9.8-5.7c-1.6-1.1-2.7-2.9-2.8-4.8v-2.4
					c-0.1-2.2-1.3-4.3-3.2-5.5l-2.1-1.2c-0.2-0.1-0.4,0-0.5,0.2c-0.1,0.2,0,0.4,0.1,0.5l2,1.2c1.6,1.1,2.7,2.9,2.8,4.8v2.4
					c0.1,2.2,1.3,4.3,3.2,5.5l9.8,5.7C354.9,231.7,354.9,231.7,355,231.7z"/>
				<path class="st23" d="M358.8,229.5c0.2,0,0.4-0.2,0.4-0.4c0-0.1-0.1-0.3-0.2-0.4l-9.8-5.7c-1.6-1.1-2.7-2.9-2.8-4.8v-2.4
					c-0.1-2.2-1.3-4.3-3.2-5.5l-2.1-1.2c-0.2-0.1-0.4,0-0.5,0.1c0,0,0,0,0,0c-0.1,0.2,0,0.4,0.1,0.6l2.1,1.2
					c1.6,1.1,2.7,2.9,2.8,4.8v2.4c0.1,2.2,1.3,4.3,3.2,5.5l9.8,5.7C358.7,229.4,358.7,229.5,358.8,229.5z"/>
				<path class="st23" d="M362.6,227.3c0.1,0,0.3-0.1,0.3-0.2c0.1-0.2,0.1-0.4-0.1-0.5c0,0,0,0,0,0l-9.8-5.7
					c-1.6-1.1-2.7-2.9-2.8-4.8v-2.4c-0.1-2.2-1.3-4.3-3.2-5.5l-2-1.1c-0.2-0.1-0.4-0.1-0.5,0.1c0,0,0,0,0,0c-0.1,0.2,0,0.4,0.1,0.5
					c0,0,0,0,0,0l2,1.2c1.6,1.1,2.7,2.9,2.8,4.8v2.3c0.1,2.2,1.3,4.3,3.2,5.5l9.8,5.7C362.5,227.2,362.6,227.3,362.6,227.3z"/>
				<path class="st23" d="M366.5,225.1c0.2,0,0.4-0.2,0.4-0.4c0-0.1-0.1-0.3-0.2-0.4l-9.8-5.7c-1.6-1.1-2.7-2.9-2.8-4.8v-2.4
					c-0.1-2.2-1.3-4.3-3.2-5.5l-2-1.2c-0.2-0.1-0.4-0.1-0.6,0.1c-0.1,0.2-0.1,0.4,0.1,0.6c0,0,0,0,0.1,0l2,1.2
					c1.6,1.1,2.7,2.9,2.8,4.8v2.4c0.1,2.2,1.3,4.3,3.2,5.5l9.8,5.7C366.3,225.1,366.4,225.1,366.5,225.1z"/>
				<path class="st23" d="M370.3,222.9c0.2,0,0.4-0.2,0.4-0.4c0-0.1-0.1-0.3-0.2-0.4l-9.8-5.7c-1.6-1.1-2.7-2.9-2.8-4.8v-2.4
					c-0.1-2.2-1.3-4.3-3.2-5.5l-2-1.2c-0.2-0.1-0.4,0-0.5,0.2c-0.1,0.2,0,0.4,0.1,0.5l2,1.2c1.6,1.1,2.7,2.9,2.8,4.8v2.4
					c0.1,2.2,1.3,4.3,3.2,5.5l9.8,5.7C370.1,222.8,370.2,222.9,370.3,222.9z"/>
				<path class="st23" d="M374.1,220.7c0.2,0,0.4-0.2,0.4-0.4c0-0.1-0.1-0.3-0.2-0.4l-9.8-5.7c-1.6-1.1-2.7-2.9-2.8-4.8V207
					c-0.1-2.2-1.3-4.3-3.2-5.5l-2.1-1.2c-0.2-0.1-0.4,0-0.5,0.1c0,0,0,0,0,0c-0.1,0.2,0,0.4,0.1,0.6l2,1.2c1.6,1.1,2.7,2.9,2.8,4.8
					v2.4c0.1,2.2,1.3,4.3,3.2,5.5l9.8,5.7C374,220.6,374,220.6,374.1,220.7z"/>
				<path class="st23" d="M377.9,218.5c0.1,0,0.3-0.1,0.4-0.2c0.1-0.2,0-0.4-0.1-0.5c0,0,0,0,0,0l-9.8-5.7c-1.6-1.1-2.7-2.9-2.8-4.8
					v-2.4c-0.1-2.2-1.3-4.3-3.2-5.5l-2-1.2c-0.2-0.1-0.4,0-0.5,0.1c0,0,0,0,0,0c-0.1,0.2-0.1,0.4,0.1,0.5c0,0,0,0,0,0l2.1,1.2
					c1.6,1.1,2.7,2.9,2.8,4.8v2.4c0.1,2.2,1.3,4.3,3.2,5.5l9.8,5.7C377.8,218.4,377.8,218.4,377.9,218.5z"/>
				<path class="st23" d="M381.8,216.2c0.1,0,0.3-0.1,0.3-0.2c0.1-0.2,0-0.4-0.1-0.6l-9.8-5.7c-1.6-1.1-2.7-2.9-2.8-4.8v-2.4
					c-0.1-2.2-1.3-4.3-3.2-5.5l-2-1.2c-0.2-0.1-0.4-0.1-0.5,0.1c0,0,0,0,0,0c-0.1,0.2,0,0.4,0.1,0.5c0,0,0,0,0,0l2,1.2
					c1.6,1.1,2.7,2.9,2.8,4.8v2.4c0.1,2.2,1.3,4.3,3.2,5.5l9.8,5.7C381.6,216.2,381.7,216.2,381.8,216.2z"/>
				<path class="st23" d="M385.6,214.1c0.2,0,0.4-0.2,0.4-0.4c0-0.1-0.1-0.3-0.2-0.4l-9.8-5.7c-1.6-1.1-2.7-2.9-2.8-4.8v-2.4
					c-0.1-2.2-1.3-4.3-3.2-5.5l-2-1.2c-0.2-0.1-0.4,0-0.5,0.2c-0.1,0.2,0,0.4,0.1,0.5l2,1.2c1.6,1.1,2.7,2.9,2.8,4.8v2.4
					c0.1,2.2,1.3,4.3,3.2,5.5l9.8,5.7C385.4,214,385.5,214,385.6,214.1z"/>
				<path class="st23" d="M389.4,211.9c0.2,0,0.4-0.2,0.4-0.4c0-0.1-0.1-0.3-0.2-0.4l-9.8-5.7c-1.6-1.1-2.7-2.9-2.8-4.8v-2.4
					c-0.1-2.2-1.3-4.3-3.2-5.5l-2-1.2c-0.2-0.1-0.4,0-0.5,0.1c0,0,0,0,0,0c-0.1,0.2,0,0.4,0.1,0.6l2,1.2c1.6,1.1,2.7,2.9,2.8,4.8
					v2.4c0.1,2.2,1.3,4.3,3.2,5.5l9.8,5.7C389.3,211.8,389.3,211.8,389.4,211.9z"/>
				<path class="st23" d="M393.2,209.6c0.1,0,0.3-0.1,0.4-0.2c0.1-0.2,0-0.4-0.1-0.5c0,0,0,0,0,0l-9.8-5.7c-1.6-1.1-2.7-2.9-2.8-4.8
					V196c-0.1-2.2-1.3-4.3-3.2-5.5l-2.1-1.2c-0.2-0.1-0.4,0-0.5,0.1c0,0,0,0,0,0c-0.1,0.2-0.1,0.4,0.1,0.5c0,0,0,0,0,0l2,1.2
					c1.7,1.1,2.7,2.9,2.8,4.8v2.4c0.1,2.2,1.3,4.3,3.2,5.5l9.8,5.7C393.1,209.6,393.1,209.6,393.2,209.6z"/>
				<path class="st23" d="M397,207.4c0.2,0,0.4-0.2,0.4-0.4c0-0.1-0.1-0.3-0.2-0.3l-9.8-5.7c-1.6-1.1-2.7-2.9-2.8-4.8v-2.4
					c-0.1-2.2-1.3-4.3-3.2-5.5l-2-1.2c-0.2-0.1-0.4-0.1-0.5,0.1c-0.1,0.2-0.1,0.4,0.1,0.6l2,1.2c1.6,1.1,2.7,2.9,2.8,4.8v2.4
					c0.1,2.2,1.3,4.3,3.2,5.5l9.8,5.7C396.9,207.4,396.9,207.4,397,207.4z"/>
				<path class="st23" d="M400.9,205.2c0.1,0,0.3-0.1,0.3-0.2c0.1-0.2,0.1-0.4-0.1-0.5c0,0,0,0,0,0l-9.8-5.7
					c-1.6-1.1-2.7-2.9-2.8-4.8v-2.4c-0.1-2.2-1.3-4.3-3.2-5.5l-2-1.2c-0.2-0.1-0.4,0-0.5,0.1c-0.1,0.2,0,0.4,0.1,0.5c0,0,0,0,0,0
					l2,1.2c1.6,1.1,2.7,2.9,2.8,4.8v2.4c0.1,2.2,1.3,4.3,3.2,5.5l9.8,5.7C400.7,205.2,400.8,205.2,400.9,205.2z"/>
				<path class="st23" d="M290,247.1c0.1,0,0.1,0,0.2-0.1l9.8-5.7c1.9-1.2,3.1-3.3,3.2-5.5v-2.4c0.1-2,1.1-3.7,2.8-4.8l2-1.2
					c0.2-0.1,0.3-0.4,0.1-0.6c-0.1-0.2-0.4-0.3-0.5-0.2c0,0,0,0,0,0l-2,1.2c-1.9,1.2-3.1,3.3-3.2,5.5v2.4c-0.1,2-1.1,3.8-2.8,4.8
					l-9.8,5.7c-0.2,0.1-0.3,0.4-0.2,0.5C289.8,247.1,289.9,247.1,290,247.1L290,247.1z"/>
				<path class="st23" d="M286.2,244.9c0.1,0,0.1,0,0.2-0.1l9.8-5.7c1.9-1.2,3.1-3.3,3.2-5.5v-2.4c0.1-2,1.1-3.8,2.8-4.8l2-1.2
					c0.2-0.1,0.3-0.3,0.1-0.5c-0.1-0.2-0.4-0.3-0.5-0.2c0,0,0,0,0,0l-2,1.2c-1.9,1.2-3.1,3.3-3.2,5.5v2.4c-0.1,2-1.1,3.7-2.8,4.8
					l-9.8,5.7c-0.2,0.1-0.3,0.3-0.1,0.5C285.9,244.8,286.1,244.9,286.2,244.9z"/>
				<path class="st23" d="M282.4,242.7c0.1,0,0.1,0,0.2-0.1l9.8-5.7c1.9-1.2,3.1-3.3,3.2-5.5v-2.4c0.1-2,1.1-3.7,2.8-4.8l2.1-1.2
					c0.2-0.1,0.3-0.4,0.1-0.5c0,0,0,0,0,0c-0.1-0.2-0.3-0.3-0.5-0.1c0,0,0,0,0,0l-2.1,1.2c-1.9,1.2-3.1,3.3-3.2,5.5v2.4
					c-0.1,2-1.1,3.8-2.8,4.8l-9.8,5.7c-0.2,0.1-0.3,0.4-0.2,0.5c0,0,0,0,0,0C282.1,242.6,282.3,242.7,282.4,242.7z"/>
				<path class="st23" d="M278.6,240.5c0.1,0,0.1,0,0.2,0l9.8-5.7c1.9-1.2,3.1-3.3,3.2-5.5v-2.4c0.1-2,1.1-3.8,2.8-4.8l2-1.2
					c0.2-0.1,0.3-0.4,0.2-0.5c0,0,0,0,0,0c-0.1-0.2-0.4-0.3-0.5-0.1l-2,1.2c-1.9,1.2-3.1,3.3-3.2,5.5v2.4c-0.1,2-1.1,3.7-2.8,4.8
					l-9.8,5.7c-0.2,0.1-0.3,0.4-0.1,0.5c0,0,0,0,0,0C278.3,240.4,278.4,240.5,278.6,240.5z"/>
				<path class="st23" d="M274.8,238.3c0.1,0,0.1,0,0.2-0.1l9.8-5.7c1.9-1.2,3.1-3.3,3.2-5.6v-2.4c0.1-2,1.1-3.7,2.8-4.8l2-1.2
					c0.2-0.1,0.3-0.4,0.1-0.6c-0.1-0.2-0.4-0.3-0.5-0.2c0,0,0,0,0,0l-2,1.2c-1.9,1.2-3.1,3.3-3.2,5.5v2.4c-0.1,2-1.1,3.8-2.8,4.8
					l-9.8,5.7c-0.2,0.1-0.3,0.4-0.2,0.5C274.5,238.2,274.6,238.3,274.8,238.3L274.8,238.3z"/>
				<path class="st23" d="M270.9,236.1c0.1,0,0.1,0,0.2-0.1l9.8-5.7c1.9-1.2,3.1-3.3,3.2-5.5v-2.4c0.1-2,1.1-3.8,2.8-4.8l2-1.2
					c0.2-0.1,0.3-0.3,0.2-0.5c-0.1-0.2-0.3-0.3-0.5-0.2c0,0,0,0-0.1,0l-2,1.2c-1.9,1.2-3.1,3.3-3.2,5.5v2.4c-0.1,2-1.1,3.7-2.8,4.8
					l-9.8,5.7c-0.2,0.1-0.3,0.3-0.1,0.5C270.7,236,270.8,236.1,270.9,236.1z"/>
				<path class="st23" d="M267.1,233.9c0.1,0,0.1,0,0.2-0.1l9.8-5.7c1.9-1.2,3.1-3.3,3.2-5.5v-2.4c0.1-2,1.1-3.8,2.8-4.8l2-1.2
					c0.2-0.1,0.3-0.3,0.2-0.5c-0.1-0.2-0.3-0.3-0.5-0.2c0,0,0,0-0.1,0l-2,1.2c-1.9,1.2-3.1,3.3-3.2,5.5v2.4c-0.1,2-1.1,3.8-2.8,4.8
					l-9.8,5.7c-0.2,0.1-0.3,0.4-0.2,0.5C266.9,233.8,267,233.9,267.1,233.9L267.1,233.9z"/>
				<path class="st23" d="M263.3,231.7c0.1,0,0.1,0,0.2,0l9.8-5.7c1.9-1.2,3.1-3.3,3.2-5.5v-2.4c0.1-2,1.1-3.8,2.8-4.8l2.1-1.2
					c0.2-0.1,0.3-0.4,0.1-0.5c0,0,0,0,0,0c-0.1-0.2-0.3-0.3-0.5-0.1l-2.1,1.2c-1.9,1.2-3.1,3.3-3.2,5.5v2.4c-0.1,2-1.1,3.7-2.8,4.8
					l-9.8,5.7c-0.2,0.1-0.3,0.4-0.2,0.5C263,231.6,263.2,231.7,263.3,231.7L263.3,231.7z"/>
				<path class="st23" d="M259.5,229.5c0.1,0,0.1,0,0.2-0.1l9.8-5.7c1.9-1.2,3.1-3.3,3.2-5.5v-2.4c0.1-2,1.1-3.7,2.8-4.8l2-1.2
					c0.2-0.1,0.3-0.4,0.1-0.5c-0.1-0.2-0.4-0.3-0.5-0.2l-2,1.2c-1.9,1.2-3.1,3.3-3.2,5.5v2.4c-0.1,2-1.1,3.8-2.8,4.8l-9.8,5.7
					c-0.2,0.1-0.3,0.4-0.1,0.5c0,0,0,0,0,0C259.2,229.4,259.3,229.5,259.5,229.5z"/>
				<path class="st23" d="M255.6,227.3c0.1,0,0.1,0,0.2-0.1l9.8-5.7c1.9-1.2,3.1-3.3,3.2-5.5v-2.4c0.1-2,1.1-3.7,2.8-4.8l2-1.2
					c0.2-0.1,0.3-0.3,0.2-0.5c-0.1-0.2-0.3-0.3-0.5-0.2c0,0,0,0-0.1,0l-2,1.2c-1.9,1.2-3.1,3.3-3.2,5.5v2.4c-0.1,2-1.1,3.7-2.8,4.8
					l-9.8,5.7c-0.2,0.1-0.3,0.4-0.2,0.5c0,0,0,0,0,0C255.4,227.2,255.5,227.3,255.6,227.3z"/>
				<path class="st23" d="M251.8,225.1c0.1,0,0.1,0,0.2-0.1l9.8-5.7c1.9-1.2,3.1-3.3,3.2-5.5v-2.4c0.1-2,1.1-3.8,2.8-4.8l2-1.2
					c0.2-0.1,0.3-0.3,0.2-0.5c-0.1-0.2-0.3-0.3-0.5-0.2c0,0,0,0-0.1,0l-2,1.2c-1.9,1.2-3.1,3.3-3.2,5.5v2.4c-0.1,2-1.1,3.7-2.8,4.8
					l-9.8,5.7c-0.2,0.1-0.3,0.4-0.2,0.5C251.5,225,251.7,225.1,251.8,225.1L251.8,225.1z"/>
				<path class="st23" d="M248,222.9c0.1,0,0.1,0,0.2-0.1l9.8-5.7c1.9-1.2,3.1-3.3,3.2-5.5v-2.4c0.1-2,1.1-3.8,2.8-4.8l2-1.2
					c0.2-0.1,0.3-0.4,0.1-0.5c-0.1-0.2-0.4-0.3-0.5-0.2l-2.1,1.2c-1.9,1.2-3.1,3.3-3.2,5.5v2.4c-0.1,2-1.1,3.7-2.8,4.8l-9.8,5.7
					c-0.2,0.1-0.3,0.4-0.2,0.5C247.7,222.8,247.9,222.9,248,222.9L248,222.9z"/>
				<path class="st23" d="M244.2,220.7c0.1,0,0.1,0,0.2-0.1l9.8-5.7c1.9-1.2,3.1-3.3,3.2-5.5V207c0.1-2,1.1-3.7,2.8-4.8l2.1-1.2
					c0.2-0.1,0.2-0.4,0.1-0.6c-0.1-0.2-0.3-0.3-0.5-0.2c0,0,0,0,0,0l-2.1,1.2c-1.9,1.2-3.1,3.3-3.2,5.5v2.4c-0.1,2-1.1,3.8-2.8,4.8
					l-9.8,5.7c-0.2,0.1-0.3,0.4-0.2,0.5C243.9,220.6,244.1,220.7,244.2,220.7L244.2,220.7z"/>
				<path class="st23" d="M240.4,218.5c0.1,0,0.1,0,0.2-0.1l9.8-5.7c1.9-1.2,3.1-3.3,3.2-5.5v-2.4c0.1-2,1.1-3.7,2.8-4.8l2-1.2
					c0.2-0.1,0.3-0.3,0.2-0.5c0,0,0,0,0,0c-0.1-0.2-0.4-0.3-0.5-0.2c0,0,0,0,0,0l-2,1.2c-1.9,1.2-3.1,3.3-3.2,5.5v2.4
					c-0.1,2-1.2,3.7-2.8,4.8l-9.8,5.7c-0.2,0.1-0.3,0.4-0.1,0.5c0,0,0,0,0,0C240.1,218.4,240.2,218.4,240.4,218.5z"/>
				<path class="st23" d="M236.5,216.2c0.1,0,0.1,0,0.2-0.1l9.8-5.7c1.9-1.2,3.1-3.3,3.2-5.5v-2.4c0.1-2,1.1-3.8,2.8-4.8l2.1-1.2
					c0.2-0.1,0.3-0.3,0.2-0.5s-0.3-0.3-0.5-0.2c0,0,0,0-0.1,0l-2.1,1.2c-1.9,1.2-3.1,3.3-3.2,5.5v2.4c-0.1,2-1.1,3.7-2.8,4.8
					l-9.8,5.7c-0.2,0.1-0.3,0.4-0.2,0.5C236.3,216.2,236.4,216.2,236.5,216.2L236.5,216.2z"/>
				<path class="st23" d="M232.7,214.1c0.1,0,0.1,0,0.2-0.1l9.8-5.7c1.9-1.2,3.1-3.3,3.2-5.5v-2.4c0.1-2,1.1-3.8,2.8-4.8l2.1-1.2
					c0.2-0.1,0.3-0.4,0.1-0.5c-0.1-0.2-0.4-0.3-0.5-0.2l-2.1,1.2c-1.9,1.2-3.1,3.3-3.2,5.5v2.4c-0.1,2-1.1,3.7-2.8,4.8l-9.8,5.7
					c-0.2,0.1-0.3,0.4-0.2,0.5C232.4,214,232.6,214.1,232.7,214.1L232.7,214.1z"/>
				<path class="st23" d="M228.9,211.9c0.1,0,0.1,0,0.2,0l9.8-5.7c1.9-1.2,3.1-3.3,3.2-5.5v-2.4c0.1-2,1.1-3.7,2.8-4.8l2-1.2
					c0.2-0.1,0.3-0.4,0.1-0.5c0,0,0,0,0,0c-0.1-0.2-0.3-0.3-0.5-0.2c0,0,0,0,0,0l-2.1,1.2c-1.9,1.2-3.1,3.3-3.2,5.5v2.4
					c-0.1,2-1.1,3.8-2.8,4.8l-9.8,5.7c-0.2,0.1-0.3,0.4-0.2,0.5C228.6,211.8,228.7,211.9,228.9,211.9L228.9,211.9z"/>
				<path class="st23" d="M225.1,209.6c0.1,0,0.1,0,0.2-0.1l9.8-5.7c1.9-1.2,3.1-3.3,3.2-5.5V196c0.1-2,1.1-3.7,2.8-4.8l2.1-1.2
					c0.2-0.1,0.3-0.3,0.1-0.5c0,0,0,0,0,0c-0.1-0.2-0.4-0.3-0.5-0.2c0,0,0,0,0,0l-2.1,1.2c-1.9,1.2-3.1,3.3-3.2,5.5v2.4
					c-0.1,2-1.1,3.8-2.8,4.8l-9.8,5.7c-0.2,0.1-0.3,0.4-0.2,0.5c0,0,0,0,0,0C224.8,209.6,224.9,209.6,225.1,209.6z"/>
				<path class="st23" d="M221.2,207.4c0.1,0,0.1,0,0.2-0.1l9.8-5.7c1.9-1.2,3.1-3.3,3.2-5.5v-2.4c0.1-2,1.1-3.7,2.8-4.8l2.1-1.2
					c0.2-0.1,0.3-0.4,0.2-0.5c0,0,0,0,0,0c-0.1-0.2-0.4-0.3-0.5-0.1c0,0,0,0,0,0l-2.1,1.2c-1.9,1.2-3.1,3.3-3.2,5.5v2.4
					c-0.1,2-1.1,3.7-2.8,4.8l-9.8,5.7c-0.2,0.1-0.2,0.4-0.1,0.6C221,207.4,221.1,207.4,221.2,207.4L221.2,207.4z"/>
				<path class="st23" d="M217.4,205.2c0.1,0,0.1,0,0.2-0.1l9.8-5.7c1.9-1.2,3.1-3.3,3.2-5.5v-2.4c0.1-2,1.1-3.8,2.8-4.8l2-1.2
					c0.2-0.1,0.3-0.4,0.1-0.5c-0.1-0.2-0.4-0.3-0.5-0.2l-2,1.2c-1.9,1.2-3.1,3.3-3.2,5.5v2.4c-0.1,2-1.1,3.7-2.8,4.8l-9.8,5.7
					c-0.2,0.1-0.3,0.4-0.2,0.5C217.1,205.2,217.3,205.2,217.4,205.2L217.4,205.2z"/>
				
					<radialGradient id="SVGID_13_" cx="-445.32" cy="165.68" r="3.8" gradientTransform="matrix(-1 0 0 -1 -120.79 344)" gradientUnits="userSpaceOnUse">
					<stop  offset="0" style="stop-color:#4AC4BB;stop-opacity:0.7"/>
					<stop  offset="1" style="stop-color:#4ECDC4"/>
				</radialGradient>
				<path class="st24" d="M328.3,178.3c0-2.1-1.7-3.8-3.8-3.8c-2.1,0-3.8,1.7-3.8,3.8s1.7,3.8,3.8,3.8c0,0,0,0,0,0
					C326.6,182.1,328.3,180.4,328.3,178.3z"/>
				
					<radialGradient id="SVGID_14_" cx="-9.28" cy="199.7998" r="3.8" gradientTransform="matrix(1 0 0 -1 0 344)" gradientUnits="userSpaceOnUse">
					<stop  offset="0" style="stop-color:#4AC4BB;stop-opacity:0.7"/>
					<stop  offset="1" style="stop-color:#4ECDC4"/>
				</radialGradient>
				<path class="st25" d="M356.3,144.2c0-2.1-1.7-3.8-3.8-3.8c-2.1,0-3.8,1.7-3.8,3.8c0,2.1,1.7,3.8,3.8,3.8
					C354.6,148,356.3,146.3,356.3,144.2C356.3,144.2,356.3,144.2,356.3,144.2z"/>
				
					<radialGradient id="SVGID_15_" cx="41.18" cy="232.6" r="4.09" gradientTransform="matrix(1 0 0 -1 0 344)" gradientUnits="userSpaceOnUse">
					<stop  offset="0" style="stop-color:#4AC4BB;stop-opacity:0.7"/>
					<stop  offset="1" style="stop-color:#4ECDC4"/>
				</radialGradient>
				<path class="st26" d="M306.1,111.4c0-2.3-1.8-4.1-4.1-4.1c-2.3,0-4.1,1.8-4.1,4.1s1.8,4.1,4.1,4.1c0,0,0,0,0,0
					C304.3,115.5,306.1,113.7,306.1,111.4z"/>
				
					<radialGradient id="SVGID_16_" cx="34.28" cy="221.25" r="2.44" gradientTransform="matrix(1 0 0 -1 0 344)" gradientUnits="userSpaceOnUse">
					<stop  offset="0" style="stop-color:#4AC4BB;stop-opacity:0.7"/>
					<stop  offset="1" style="stop-color:#4ECDC4"/>
				</radialGradient>
				<path class="st27" d="M311.4,122.8c0-1.3-1.1-2.4-2.4-2.4s-2.4,1.1-2.4,2.4c0,1.3,1.1,2.4,2.4,2.4
					C310.3,125.2,311.4,124.1,311.4,122.8C311.4,122.8,311.4,122.8,311.4,122.8z"/>
				
					<radialGradient id="SVGID_17_" cx="41.26" cy="221.74" r="1.57" gradientTransform="matrix(1 0 0 -1 0 344)" gradientUnits="userSpaceOnUse">
					<stop  offset="0" style="stop-color:#4AC4BB;stop-opacity:0.7"/>
					<stop  offset="1" style="stop-color:#4ECDC4"/>
				</radialGradient>
				<path class="st28" d="M303.5,122.3c0-0.9-0.7-1.6-1.6-1.6c-0.9,0-1.6,0.7-1.6,1.6c0,0.9,0.7,1.6,1.6,1.6c0,0,0,0,0,0
					C302.8,123.8,303.5,123.1,303.5,122.3C303.5,122.3,303.5,122.3,303.5,122.3z"/>
				
					<radialGradient id="SVGID_18_" cx="8.81" cy="205.31" r="1.57" gradientTransform="matrix(1 0 0 -1 0 344)" gradientUnits="userSpaceOnUse">
					<stop  offset="0" style="stop-color:#4AC4BB;stop-opacity:0.7"/>
					<stop  offset="1" style="stop-color:#4ECDC4"/>
				</radialGradient>
				<path class="st29" d="M336,138.7c0-0.9-0.7-1.6-1.6-1.6c-0.9,0-1.6,0.7-1.6,1.6c0,0.9,0.7,1.6,1.6,1.6c0,0,0,0,0,0
					C335.3,140.3,336,139.6,336,138.7C336,138.7,336,138.7,336,138.7z"/>
				
					<radialGradient id="SVGID_19_" cx="55.58" cy="220.27" r="0.48" gradientTransform="matrix(1 0 0 -1 0 344)" gradientUnits="userSpaceOnUse">
					<stop  offset="0" style="stop-color:#4AC4BB;stop-opacity:0.7"/>
					<stop  offset="1" style="stop-color:#4ECDC4"/>
				</radialGradient>
				<path class="st30" d="M288.1,123.7c0-0.3-0.2-0.5-0.5-0.5c0,0,0,0,0,0c-0.3,0-0.5,0.2-0.5,0.5c0,0.3,0.2,0.5,0.5,0.5
					S288.1,124,288.1,123.7L288.1,123.7z"/>
				
					<radialGradient id="SVGID_20_" cx="39.31" cy="208.73" r="0.48" gradientTransform="matrix(1 0 0 -1 0 344)" gradientUnits="userSpaceOnUse">
					<stop  offset="0" style="stop-color:#4AC4BB;stop-opacity:0.7"/>
					<stop  offset="1" style="stop-color:#4ECDC4"/>
				</radialGradient>
				<path class="st31" d="M304.4,135.3c0-0.3-0.2-0.5-0.5-0.5s-0.5,0.2-0.5,0.5s0.2,0.5,0.5,0.5S304.4,135.5,304.4,135.3z"/>
				
					<radialGradient id="SVGID_21_" cx="7.85" cy="187.26" r="0.48" gradientTransform="matrix(1 0 0 -1 0 344)" gradientUnits="userSpaceOnUse">
					<stop  offset="0" style="stop-color:#4AC4BB;stop-opacity:0.7"/>
					<stop  offset="1" style="stop-color:#4ECDC4"/>
				</radialGradient>
				<path class="st32" d="M335.8,156.7c0-0.3-0.2-0.5-0.5-0.5c0,0,0,0,0,0c-0.3,0-0.5,0.2-0.5,0.5c0,0.3,0.1,0.5,0.4,0.5
					c0.3,0,0.5-0.1,0.5-0.4C335.8,156.8,335.8,156.8,335.8,156.7L335.8,156.7z"/>
				
					<radialGradient id="SVGID_22_" cx="15.19" cy="188.24" r="0.48" gradientTransform="matrix(1 0 0 -1 0 344)" gradientUnits="userSpaceOnUse">
					<stop  offset="0" style="stop-color:#4AC4BB;stop-opacity:0.7"/>
					<stop  offset="1" style="stop-color:#4ECDC4"/>
				</radialGradient>
				<path class="st33" d="M328.5,155.8c0-0.3-0.2-0.5-0.5-0.5c0,0,0,0,0,0c-0.3,0-0.5,0.2-0.5,0.5c0,0,0,0,0,0
					c0,0.3,0.2,0.5,0.5,0.5C328.3,156.2,328.5,156,328.5,155.8C328.5,155.8,328.5,155.8,328.5,155.8z"/>
				
					<radialGradient id="SVGID_23_" cx="52.67" cy="196.4599" r="5.81" gradientTransform="matrix(1 0 0 -1 0 344)" gradientUnits="userSpaceOnUse">
					<stop  offset="0" style="stop-color:#4AC4BB;stop-opacity:0.7"/>
					<stop  offset="1" style="stop-color:#4ECDC4"/>
				</radialGradient>
				<path class="st34" d="M296.3,147.6c0-3.2-2.6-5.8-5.8-5.9s-5.8,2.6-5.9,5.8c0,3.2,2.6,5.8,5.8,5.9c0,0,0,0,0,0
					C293.7,153.4,296.3,150.8,296.3,147.6C296.3,147.6,296.3,147.6,296.3,147.6z"/>
				
					<radialGradient id="SVGID_24_" cx="63.14" cy="166.01" r="2.89" gradientTransform="matrix(1 0 0 -1 0 344)" gradientUnits="userSpaceOnUse">
					<stop  offset="0" style="stop-color:#4AC4BB;stop-opacity:0.7"/>
					<stop  offset="1" style="stop-color:#4ECDC4"/>
				</radialGradient>
				<path class="st35" d="M283,178c0-1.6-1.3-2.9-2.9-2.9s-2.9,1.3-2.9,2.9c0,1.6,1.3,2.9,2.9,2.9C281.7,180.9,283,179.6,283,178
					C283,178,283,178,283,178z"/>
				
					<radialGradient id="SVGID_25_" cx="27.16" cy="203.87" r="2.89" gradientTransform="matrix(1 0 0 -1 0 344)" gradientUnits="userSpaceOnUse">
					<stop  offset="0" style="stop-color:#4AC4BB;stop-opacity:0.7"/>
					<stop  offset="1" style="stop-color:#4ECDC4"/>
				</radialGradient>
				<path class="st36" d="M318.9,140.1c0-1.6-1.3-2.9-2.9-2.9c-1.6,0-2.9,1.3-2.9,2.9c0,1.6,1.3,2.9,2.8,2.9
					C317.6,143,318.9,141.8,318.9,140.1C318.9,140.2,318.9,140.2,318.9,140.1z"/>
				
					<radialGradient id="SVGID_26_" cx="76.13" cy="221.55" r="2.89" gradientTransform="matrix(1 0 0 -1 0 344)" gradientUnits="userSpaceOnUse">
					<stop  offset="0" style="stop-color:#4AC4BB;stop-opacity:0.7"/>
					<stop  offset="1" style="stop-color:#4ECDC4"/>
				</radialGradient>
				<path class="st37" d="M270,122.5c0-1.6-1.3-2.9-2.9-2.9c-1.6,0-2.9,1.3-2.9,2.9s1.3,2.9,2.9,2.9c0,0,0,0,0,0
					C268.7,125.3,270,124.1,270,122.5z"/>
				
					<radialGradient id="SVGID_27_" cx="86.27" cy="180.8299" r="2.89" gradientTransform="matrix(1 0 0 -1 0 344)" gradientUnits="userSpaceOnUse">
					<stop  offset="0" style="stop-color:#4AC4BB;stop-opacity:0.7"/>
					<stop  offset="1" style="stop-color:#4ECDC4"/>
				</radialGradient>
				<path class="st38" d="M259.8,163.2c0-1.6-1.3-2.9-2.9-2.9c-1.6,0-2.9,1.3-2.9,2.9c0,1.6,1.3,2.9,2.9,2.9c0,0,0,0,0,0
					C258.5,166.1,259.8,164.8,259.8,163.2z"/>
				
					<radialGradient id="SVGID_28_" cx="11.4" cy="246.38" r="2.89" gradientTransform="matrix(1 0 0 -1 0 344)" gradientUnits="userSpaceOnUse">
					<stop  offset="0" style="stop-color:#4AC4BB;stop-opacity:0.7"/>
					<stop  offset="1" style="stop-color:#4ECDC4"/>
				</radialGradient>
				<path class="st39" d="M334.7,97.6c0-1.6-1.3-2.9-2.9-2.9s-2.9,1.3-2.9,2.9c0,1.6,1.3,2.9,2.9,2.9
					C333.4,100.5,334.7,99.2,334.7,97.6z"/>
				
					<radialGradient id="SVGID_29_" cx="62.4" cy="266.1299" r="2.89" gradientTransform="matrix(1 0 0 -1 0 344)" gradientUnits="userSpaceOnUse">
					<stop  offset="0" style="stop-color:#4AC4BB;stop-opacity:0.7"/>
					<stop  offset="1" style="stop-color:#4ECDC4"/>
				</radialGradient>
				<path class="st40" d="M283.7,77.9c0-1.6-1.3-2.9-2.9-2.9s-2.9,1.3-2.9,2.9c0,1.6,1.3,2.9,2.9,2.9
					C282.4,80.8,283.7,79.5,283.7,77.9C283.7,77.9,283.7,77.9,283.7,77.9z"/>
				
					<radialGradient id="SVGID_30_" cx="30.76" cy="289.92" r="1.39" gradientTransform="matrix(1 0 0 -1 0 344)" gradientUnits="userSpaceOnUse">
					<stop  offset="0" style="stop-color:#4AC4BB;stop-opacity:0.7"/>
					<stop  offset="1" style="stop-color:#4ECDC4"/>
				</radialGradient>
				<path class="st41" d="M313.8,54.1c0-0.8-0.6-1.4-1.4-1.4c-0.8,0-1.4,0.6-1.4,1.4c0,0.8,0.6,1.4,1.4,1.4
					C313.2,55.5,313.8,54.9,313.8,54.1z"/>
				
					<radialGradient id="SVGID_31_" cx="17.67" cy="178.63" r="1.69" gradientTransform="matrix(1 0 0 -1 0 344)" gradientUnits="userSpaceOnUse">
					<stop  offset="0" style="stop-color:#4AC4BB;stop-opacity:0.7"/>
					<stop  offset="1" style="stop-color:#4ECDC4"/>
				</radialGradient>
				<path class="st42" d="M327.2,165.4c0-0.9-0.7-1.7-1.7-1.7s-1.7,0.7-1.7,1.7c0,0.9,0.7,1.7,1.7,1.7c0,0,0,0,0,0
					C326.5,167.1,327.2,166.3,327.2,165.4z"/>
				
					<radialGradient id="SVGID_32_" cx="54.65" cy="209.32" r="1.69" gradientTransform="matrix(1 0 0 -1 0 344)" gradientUnits="userSpaceOnUse">
					<stop  offset="0" style="stop-color:#4AC4BB;stop-opacity:0.7"/>
					<stop  offset="1" style="stop-color:#4ECDC4"/>
				</radialGradient>
				<path class="st43" d="M290.2,134.7c0-0.9-0.8-1.7-1.7-1.7s-1.7,0.8-1.7,1.7s0.8,1.7,1.7,1.7S290.2,135.6,290.2,134.7z"/>
				
					<radialGradient id="SVGID_33_" cx="69.52" cy="194.0699" r="1.14" gradientTransform="matrix(1 0 0 -1 0 344)" gradientUnits="userSpaceOnUse">
					<stop  offset="0" style="stop-color:#4AC4BB;stop-opacity:0.7"/>
					<stop  offset="1" style="stop-color:#4ECDC4"/>
				</radialGradient>
				<path class="st44" d="M274.8,149.9c0-0.6-0.5-1.1-1.1-1.1c-0.6,0-1.1,0.5-1.1,1.1c0,0.6,0.5,1.1,1.1,1.1
					C274.3,151.1,274.8,150.6,274.8,149.9C274.8,150,274.8,149.9,274.8,149.9z"/>
				
					<radialGradient id="SVGID_34_" cx="72.34" cy="191.78" r="1.66" gradientTransform="matrix(1 0 0 -1 0 344)" gradientUnits="userSpaceOnUse">
					<stop  offset="0" style="stop-color:#4AC4BB;stop-opacity:0.7"/>
					<stop  offset="1" style="stop-color:#4ECDC4"/>
				</radialGradient>
				<path class="st45" d="M272.5,152.2c0-0.9-0.7-1.7-1.6-1.7c-0.9,0-1.7,0.7-1.7,1.6c0,0.9,0.7,1.7,1.6,1.7
					C271.8,153.9,272.5,153.1,272.5,152.2C272.5,152.2,272.5,152.2,272.5,152.2z"/>
				
					<radialGradient id="SVGID_35_" cx="69.13" cy="188.63" r="0.92" gradientTransform="matrix(1 0 0 -1 0 344)" gradientUnits="userSpaceOnUse">
					<stop  offset="0" style="stop-color:#4AC4BB;stop-opacity:0.7"/>
					<stop  offset="1" style="stop-color:#4ECDC4"/>
				</radialGradient>
				<path class="st46" d="M275,155.4c0-0.5-0.4-0.9-0.9-0.9c-0.5,0-0.9,0.4-0.9,0.9c0,0.5,0.4,0.9,0.9,0.9c0,0,0,0,0,0
					C274.6,156.3,275,155.9,275,155.4C275,155.4,275,155.4,275,155.4z"/>
				
					<radialGradient id="SVGID_36_" cx="38.66" cy="181.34" r="1.19" gradientTransform="matrix(1 0 0 -1 0 344)" gradientUnits="userSpaceOnUse">
					<stop  offset="0" style="stop-color:#4AC4BB;stop-opacity:0.7"/>
					<stop  offset="1" style="stop-color:#4ECDC4"/>
				</radialGradient>
				<path class="st47" d="M305.7,162.7c0.1-0.7-0.4-1.2-1.1-1.3c-0.7-0.1-1.2,0.4-1.3,1.1c0,0.1,0,0.1,0,0.2
					c0.1,0.7,0.6,1.1,1.3,1.1C305.2,163.7,305.7,163.2,305.7,162.7z"/>
				
					<radialGradient id="SVGID_37_" cx="11.17" cy="203.15" r="1.19" gradientTransform="matrix(1 0 0 -1 0 344)" gradientUnits="userSpaceOnUse">
					<stop  offset="0" style="stop-color:#4AC4BB;stop-opacity:0.7"/>
					<stop  offset="1" style="stop-color:#4ECDC4"/>
				</radialGradient>
				<path class="st48" d="M333.2,140.9c0-0.7-0.5-1.2-1.2-1.2s-1.2,0.5-1.2,1.2s0.5,1.2,1.2,1.2S333.2,141.5,333.2,140.9z"/>
				
					<radialGradient id="SVGID_38_" cx="33.96" cy="185.4393" r="2.94" gradientTransform="matrix(1 0 0 -1 0 344)" gradientUnits="userSpaceOnUse">
					<stop  offset="0" style="stop-color:#4AC4BB;stop-opacity:0.7"/>
					<stop  offset="1" style="stop-color:#4ECDC4"/>
				</radialGradient>
				<path class="st49" d="M312.2,158.6c0-1.6-1.3-2.9-2.9-3c-1.6,0-2.9,1.3-3,2.9c0,1.6,1.3,2.9,2.9,3
					C310.8,161.5,312.1,160.3,312.2,158.6C312.2,158.6,312.2,158.6,312.2,158.6z"/>
				
					<linearGradient id="SVGID_39_" gradientUnits="userSpaceOnUse" x1="-430.07" y1="134.67" x2="-430.07" y2="344" gradientTransform="matrix(-1 0 0 -1 -120.79 344)">
					<stop  offset="0" style="stop-color:#4ECDC4"/>
					<stop  offset="1" style="stop-color:#0C3A37;stop-opacity:0"/>
				</linearGradient>
				<polygon class="st50" points="251.2,175.8 251.2,0 367.4,0 367.4,175.8 309.3,209.3 				"/>
			</g>
		</g>
	</g>
</g>
</svg>
