<?xml version="1.0" encoding="utf-8"?>
<!-- Generator: Adobe Illustrator 22.0.0, SVG Export Plug-In . SVG Version: 6.00 Build 0)  -->
<svg version="1.1" id="Layer_1" xmlns="http://www.w3.org/2000/svg" xmlns:xlink="http://www.w3.org/1999/xlink" x="0px" y="0px"
	 viewBox="0 0 494 342.3" style="enable-background:new 0 0 494 342.3;" xml:space="preserve">
<style type="text/css">
	.st0{opacity:0.3;fill:#42E8E0;enable-background:new    ;}
	.st1{opacity:0.1;fill:#4ECDC4;enable-background:new    ;}
	.st2{opacity:0.5;fill:url(#SVGID_1_);enable-background:new    ;}
	.st3{opacity:0.67;}
	.st4{fill:#0C3A37;}
	.st5{opacity:0.9;}
	.st6{fill:#42E8E0;}
	.st7{fill:url(#SVGID_2_);}
	.st8{fill:url(#SVGID_3_);}
	.st9{opacity:0.1;fill:#0C3A37;enable-background:new    ;}
	.st10{fill:#FFFFFF;}
	.st11{fill:url(#SVGID_4_);}
	.st12{fill:#C9C5FF;}
	.st13{fill:#2D2870;}
	.st14{opacity:0.5;fill:url(#SVGID_5_);enable-background:new    ;}
	.st15{opacity:0.5;fill:url(#SVGID_6_);enable-background:new    ;}
	.st16{opacity:0.5;fill:url(#SVGID_7_);enable-background:new    ;}
	.st17{opacity:0.5;fill:url(#SVGID_8_);enable-background:new    ;}
	.st18{opacity:0.5;fill:url(#SVGID_9_);enable-background:new    ;}
	.st19{opacity:0.5;fill:url(#SVGID_10_);enable-background:new    ;}
	.st20{opacity:0.5;fill:url(#SVGID_11_);enable-background:new    ;}
	.st21{opacity:0.5;fill:url(#SVGID_12_);enable-background:new    ;}
	.st22{opacity:0.8;fill:#4ECDC4;enable-background:new    ;}
	.st23{opacity:0.7;}
	.st24{fill:#DCFFFC;}
	.st25{fill:#D2FFFB;}
	.st26{fill:#63FCFC;}
	.st27{opacity:0.4;fill:url(#SVGID_13_);enable-background:new    ;}
</style>
<title>Asset 1cpu</title>
<g>
	<g id="Layer_2_1_">
		<g id="_ÎÓÈ_1">
			<g id="circuit">
				<path class="st0" d="M394.6,104.5L494,47.1v-0.8l-83.8,48.4V48.6l64.1-37l0.1,0.1c1.3,0.7,2.8,0.7,4.1,0c0.7-0.2,1-1,0.8-1.6
					c-0.1-0.4-0.4-0.7-0.8-0.8c-1.3-0.7-2.8-0.7-4.1,0c-0.9,0.5-1.1,1.2-0.6,1.8l-64.3,37.1V95l-15.7,9v51l-53.6,31l-8.3-4.8
					l41.4-23.9v-27.9l-0.2-0.1l-47-27.2v-9.5l26.6-15.3c1.2,0.5,2.6,0.4,3.8-0.2c0.7-0.2,1-0.9,0.8-1.6c-0.1-0.4-0.4-0.7-0.8-0.8
					c-1.3-0.7-2.8-0.7-4.1,0c-1,0.6-1.1,1.5-0.3,2.2l-26.6,15.4v10.2l0.2,0.1l47,27.1V157l-31.2,18v-11.6l14.3-8.3
					c1.2,0.5,2.6,0.4,3.8-0.2c0.7-0.2,1-1,0.8-1.6c-0.1-0.4-0.4-0.7-0.8-0.8c-1.3-0.7-2.8-0.7-4.1,0c-1,0.6-1.1,1.5-0.3,2.2
					l-14.3,8.3v12.4l-9.5,5.5l-11.2-6.4v-20.3l21.1-12.2v-14l-0.2-0.1l-44.4-25.6c0.8-0.7,0.7-1.6-0.3-2.2c-1.3-0.7-2.8-0.7-4.1,0
					c-0.7,0.2-1,0.9-0.8,1.6c0.1,0.4,0.4,0.7,0.8,0.8c1.2,0.6,2.6,0.7,3.8,0.2l44.5,25.7v13.2l-20.4,11.8v-14l-0.2-0.1l-27.1-15.7
					c0.8-0.7,0.7-1.6-0.3-2.2c-1.3-0.7-2.8-0.7-4.1,0c-0.7,0.2-1,1-0.8,1.6c0.1,0.4,0.4,0.7,0.8,0.8c1.2,0.6,2.6,0.7,3.8,0.2
					l27.3,15.8V174l-7.9-4.5l-12.9,7.5l-11.7-6.8v-16.4l-0.2-0.1l-31-17.9v-15.5c0.6,0,1.2-0.2,1.8-0.5c0.7-0.2,1-1,0.8-1.6
					c-0.1-0.4-0.4-0.7-0.8-0.8c-1.3-0.7-2.8-0.7-4.1,0c-0.7,0.2-1,1-0.8,1.6c0.1,0.4,0.4,0.7,0.8,0.8c0.5,0.3,1.1,0.5,1.7,0.5v15.9
					l0.2,0.1l31,17.9v15.7L236,140.7v-30.8l27.3-15.8h25.1h0.1l43-24.8c1.2,0.5,2.6,0.4,3.8-0.2c0.7-0.2,1-0.9,0.8-1.6
					c-0.1-0.4-0.4-0.7-0.8-0.8c-1.3-0.7-2.8-0.7-4.1,0c-1,0.6-1.1,1.5-0.3,2.2l-42.6,24.6h-23.8l79.1-45.7c1.2,0.5,2.6,0.4,3.8-0.2
					c0.7-0.2,1-1,0.8-1.6c-0.1-0.4-0.4-0.7-0.8-0.8c-1.3-0.7-2.8-0.7-4.1,0c-1,0.6-1.1,1.5-0.3,2.2l-107.5,62.1v31.6l0.2,0.1
					l62.6,36.1l-12.6,7.3l-106.9-61.7V86.1l-0.2-0.1l-36.3-21c0.8-0.7,0.7-1.6-0.3-2.2c-1.3-0.7-2.8-0.7-4.1,0c-0.7,0.2-1,1-0.8,1.6
					c0.1,0.4,0.4,0.7,0.8,0.8c1.2,0.6,2.6,0.7,3.8,0.2l36.5,21.1v36.8l0.2,0.1L284.8,185l-12,6.9l-105.7-61h-63l-39.4-22.7v-35
					c0.4-0.1,0.8-0.2,1.1-0.4c0.7-0.2,1-1,0.8-1.6c-0.1-0.4-0.4-0.7-0.8-0.8c-1.3-0.7-2.8-0.7-4.2,0c-0.7,0.2-1,1-0.8,1.6
					c0.1,0.4,0.4,0.7,0.8,0.8c0.7,0.4,1.5,0.5,2.3,0.5v35.2l0.2,0.1l39.7,22.9h63L256,183h-17.9l-30.5-17.6h-23.4l-0.1,0.1
					l-32.5,18.8c-1.2-0.5-2.6-0.4-3.8,0.2c-0.7,0.2-1,1-0.8,1.6c0.1,0.4,0.4,0.7,0.8,0.8c1.3,0.7,2.8,0.7,4.1,0
					c1-0.6,1.1-1.5,0.3-2.2l32.1-18.6h23.1l30.4,17.6h19.3l14.9,8.6l-32,18.5l-9.1-5.3v-13.8l-23.1-13.4c0.8-0.7,0.7-1.6-0.3-2.2
					c-1.3-0.7-2.8-0.7-4.1,0c-0.7,0.2-1,1-0.8,1.6c0.1,0.4,0.4,0.7,0.8,0.8c1.2,0.6,2.6,0.7,3.8,0.2l23.1,13.4v13l-24.7-14.2H194
					h-0.1L180,199c-1.2-0.5-2.6-0.4-3.8,0.2c-0.7,0.2-1,1-0.8,1.6c0.1,0.4,0.4,0.7,0.8,0.8c1.3,0.7,2.8,0.7,4.1,0
					c1-0.6,1.1-1.5,0.3-2.2l13.5-7.8h11.3l34,19.6l-6.2,3.6l19.7,11.3l-9.2,5.3h-14l-10-5.8c0.8-0.7,0.7-1.6-0.3-2.2
					c-1.3-0.7-2.8-0.7-4.1,0c-0.7,0.2-1,1-0.8,1.6c0.1,0.4,0.4,0.7,0.8,0.8c1.2,0.6,2.6,0.7,3.8,0.1l10.4,6h13L219,245.5l-55.3-31.9
					H124h-0.1l-22.4,12.9c-1.2-0.5-2.6-0.4-3.8,0.2c-0.7,0.2-1,0.9-0.8,1.6c0.1,0.4,0.4,0.7,0.8,0.8c1.3,0.7,2.8,0.7,4.2,0
					c1-0.6,1.1-1.5,0.3-2.2l22-12.7h39.4l42.7,24.7H188l-17.8-10.3c0.8-0.7,0.7-1.6-0.3-2.2c-1.3-0.7-2.8-0.7-4.1,0
					c-0.7,0.2-1,1-0.8,1.6c0.1,0.4,0.4,0.7,0.8,0.8c1.2,0.6,2.6,0.7,3.8,0.2l18.3,10.6h19.6l11,6.4l-28.1,16.2h-89.7L31,222
					c0.8-0.7,0.7-1.6-0.3-2.2c-1.3-0.7-2.9-0.7-4.2,0c-0.7,0.2-1,1-0.8,1.6c0.1,0.4,0.4,0.7,0.8,0.8c1.2,0.6,2.6,0.7,3.8,0.2
					l70.2,40.5h88.8l-11.1,6.4h-66.4h-0.1l-32.8,18.9c-1.2-0.5-2.6-0.4-3.8,0.2c-0.7,0.2-1,1-0.8,1.6c0.1,0.4,0.4,0.7,0.8,0.8
					c1.3,0.7,2.9,0.7,4.2,0c1-0.6,1.1-1.5,0.3-2.2l32.3-18.7h66.4h0.1l75.3-43.4l8.4,4.8L182.9,277H125h-0.1l-25.8,14.9
					c0,0.1,0,0.1,0,0.2l0,0c0,0.1,0,0.1,0,0.2s0,0.1,0,0.2l0,0l0,0l0,0l0,0v15l-28.9,16.7c-1.2-0.5-2.6-0.4-3.8,0.2
					c-0.7,0.2-1,1-0.8,1.6c0.1,0.4,0.4,0.7,0.8,0.8c1.3,0.7,2.8,0.7,4.2,0c1-0.6,1.1-1.5,0.3-2.2l29-16.7v-15.7h-0.2l25.5-14.7H183
					h0.1l79.5-45.9l9.5,5.5l-154.3,89.1v16.1h0.7v-15.8l154.3-89.1l11.7,6.8l-79.6,46v8.2l-14.1,8.1v18.9l-27.4,15.8
					c-1.2-0.5-2.6-0.4-3.8,0.2c-0.4,0.2-0.6,0.5-0.8,0.9h5.7c-0.1-0.3-0.3-0.5-0.5-0.6l27.4-15.8V307l13.4-7.8v30.3l8,4.6l-14.3,8.3
					h1.3l13.6-7.9l13.7,7.9h1.3l-22.9-13.2v-38.5l79.6-46l10.7,6.2l-56.3,32.5c-1.2-0.5-2.6-0.4-3.8,0.2c-0.7,0.2-1,1-0.8,1.6
					c0.1,0.4,0.4,0.7,0.8,0.8c1.3,0.7,2.8,0.7,4.1,0c1-0.6,1.1-1.5,0.3-2.2l56.3-32.5l10.3,6L239.5,296h-18.4
					c-0.1-0.4-0.4-0.7-0.8-0.9c-1.3-0.7-2.8-0.7-4.1,0c-0.7,0.2-1,1-0.8,1.6c0.1,0.4,0.4,0.7,0.8,0.8c1.3,0.7,2.8,0.7,4.1,0
					c0.4-0.2,0.7-0.5,0.8-0.9h18.5h0.1l67.8-39.1l4.2,2.4l3.2-1.9l16.2,9.3v13l-13.3,7.7l0,0h-21h-0.1l-23,13.3
					c-1.2-0.5-2.6-0.4-3.8,0.2c-0.7,0.2-1,1-0.8,1.6c0.1,0.4,0.4,0.7,0.8,0.8c1.3,0.7,2.8,0.7,4.1,0c1-0.6,1.1-1.5,0.3-2.2l22.6-13
					h19.7l-39.2,22.6c-1.2-0.5-2.7-0.5-3.9,0.1c-0.7,0.2-1,0.9-0.8,1.6c0.1,0.4,0.4,0.7,0.8,0.8c1.3,0.7,2.8,0.7,4.1,0
					c1-0.6,1.1-1.5,0.4-2.1l48.9-28.2v6.2l-29.1,16.8v11.9l-23.7,13.7c-1.2-0.5-2.6-0.4-3.8,0.2c-0.7,0.2-1,1-0.8,1.6
					c0.1,0.4,0.4,0.7,0.8,0.8c1.3,0.7,2.8,0.7,4.1,0c1-0.6,1.1-1.5,0.3-2.2l23.7-13.7v-11.9l29.1-16.8v-7l4.1-2.4V267l-16.1-9.3
					l10.6-6.1l33.2,19.2v21.8l-22.6,13c-1.2-0.5-2.7-0.5-3.9,0.1c-0.7,0.2-1,0.9-0.8,1.6c0.1,0.4,0.4,0.7,0.8,0.8
					c1.3,0.7,2.8,0.7,4.1,0c1-0.6,1.1-1.5,0.4-2.1l21.9-12.6V311l-17.3,10v21.4h0.7v-21l16.7-9.6v30.6h0.7v-71.9l-33.2-19.2
					l11.9-6.9l43.4,25.1v59.7l20.9,12.1v1.2h0.7v-1.6l-20.9-12V269l-43.4-25.1l8.8-5.1l58.6,33.8v50.9l32.4,18.7h1.3l-33.1-19.1
					v-50.9l-58.6-33.8l14.3-8.3l97.5,56.3v25.4l33.4,19.3v-0.8l-32.8-18.9V286l-54.8-31.7h43.4L494,280v-0.8l-44-25.4h-44.7
					l-41.5-24l16.6-9.6l35.7,20.6h57.3l20.6,11.9V252l-4.5-2.6h4.5v-0.7h-5.7l-14.8-8.5h-57.3l-10-5.8h24.4l0.1-0.1l12.3-7.1h50.9
					l0.2,0.1v-0.8h-50l13.8-7.9c1.2,0.5,2.6,0.4,3.8-0.2c0.7-0.2,1-0.9,0.8-1.6c-0.1-0.4-0.4-0.7-0.8-0.8c-1.3-0.7-2.8-0.7-4.1,0
					c-1,0.6-1.1,1.5-0.3,2.2l-26.7,15.4h-25.3l-24.1-13.9l8.9-5.1l-5.7-3.3H401l21.8,12.6c-0.8,0.7-0.7,1.6,0.3,2.2
					c1.3,0.7,2.8,0.7,4.1,0c0.7-0.2,1-1,0.8-1.6c-0.1-0.4-0.4-0.7-0.8-0.8c-1.2-0.6-2.6-0.7-3.8-0.2l-22.2-12.8h-18l-12.2-7l7.5-4.3
					h13.3l11.7-6.7h8.7l19.7,11.3c-0.9,0.7-0.8,1.6,0.2,2.2c1.3,0.7,2.9,0.7,4.2,0c0.7-0.2,1-1,0.8-1.6c-0.1-0.4-0.4-0.7-0.8-0.8
					c-1.2-0.6-2.5-0.7-3.7-0.2L412.3,192h-9.1l-11.7,6.8h-12l24-13.8h12.9l27,15.6H494v-0.7h-50.5l-27-15.6h-13.3l-0.1,0.1l-33,19
					l-8.7-5l37.3-21.5H425l21.7,12.5H494v-0.7h-47l-20.5-11.9H494v-0.7h-95.3h-0.1L361,197.9l-9.8-5.7l52-30h90.9v-0.7h-66.4
					l66.3-38.3v-0.8l-67.6,39h-22.9l49.3-28.4v-6.3l23.6-13.6c1.2,0.5,2.6,0.4,3.8-0.2c0.7-0.2,1-0.9,0.8-1.6
					c-0.1-0.4-0.4-0.7-0.8-0.8c-1.3-0.7-2.8-0.7-4.1,0c-1,0.6-1.1,1.5-0.3,2.2l-12.8,7.4v-17.2l31.1-18v-0.8l-31.8,18.3v18
					l-10.1,5.8v6.3l-49.7,28.7l0.2,0.3l-52.2,30.1l-9.5-5.5l53.6-31V104.5z M388.6,214.7l-77,44.5l-77-44.5l77-44.5L388.6,214.7z"/>
				<path id="circuit_shadow" class="st1" d="M494,89l-13.7,7.9v25.5l-121.6,70.2l-9.2-5.3l62.8-36.2v-6.5l11.1-6.4v-14.9l21.6-12.4
					c1,0.4,2.1,0.3,3-0.1c0.5-0.2,0.8-0.8,0.6-1.3c-0.1-0.3-0.3-0.5-0.6-0.6c-1-0.5-2.2-0.5-3.3,0c-0.8,0.5-0.9,1.2-0.2,1.7
					L422.8,123v14.9l-10.6,6.1v-23.9l-0.1-0.1l-6.1-3.5l36.8-21.2V71.4l26.1-15.1c1,0.4,2.1,0.3,3-0.1c0.5-0.2,0.8-0.8,0.6-1.3
					c-0.1-0.3-0.3-0.5-0.6-0.6c-1-0.5-2.2-0.5-3.3,0c-0.8,0.5-0.9,1.2-0.2,1.7l-26.1,15.1V95l-36.8,21.2l-59.8-34.5V55
					c0.5,0,1-0.2,1.4-0.4c0.5-0.2,0.8-0.8,0.6-1.3c-0.1-0.3-0.3-0.5-0.6-0.6c-1-0.5-2.2-0.5-3.3,0c-0.5,0.2-0.8,0.8-0.6,1.3
					c0.1,0.3,0.3,0.5,0.6,0.6c0.4,0.2,0.9,0.4,1.4,0.4v27l0.1,0.1l36,20.8H355l-21.2-12.2c0.7-0.5,0.6-1.2-0.2-1.7
					c-1-0.5-2.2-0.5-3.3,0c-0.5,0.2-0.8,0.8-0.6,1.3c0.1,0.3,0.3,0.5,0.6,0.6c0.9,0.5,2,0.5,3,0.1l21.6,12.5h27.2l29.6,17.1v30.3
					L349,187l-8.4-4.9l44.4-25.6c1,0.4,2.1,0.3,3-0.1c0.5-0.2,0.8-0.8,0.6-1.3c-0.1-0.3-0.3-0.5-0.6-0.6c-1-0.5-2.2-0.5-3.3,0
					c-0.8,0.5-0.9,1.2-0.2,1.7L340,181.8l-8.1-4.7l53.1-30.7h14.4c0.1,0.3,0.3,0.5,0.6,0.7c1,0.5,2.2,0.5,3.3,0
					c0.9-0.5,0.9-1.4,0-1.9c-1-0.5-2.2-0.5-3.3,0c-0.3,0.1-0.5,0.4-0.6,0.7h-14.6h-0.1l-53.4,30.9l-3.3-1.9v0.1l-2.4,1.4l-12.8-7.4
					v-10.2l10.5-6.1l0,0h16.5l18.1-10.5c1,0.4,2.1,0.3,3-0.1c0.9-0.5,0.9-1.4,0-1.9c-1-0.5-2.2-0.5-3.3,0c-0.8,0.5-0.9,1.2-0.2,1.7
					l-17.8,10.3h-15.5l30.9-17.9c1,0.4,2.1,0.4,3.1-0.1c0.5-0.2,0.8-0.8,0.6-1.3c-0.1-0.3-0.3-0.5-0.6-0.6c-1-0.5-2.2-0.5-3.3,0
					c-0.8,0.5-0.9,1.2-0.3,1.7L316,156.2v-4.9l22.9-13.2v-9.4l18.7-10.8c1,0.4,2.1,0.3,3-0.1c0.9-0.5,0.9-1.4,0-1.9
					c-1-0.5-2.2-0.5-3.3,0c-0.8,0.5-0.9,1.2-0.2,1.7l-18.7,10.8v9.4L315.5,151v5.5l-3.2,1.9v10.8l12.7,7.4l-8.4,4.8l-26.2-15.1
					v-17.2l17.8-10.2c1,0.4,2.1,0.4,3-0.1c0.5-0.2,0.8-0.8,0.6-1.3c-0.1-0.3-0.3-0.5-0.6-0.6c-1-0.5-2.2-0.5-3.3,0
					c-0.8,0.5-0.9,1.2-0.3,1.7l-17.3,10v-14l13.6-7.9v-26.1c0.5,0,1-0.1,1.4-0.4c0.5-0.2,0.8-0.8,0.6-1.3c-0.1-0.3-0.3-0.5-0.6-0.6
					c-1-0.5-2.2-0.5-3.3,0c-0.9,0.5-0.9,1.4,0,1.9c0.4,0.2,0.9,0.4,1.4,0.4v25.8l-13.1,7.6V88H290v78.6l26.2,15.1l-9.4,5.4
					l-34.2-19.8v-47.1l-16.5-9.5V93.2l-14.5-8.4c0.6-0.5,0.6-1.2-0.2-1.7c-1-0.5-2.3-0.5-3.3,0c-0.5,0.2-0.8,0.8-0.6,1.3
					c0.1,0.3,0.3,0.5,0.6,0.6c0.9,0.5,2,0.5,3,0.1l14.5,8.4v17.7l16.5,9.5v47.1l34.2,19.8l-7,4l-46.2-26.7v-40.1l-0.1-0.1
					l-40.9-23.6c0.6-0.5,0.6-1.3-0.2-1.7c-1-0.5-2.2-0.5-3.3,0c-0.5,0.2-0.8,0.8-0.6,1.3c0.1,0.3,0.3,0.5,0.6,0.6
					c0.9,0.5,2,0.5,3,0.1l41,23.7v40.2l0.1,0.1l46.1,26.6l-11.3,6.5L210.7,154v-20l-0.1-0.1l-64.3-37.1c0.6-0.5,0.6-1.3-0.2-1.7
					c-1-0.5-2.2-0.5-3.3,0c-0.5,0.2-0.8,0.8-0.6,1.3c0.1,0.3,0.3,0.5,0.6,0.6c0.9,0.5,2,0.5,3,0.1l64.5,37.2v20l0.1,0.1l43.1,24.9
					h-34.2l-39.6-22.8c0.7-0.5,0.6-1.3-0.2-1.7c-1-0.5-2.2-0.5-3.3,0c-0.5,0.2-0.8,0.8-0.6,1.3c0.1,0.3,0.3,0.5,0.6,0.6
					c0.9,0.5,2,0.5,3,0.1l40,23.1h35.2l32.7,18.9l-13.1,7.6L245.8,190h-45.2l-51.4-29.7h-28.5l-11.6-6.7c0.7-0.5,0.6-1.2-0.2-1.7
					c-1-0.5-2.2-0.5-3.3,0c-0.5,0.2-0.8,0.8-0.6,1.3c0.1,0.3,0.3,0.5,0.6,0.6c0.9,0.5,2,0.5,3,0.1l12,6.9h28.5l38.8,22.4h-33.6
					l-16.1-9.3c0.7-0.5,0.6-1.2-0.2-1.7c-1-0.5-2.2-0.5-3.3,0c-0.5,0.2-0.8,0.8-0.6,1.3c0.1,0.3,0.3,0.5,0.6,0.6
					c0.9,0.5,2,0.5,3,0.1l16.5,9.5h34.6l11.7,6.7h45.2l7.9,4.6h-19.2h-0.1l-9.6,5.6h-40.1l-11.3-6.5h-22.7c-0.1-0.3-0.4-0.5-0.6-0.7
					c-1-0.5-2.2-0.5-3.3,0c-0.5,0.2-0.8,0.8-0.6,1.3c0.1,0.3,0.3,0.5,0.6,0.6c1,0.5,2.2,0.5,3.3,0c0.3-0.1,0.5-0.4,0.6-0.7H173
					l11.3,6.5h39.4l-10.8,6.3c-1-0.4-2.1-0.3-3,0.1c-0.5,0.2-0.8,0.8-0.6,1.3c0.1,0.3,0.3,0.5,0.6,0.6c1,0.5,2.3,0.5,3.3,0
					c0.8-0.5,0.9-1.2,0.2-1.7l21-12.2h20l19,11l-7,4.1l0.4,0.2l4.1,2.4h-13.1l-17.1-9.9c0.7-0.5,0.6-1.3-0.2-1.7
					c-1-0.5-2.2-0.5-3.3,0c-0.5,0.2-0.8,0.8-0.6,1.3c0.1,0.3,0.3,0.5,0.6,0.6c0.9,0.5,2,0.5,3,0.1l17.5,10.1h14.1l9.6,5.5l-5.9,3.4
					H265h-0.1l-9.2,5.3h-6.9l-15.5-9c0.7-0.5,0.6-1.3-0.2-1.8c-1-0.5-2.2-0.5-3.3,0c-0.5,0.2-0.8,0.8-0.6,1.3
					c0.1,0.3,0.3,0.5,0.6,0.6c0.9,0.5,2,0.5,2.9,0.2l15.9,9.2h7.1h0.1l9.1-5.3h9.4L255.4,234h-10.2L224,221.7h-64.1l-39.7-22.9
					c0.7-0.5,0.6-1.3-0.2-1.8c-1-0.5-2.2-0.5-3.3,0c-0.5,0.2-0.8,0.8-0.6,1.3c0.1,0.3,0.3,0.5,0.6,0.6c0.9,0.5,2,0.5,3,0.1
					l40.1,23.2h64.1l21.2,12.3h10.5h0.1l26-15l6.8,3.9l-29.4,16.9h-20.8l-17.1-9.9h-43.9c-0.1-0.3-0.3-0.5-0.6-0.7
					c-1-0.5-2.2-0.5-3.3,0c-0.5,0.2-0.8,0.8-0.6,1.3c0.1,0.3,0.3,0.5,0.6,0.6c1,0.5,2.2,0.5,3.3,0c0.3-0.1,0.5-0.4,0.6-0.7H221
					l16.2,9.4h-61.8h-0.1l-58.9,34c-1-0.4-2.1-0.3-3,0.1c-0.5,0.2-0.8,0.8-0.6,1.3c0.1,0.3,0.3,0.5,0.6,0.6c1,0.5,2.2,0.5,3.3,0
					c0.8-0.5,0.9-1.2,0.2-1.7l58.6-33.8h83.6h0.1l29.7-17.1l7.8,4.5L256,252h-72.1h-0.1l-63.2,36.4H47.1L4.2,263.6
					c0.7-0.5,0.6-1.3-0.2-1.7c-1-0.5-2.2-0.5-3.3,0c-0.5,0.2-0.8,0.8-0.6,1.3c0.1,0.3,0.3,0.5,0.6,0.6c0.9,0.5,2,0.5,3,0.1l43.3,25
					h73.9h0.1l63.1-36.5h52.5L159.4,297v11.7l-30.8,17.8c-1-0.4-2.1-0.3-3,0.1c-0.5,0.2-0.8,0.8-0.6,1.3c0.1,0.3,0.3,0.5,0.6,0.6
					c1,0.5,2.2,0.5,3.3,0c0.8-0.5,0.9-1.2,0.2-1.7l30.8-17.8v-11.7l77.7-44.8h18l-38.8,22.4v5l-18.6,10.7c-1-0.4-2.1-0.3-3,0.1
					c-0.5,0.2-0.8,0.8-0.6,1.3c0.1,0.3,0.3,0.5,0.6,0.6c1,0.5,2.2,0.5,3.3,0c0.8-0.5,0.9-1.2,0.2-1.7l10.1-5.9v13.5l-58.5,33.7
					c-1-0.4-2.1-0.3-3,0.1c-0.5,0.2-0.8,0.8-0.6,1.3c0.1,0.3,0.3,0.5,0.6,0.6c1,0.5,2.2,0.5,3.3,0c0.8-0.5,0.9-1.2,0.2-1.7
					l58.4-33.8v-14.1l7.9-4.6v-5l39.1-22.6l-0.1-0.2l41.1-23.8l7.5,4.3l-42.3,24.4v40.1L185,342.3h1l64.4-37.2v36.3l-1.5,0.9h1
					l0.9-0.5v-36.9l12.3-7.1v-40.1l42.3-24.4l6.6,3.8l-32.6,18.8v22l0.1,0.1l37.1,21.4v7.5l-21,12.1c-1-0.4-2.1-0.3-3,0.1
					c-0.5,0.2-0.8,0.8-0.6,1.3c0.1,0.3,0.3,0.5,0.6,0.6c1,0.5,2.2,0.5,3.3,0c0.8-0.5,0.9-1.2,0.2-1.7l21-12.1v-8l-0.1-0.1l-37-21.4
					v-21.4l24.6-14.2v9.2l-11.3,6.5c-1-0.4-2.1-0.3-3,0.1c-0.5,0.2-0.8,0.8-0.6,1.3c0.1,0.3,0.3,0.5,0.6,0.6c1,0.5,2.2,0.5,3.3,0
					c0.8-0.5,0.9-1.2,0.2-1.7l11.3-6.5v-9.8l7.5-4.3l8.8,5.1v16l-16.6,9.6v11l0.1,0.1l35,20.2c-0.6,0.5-0.6,1.3,0.2,1.7
					c1,0.5,2.2,0.5,3.3,0c0.5-0.2,0.8-0.8,0.6-1.3c-0.1-0.3-0.3-0.5-0.6-0.6c-0.9-0.5-2-0.5-3-0.1l-35.1-20.3v-10.5l16.1-9.3v11
					l21.5,12.4c-0.6,0.5-0.6,1.2,0.2,1.7c1,0.5,2.2,0.5,3.3,0c0.5-0.2,0.8-0.8,0.6-1.3c-0.1-0.3-0.3-0.5-0.6-0.6
					c-0.9-0.5-2-0.5-3-0.1l-21.5-12.4v-27l6.2,3.6l0.1-0.1l10.1-5.8l9.2,5.3v12.9l24.5,14.2V285c-0.5,0-0.9,0.1-1.4,0.4
					c-0.9,0.5-0.9,1.4,0,1.9c1,0.5,2.2,0.5,3.3,0c0.5-0.2,0.8-0.8,0.6-1.3c-0.1-0.3-0.3-0.5-0.6-0.6c-0.4-0.2-0.9-0.4-1.4-0.4v-12.5
					L348,258.3V246l39.7,22.9v24.3l-21.5,12.4h-19.7h-0.1l-33.9,19.6c-1-0.4-2.1-0.3-3,0.1c-0.5,0.2-0.8,0.8-0.6,1.3
					c0.1,0.3,0.3,0.5,0.6,0.6c1,0.5,2.2,0.5,3.3,0c0.8-0.5,0.9-1.2,0.2-1.7l33.6-19.4h18.7l-62.3,36c-1-0.4-2.1-0.3-3,0.1l0,0h3.8
					l84.5-48.8v-24.9l-0.1-0.1L338.8,240l9.9-5.7L433,283v29l28.8,16.6c-0.7,0.5-0.6,1.3,0.2,1.7c1,0.5,2.2,0.5,3.3,0
					c0.5-0.2,0.8-0.8,0.6-1.3c-0.1-0.3-0.3-0.5-0.6-0.6c-0.9-0.5-2-0.5-3-0.1l-28.8-16.6v-29l-0.1-0.1L349.3,234l9.5-5.5l83.3,48.1
					h49.7l2.3,1.4v-0.6l-2.2-1.3h-49.6L372,235.5h14l24,13.9h18.5h0.1l25.6-14.8c1,0.4,2.1,0.3,3-0.1c0.5-0.2,0.8-0.8,0.6-1.3
					c-0.1-0.3-0.3-0.5-0.6-0.6c-1-0.5-2.2-0.5-3.3,0c-0.8,0.5-0.9,1.2-0.2,1.7l-25.3,14.6h-18.2l-24-13.9H371l-11.7-6.8l25.2-14.6
					l7.2,4.1v10.9l18.2,10.5c-0.7,0.5-0.6,1.3,0.2,1.7c1,0.5,2.2,0.5,3.3,0c0.9-0.5,0.9-1.4,0-1.9s-2-0.5-3-0.1l-18.2-10.5V218
					l19.4,11.2h9.2h0.1l11-6.3c1,0.4,2.1,0.3,3-0.1c0.5-0.2,0.8-0.8,0.6-1.3c-0.1-0.3-0.3-0.5-0.6-0.6c-1-0.5-2.2-0.5-3.3,0
					c-0.8,0.5-0.9,1.2-0.2,1.7l-10.7,6.2h-8.9L385,213.4l4.9-2.8l-0.4-0.2l-15.1-8.7l7.3-4.2h11l7.9,4.5c-0.6,0.5-0.5,1.2,0.3,1.7
					c1,0.5,2.2,0.5,3.3,0c0.5-0.2,0.8-0.8,0.6-1.3c-0.1-0.3-0.3-0.5-0.6-0.6c-0.9-0.5-2-0.5-3-0.1l-8.2-4.8h-10.3l18.5-10.7
					l43.6,25.2H476h0.1l17.7-10.2c0.1,0,0.2,0.1,0.4,0.1v-2.4c-0.2,0.1-0.4,0.1-0.6,0.3c-0.8,0.5-0.9,1.2-0.2,1.7l-17.3,10H445
					l-33.6-19.4h14.4l14.1,8.1c-0.6,0.5-0.6,1.2,0.2,1.7c1,0.5,2.2,0.5,3.3,0c0.5-0.2,0.8-0.8,0.6-1.3c-0.1-0.3-0.3-0.5-0.6-0.6
					c-0.9-0.5-2-0.5-3-0.1L426,191h-15.4l-8.7-5l22.1-12.8h70.4v-0.5h-69.5l8.8-5.1h52.4h0.1l8.3-4.8v-0.6l-8.5,4.9h-52.3h-0.1
					l-59.3,34.2l-6.6-3.8l62.4-36h45.6h0.1l18.8-10.8V150l-19,11H430h-0.1l-62.7,36.2l-7.5-4.3l121.6-70.2V97.2l13.2-7.6V89H494z
					 M388.8,210.6l-60.7,35.1l-60.7-35.1l60.7-35.1L388.8,210.6z"/>
			</g>
			<g id="cpu">
				
					<radialGradient id="SVGID_1_" cx="-3489.1709" cy="752.5436" r="183.1039" gradientTransform="matrix(0.87 0.5 -0.87 0.5 3992.6899 1564.77)" gradientUnits="userSpaceOnUse">
					<stop  offset="0" style="stop-color:#4ECDC4;stop-opacity:0.5"/>
					<stop  offset="0.8048" style="stop-color:#2E8680;stop-opacity:0"/>
				</radialGradient>
				<ellipse class="st2" cx="318.3" cy="196.5" rx="224.4" ry="129.6"/>
				<g class="st3">
					<polygon class="st4" points="467.3,202.9 311.3,112.8 155.3,202.9 311.3,293 					"/>
				</g>
				<g class="st3">
					<polygon class="st4" points="443.1,202.9 311.3,126.8 179.5,202.9 311.3,279 					"/>
				</g>
				<g class="st5">
					<polygon class="st4" points="415,202.9 311.3,143 207.6,202.9 311.3,262.8 					"/>
				</g>
				<path class="st6" d="M310.9,270.4c-1.7,0.1-3.5-0.4-5-1.2l-109.6-63.3c-1.2-0.6-2-1.8-2.2-3.1c0-1,0.7-2,1.6-2.4l110.9-64
					c2.3-1.3,6.3-1.1,8.9,0.4l109.6,63.3c1.2,0.6,2,1.8,2.2,3.1c0,1-0.7,2-1.6,2.4l-110.9,64l0,0
					C313.6,270.3,312.3,270.6,310.9,270.4z M315.2,137.4c-1.5-0.8-3.1-1.2-4.8-1.2c-1.3-0.1-2.5,0.2-3.6,0.8L196,201
					c-0.8,0.3-1.3,1.1-1.4,1.9c0.2,1.2,0.9,2.1,2,2.6l109.6,63.3c2.4,1.5,6.2,1.6,8.3,0.4l110.9-64c0.8-0.3,1.3-1.1,1.4-1.9
					c-0.2-1.2-0.9-2.2-2-2.6L315.2,137.4L315.2,137.4z"/>
				
					<linearGradient id="SVGID_2_" gradientUnits="userSpaceOnUse" x1="1654.6544" y1="592.3219" x2="1394.4545" y2="401.0819" gradientTransform="matrix(-1 0 0 1 1721.16 -216)">
					<stop  offset="0" style="stop-color:#5761D7"/>
					<stop  offset="0.18" style="stop-color:#5C66D9"/>
					<stop  offset="0.39" style="stop-color:#6A73DF"/>
					<stop  offset="0.61" style="stop-color:#8289E8"/>
					<stop  offset="0.85" style="stop-color:#A3A7F5"/>
					<stop  offset="1" style="stop-color:#BCBEFF"/>
				</linearGradient>
				<path class="st7" d="M194.3,198.7L194.3,198.7c0,1,0.7,2.1,2.1,2.9L306,264.9c2.5,1.5,6.4,1.7,8.6,0.4l110.9-64
					c0.9-0.4,1.4-1.3,1.5-2.2l0,0v-5.4h-6.5l-105.2-60.8c-2.6-1.5-6.4-1.7-8.6-0.4l-105.7,61h-6.7V198.7z"/>
				
					<linearGradient id="SVGID_3_" gradientUnits="userSpaceOnUse" x1="1117.88" y1="409.4704" x2="1499.02" y2="409.4704" gradientTransform="matrix(-1 0 0 1 1721.16 -216)">
					<stop  offset="0" style="stop-color:#C0BFF6"/>
					<stop  offset="0.29" style="stop-color:#C5C4F7"/>
					<stop  offset="0.64" style="stop-color:#D3D2F9"/>
					<stop  offset="1" style="stop-color:#E9E9FD"/>
				</linearGradient>
				<path class="st8" d="M306.1,259.4l-109.6-63.3c-2.5-1.5-2.8-3.7-0.6-5l110.9-64c2.2-1.2,6.1-1.1,8.6,0.4L425,190.8
					c2.5,1.5,2.8,3.7,0.6,5l-110.9,64C312.4,261.1,308.6,260.9,306.1,259.4z"/>
				<path class="st9" d="M306.4,254.9l-102-58.9c-2.4-1.3-2.6-3.4-0.6-4.6l103.1-59.6c2-1.2,5.6-1.1,8,0.3L417,191
					c2.4,1.4,2.6,3.4,0.6,4.6l-103.2,59.6C312.3,256.4,308.7,256.3,306.4,254.9z"/>
				<path class="st10" d="M194.3,193.1c-0.1,1.1,0.6,2.2,2.1,3.1L306,259.5c2.5,1.5,6.4,1.7,8.6,0.4l110.9-64
					c0.9-0.5,1.5-1.4,1.4-2.5c-0.1,0.9-0.7,1.5-1.4,1.9l-110.9,64c-2.2,1.2-6.1,1.1-8.6-0.4l-109.6-63.3
					C195.4,195.1,194.6,194.2,194.3,193.1z"/>
				
					<linearGradient id="SVGID_4_" gradientUnits="userSpaceOnUse" x1="1297.79" y1="426.4" x2="1491.3199" y2="426.4" gradientTransform="matrix(-1 0 0 1 1721.16 -216)">
					<stop  offset="0" style="stop-color:#715AFF"/>
					<stop  offset="0.16" style="stop-color:#7761FF"/>
					<stop  offset="0.39" style="stop-color:#8775FF"/>
					<stop  offset="0.67" style="stop-color:#A195FF"/>
					<stop  offset="0.97" style="stop-color:#C6C1FF"/>
					<stop  offset="1" style="stop-color:#C9C5FF"/>
				</linearGradient>
				<polygon class="st11" points="386,184.2 386,193 310.5,236.6 235,193 235,184.2 				"/>
				<polygon class="st12" points="235,184.2 310.5,140.6 386,184.2 310.5,227.8 				"/>
				<polygon class="st10" points="235.9,183.7 235,184.2 310.5,227.8 386,184.2 385.2,183.7 310.5,226.8 				"/>
				<polygon class="st13" points="252.4,184.2 310.5,150.7 368.6,184.2 310.5,217.8 				"/>
				
					<linearGradient id="SVGID_5_" gradientUnits="userSpaceOnUse" x1="1352.5599" y1="400.25" x2="1468.76" y2="400.25" gradientTransform="matrix(-1 0 0 1 1721.16 -216)">
					<stop  offset="0" style="stop-color:#4ECDC4"/>
					<stop  offset="0.17" style="stop-color:#50C8C7"/>
					<stop  offset="0.36" style="stop-color:#54BACE"/>
					<stop  offset="0.57" style="stop-color:#5BA2DA"/>
					<stop  offset="0.79" style="stop-color:#6581EB"/>
					<stop  offset="1" style="stop-color:#715AFF"/>
				</linearGradient>
				<polygon class="st14" points="252.4,184.2 310.5,150.7 368.6,184.2 310.5,217.8 				"/>
				
					<linearGradient id="SVGID_6_" gradientUnits="userSpaceOnUse" x1="1410.6599" y1="379.25" x2="1468.76" y2="379.25" gradientTransform="matrix(-1 0 0 1 1721.16 -216)">
					<stop  offset="0" style="stop-color:#42E8E0"/>
					<stop  offset="0.15" style="stop-color:#43E3E0"/>
					<stop  offset="0.33" style="stop-color:#45D5DF"/>
					<stop  offset="0.52" style="stop-color:#49BDDD"/>
					<stop  offset="0.72" style="stop-color:#4E9CDB"/>
					<stop  offset="0.93" style="stop-color:#5472D8"/>
					<stop  offset="1" style="stop-color:#5761D7"/>
				</linearGradient>
				<polygon class="st15" points="310.5,150.7 252.4,184.2 252.4,175.8 310.5,142.3 				"/>
				
					<linearGradient id="SVGID_7_" gradientUnits="userSpaceOnUse" x1="1352.5599" y1="379.25" x2="1410.6599" y2="379.25" gradientTransform="matrix(-1 0 0 1 1721.16 -216)">
					<stop  offset="0" style="stop-color:#42E8E0"/>
					<stop  offset="0.15" style="stop-color:#43E3E0"/>
					<stop  offset="0.33" style="stop-color:#45D5DF"/>
					<stop  offset="0.52" style="stop-color:#49BDDD"/>
					<stop  offset="0.72" style="stop-color:#4E9CDB"/>
					<stop  offset="0.93" style="stop-color:#5472D8"/>
					<stop  offset="1" style="stop-color:#5761D7"/>
				</linearGradient>
				<polygon class="st16" points="310.5,142.3 368.6,175.8 368.6,184.2 310.5,150.7 				"/>
				
					<linearGradient id="SVGID_8_" gradientUnits="userSpaceOnUse" x1="1352.5599" y1="391.8" x2="1468.76" y2="391.8" gradientTransform="matrix(-1 0 0 1 1721.16 -216)">
					<stop  offset="0" style="stop-color:#42E8E0"/>
					<stop  offset="0.15" style="stop-color:#43E3E0"/>
					<stop  offset="0.33" style="stop-color:#45D5DF"/>
					<stop  offset="0.52" style="stop-color:#49BDDD"/>
					<stop  offset="0.72" style="stop-color:#4E9CDB"/>
					<stop  offset="0.93" style="stop-color:#5472D8"/>
					<stop  offset="1" style="stop-color:#5761D7"/>
				</linearGradient>
				<polygon class="st17" points="252.4,175.8 310.5,142.3 368.6,175.8 310.5,209.3 				"/>
				
					<linearGradient id="SVGID_9_" gradientUnits="userSpaceOnUse" x1="-917.29" y1="391.8" x2="-870.89" y2="391.8" gradientTransform="matrix(1 0 0 1 1204.59 -216)">
					<stop  offset="0" style="stop-color:#00FFE9"/>
					<stop  offset="1" style="stop-color:#55DDDF"/>
				</linearGradient>
				<polygon class="st18" points="287.3,175.8 310.5,162.4 333.7,175.8 310.5,189.2 				"/>
				
					<linearGradient id="SVGID_10_" gradientUnits="userSpaceOnUse" x1="-917.29" y1="385.4" x2="-870.89" y2="385.4" gradientTransform="matrix(1 0 0 1 1204.59 -216)">
					<stop  offset="0" style="stop-color:#42E8E0"/>
					<stop  offset="0.15" style="stop-color:#43E3E0"/>
					<stop  offset="0.33" style="stop-color:#45D5DF"/>
					<stop  offset="0.52" style="stop-color:#49BDDD"/>
					<stop  offset="0.72" style="stop-color:#4E9CDB"/>
					<stop  offset="0.93" style="stop-color:#5472D8"/>
					<stop  offset="1" style="stop-color:#5761D7"/>
				</linearGradient>
				<polygon class="st19" points="332.7,176.4 333.7,175.8 310.5,162.4 287.3,175.8 288.4,176.4 310.5,163.6 				"/>
				
					<linearGradient id="SVGID_11_" gradientUnits="userSpaceOnUse" x1="1410.6599" y1="412.8" x2="1468.76" y2="412.8" gradientTransform="matrix(-1 0 0 1 1721.16 -216)">
					<stop  offset="0" style="stop-color:#42E8E0"/>
					<stop  offset="0.15" style="stop-color:#43E3E0"/>
					<stop  offset="0.33" style="stop-color:#45D5DF"/>
					<stop  offset="0.52" style="stop-color:#49BDDD"/>
					<stop  offset="0.72" style="stop-color:#4E9CDB"/>
					<stop  offset="0.93" style="stop-color:#5472D8"/>
					<stop  offset="1" style="stop-color:#5761D7"/>
				</linearGradient>
				<polygon class="st20" points="252.4,175.8 252.4,184.2 310.5,217.8 310.5,209.3 				"/>
				
					<linearGradient id="SVGID_12_" gradientUnits="userSpaceOnUse" x1="1352.5599" y1="412.8" x2="1410.6599" y2="412.8" gradientTransform="matrix(-1 0 0 1 1721.16 -216)">
					<stop  offset="0" style="stop-color:#4ECDC4"/>
					<stop  offset="0.17" style="stop-color:#50C8C7"/>
					<stop  offset="0.36" style="stop-color:#54BACE"/>
					<stop  offset="0.57" style="stop-color:#5BA2DA"/>
					<stop  offset="0.79" style="stop-color:#6581EB"/>
					<stop  offset="1" style="stop-color:#715AFF"/>
				</linearGradient>
				<polygon class="st21" points="310.5,209.3 310.5,217.8 368.6,184.2 368.6,175.8 				"/>
				<polygon class="st22" points="253.2,175.3 252.4,175.8 310.5,209.3 368.6,175.8 367.8,175.3 310.5,208.4 				"/>
				<g class="st23">
					<path class="st24" d="M320.1,146.4l9.8-5.7l0,0c0.2-0.1,0.2-0.3,0.1-0.5l0,0c-0.1-0.1-0.3-0.2-0.5-0.1l-9.8,5.7
						c-0.4,0.4-0.9,0.5-1.4,0.4c-0.7-0.2-1.2-0.9-1-1.7v-2.4c0.1-0.7-0.1-1.3-0.5-1.8c-0.8-0.9-2.2-1.1-3.1-0.3l-2.1,1.2l0,0
						c-0.2,0.2-0.2,0.4-0.1,0.6c0.1,0.2,0.3,0.2,0.5,0.1l2-1.2c0.3-0.4,0.8-0.5,1.3-0.4c0.7,0.2,1.2,0.9,1,1.7v2.4
						c-0.1,0.9,0.3,1.8,1.1,2.3c0.3,0.1,0.6,0.2,1,0.2C318.9,146.9,319.5,146.7,320.1,146.4z"/>
					<path class="st24" d="M323.7,148.5l9.8-5.7l0,0c0.2-0.1,0.2-0.3,0.1-0.5l0,0c-0.1-0.2-0.3-0.2-0.5-0.1l-9.8,5.7
						c-0.3,0.4-0.8,0.5-1.3,0.4c-0.7-0.2-1.2-0.9-1-1.7v-2.4c0.1-0.7-0.1-1.3-0.5-1.8c-0.8-0.9-2.2-1.1-3.1-0.3l-2,1.2l0,0
						c-0.1,0.1-0.2,0.3-0.1,0.5l0,0c0.1,0.2,0.3,0.2,0.5,0.1l2-1.2c0.3-0.3,0.8-0.4,1.2-0.3c0.8,0.2,1.3,0.9,1.1,1.7v2.4
						c-0.1,0.9,0.4,1.8,1.1,2.3c0.3,0.2,0.6,0.3,1,0.3C322.8,149.1,323.3,148.9,323.7,148.5z"/>
					<path class="st24" d="M327.5,150.9l9.8-5.7c0.1,0,0.1,0,0.1,0c0.2-0.2,0.2-0.4,0.1-0.6c-0.2-0.2-0.4-0.2-0.6-0.1l-9.8,5.7
						c-0.5,0.4-1.1,0.4-1.7,0.2c-0.5-0.4-0.8-1-0.7-1.6v-2.4c0.1-0.7-0.1-1.3-0.5-1.8c-0.8-0.9-2.2-1.1-3.1-0.3l-2,1.2
						c-0.1,0-0.1,0-0.1,0c-0.2,0.2-0.2,0.4-0.1,0.6c0.2,0.2,0.4,0.2,0.6,0.1l2-1.2c0.4-0.4,0.9-0.5,1.4-0.4c0.7,0.2,1.2,0.9,1,1.7
						v2.4c-0.1,0.9,0.4,1.8,1.1,2.3c0.3,0.2,0.6,0.3,1,0.3C326.6,151.3,327.1,151.1,327.5,150.9z"/>
					<path class="st24" d="M331.3,153.1l9.8-5.7c0.1-0.2,0.2-0.4,0.1-0.6c-0.1-0.1-0.3-0.2-0.5-0.1l-9.9,5.7
						c-0.3,0.4-0.8,0.5-1.3,0.4c-0.7-0.2-1.2-0.9-1-1.7v-2.4c0.1-0.7-0.1-1.3-0.5-1.8c-0.8-0.9-2.2-1.1-3.1-0.3l-2,1.2
						c-0.1,0.1-0.2,0.3-0.1,0.5l0,0c0.1,0.1,0.3,0.2,0.5,0.1l2-1.2c0.4-0.4,0.9-0.5,1.4-0.4c0.7,0.2,1.2,0.9,1,1.7v2.4
						c-0.1,0.9,0.4,1.8,1.1,2.3c0.3,0.2,0.6,0.3,1,0.3C330.4,153.5,330.9,153.3,331.3,153.1z"/>
					<path class="st24" d="M335.2,155.2l9.8-5.7l0,0c0.1-0.1,0.2-0.3,0.1-0.5c-0.1-0.1-0.3-0.2-0.5-0.1l-9.8,5.7
						c-0.3,0.4-0.8,0.5-1.3,0.4c-0.8-0.1-1.3-0.9-1.1-1.7v-2.4c0.1-0.7-0.1-1.3-0.5-1.8c-0.8-0.9-2.2-1.1-3.1-0.3l-2,1.2
						c-0.1,0.2-0.2,0.4-0.1,0.6l0,0c0.1,0.1,0.3,0.2,0.5,0.1l2.1-1.2c0.3-0.4,0.8-0.5,1.3-0.4c0.7,0.2,1.2,0.9,1,1.7v2.4
						c-0.1,0.9,0.4,1.8,1.1,2.3c0.3,0.1,0.7,0.2,1,0.2C334.2,155.6,334.7,155.5,335.2,155.2z"/>
					<path class="st24" d="M339.1,157.5l9.8-5.7l0,0c0.2-0.1,0.2-0.3,0.1-0.5l0,0c-0.1-0.1-0.3-0.2-0.5-0.1l-9.8,5.7
						c-0.4,0.4-0.9,0.5-1.4,0.4c-0.7-0.2-1.2-0.9-1-1.7v-2.4c0.1-0.7-0.1-1.3-0.5-1.8c-0.8-0.9-2.2-1.1-3.1-0.3l-2,1.2l0,0
						c-0.1,0.1-0.2,0.3-0.1,0.5l0,0c0.1,0.1,0.3,0.2,0.5,0.1l2-1.2c0.3-0.4,0.8-0.5,1.3-0.4c0.7,0.2,1.2,0.9,1,1.7v2.4
						c-0.1,0.9,0.3,1.8,1.1,2.3c0.3,0.1,0.6,0.2,1,0.2C338,157.8,338.6,157.7,339.1,157.5z"/>
					<path class="st24" d="M342.7,159.6l9.8-5.7c0.1-0.2,0.2-0.4,0.1-0.6l0,0c-0.1-0.1-0.3-0.2-0.5-0.1l-9.8,5.7
						c-0.3,0.4-0.8,0.5-1.3,0.4c-0.8-0.2-1.3-0.9-1.1-1.7v-2.4c0.1-0.7-0.1-1.3-0.5-1.8c-0.8-0.9-2.2-1.1-3.1-0.3l-2,1.2l0,0
						c-0.1,0.1-0.2,0.3-0.1,0.5s0.3,0.3,0.5,0.2l2.1-1.2c0.5-0.4,1.1-0.4,1.7-0.2c0.5,0.4,0.8,1,0.7,1.6v2.4
						c-0.1,0.9,0.4,1.8,1.1,2.3c0.3,0.1,0.7,0.2,1,0.2C341.8,160.1,342.4,159.9,342.7,159.6z"/>
					<path class="st24" d="M346.6,161.7l9.8-5.7c0.1-0.1,0.2-0.3,0.1-0.5l0,0c-0.1-0.1-0.3-0.2-0.5-0.1l-9.8,5.7
						c-0.3,0.4-0.8,0.5-1.3,0.4c-0.8-0.2-1.3-0.9-1.1-1.7v-2.4c0.1-0.7-0.1-1.3-0.5-1.8c-0.8-0.9-2.2-1.1-3.1-0.3l-2,1.2
						c-0.1,0.2-0.2,0.4-0.1,0.6c0.1,0.1,0.3,0.2,0.5,0.1l2-1.2c0.4-0.3,0.9-0.4,1.3-0.3c0.8,0.2,1.3,0.9,1.1,1.7v2.4
						c-0.1,0.9,0.4,1.8,1.1,2.3c0.3,0.1,0.7,0.2,1,0.2C345.7,162.3,346.2,162.1,346.6,161.7z"/>
					<path class="st24" d="M350.4,164l9.8-5.7c0.1,0,0.1,0,0.1,0c0.2-0.2,0.2-0.4,0.1-0.6c-0.2-0.2-0.4-0.2-0.6-0.1l-9.8,5.7
						c-0.3,0.4-0.8,0.5-1.3,0.4c-0.7-0.2-1.2-0.9-1-1.7v-2.4c0.1-0.9-0.4-1.8-1.1-2.3c-0.8-0.4-1.8-0.3-2.5,0.2l-2,1.2
						c-0.1,0-0.1,0-0.1,0c-0.2,0.2-0.2,0.4-0.1,0.6c0.2,0.2,0.4,0.2,0.6,0.1l2-1.2c0.3-0.4,0.8-0.5,1.3-0.4c0.8,0.1,1.3,0.9,1.1,1.7
						v2.4c-0.1,0.9,0.4,1.8,1.1,2.3c0.3,0.2,0.6,0.3,1,0.3C349.5,164.4,350,164.3,350.4,164z"/>
					<path class="st24" d="M354.3,166.2l9.8-5.7l0,0c0.1-0.1,0.2-0.3,0.1-0.5l0,0c-0.1-0.2-0.3-0.2-0.5-0.1l-9.8,5.7
						c-0.3,0.4-0.8,0.5-1.3,0.4c-0.8-0.1-1.3-0.9-1.1-1.7v-2.4c0.1-0.7-0.1-1.3-0.5-1.8c-0.8-0.9-2.2-1.1-3.1-0.3l-2.1,1.2l0,0
						c-0.2,0.1-0.2,0.3-0.1,0.5l0,0c0.1,0.2,0.3,0.2,0.5,0.1l2.1-1.2c0.3-0.4,0.8-0.5,1.3-0.4c0.8,0.2,1.3,0.9,1.1,1.7v2.4
						c-0.1,0.9,0.3,1.8,1.1,2.3c0.3,0.2,0.6,0.3,1,0.3C353.3,166.6,353.9,166.5,354.3,166.2z"/>
					<path class="st24" d="M358.2,168.7l9.8-5.7c0.1-0.1,0.2-0.3,0.1-0.5s-0.3-0.3-0.5-0.2l-9.8,5.7c-0.5,0.4-1.1,0.4-1.7,0.2
						c-0.5-0.4-0.8-1-0.7-1.6v-2.4c0.1-0.7-0.1-1.3-0.5-1.8c-0.8-0.9-2.2-1.1-3.1-0.3l-2.1,1.2l0,0c-0.1,0.1-0.2,0.3-0.1,0.5l0,0
						c0.1,0.1,0.3,0.2,0.5,0.1l2-1.2c0.3-0.4,0.8-0.5,1.3-0.4c0.8,0.2,1.3,0.9,1.1,1.7v2.3c-0.1,0.9,0.3,1.8,1.1,2.3
						c0.3,0.2,0.6,0.3,1,0.3C357.1,168.8,357.7,168.7,358.2,168.7z"/>
					<path class="st24" d="M361.8,170.7l9.8-5.7c0.1-0.1,0.2-0.3,0.1-0.5s-0.3-0.3-0.5-0.2l-9.8,5.7c-0.3,0.4-0.8,0.5-1.3,0.4
						c-0.7-0.2-1.2-0.9-1-1.7v-2.4c0.1-0.7-0.1-1.3-0.5-1.8c-0.8-0.9-2.2-1.1-3.1-0.3l-2,1.2c-0.1,0-0.1,0-0.1,0
						c-0.2,0.2-0.2,0.4-0.1,0.6c0.2,0.2,0.4,0.2,0.6,0.1l2-1.2c0.3-0.4,0.8-0.5,1.3-0.4c0.8,0.2,1.3,0.9,1.1,1.7v2.4
						c-0.1,0.9,0.4,1.8,1.1,2.3c0.3,0.1,0.7,0.2,1,0.2C361,171,361.5,170.9,361.8,170.7z"/>
					<path class="st24" d="M365.6,172.7l9.8-5.6c0.1-0.1,0.2-0.3,0.1-0.5s-0.3-0.3-0.5-0.2l-9.8,5.7c-0.3,0.4-0.8,0.5-1.3,0.4
						c-0.7-0.2-1.2-0.9-1-1.7v-2.4c0.1-0.7-0.1-1.3-0.5-1.8c-0.8-0.9-2.2-1.1-3.1-0.3l-2,1.2l0,0c-0.1,0.1-0.2,0.3-0.1,0.5
						s0.3,0.3,0.5,0.2l2-1.2c0.4-0.3,0.8-0.4,1.3-0.3c0.8,0.2,1.3,0.9,1.1,1.7v2.4c-0.1,0.9,0.4,1.8,1.1,2.3c0.3,0.1,0.7,0.2,1,0.2
						C364.8,173.2,365.3,173.1,365.6,172.7z"/>
					<path class="st24" d="M369.6,175.2l9.8-5.7c0.1-0.2,0.2-0.4,0.1-0.6l0,0c-0.1-0.1-0.3-0.2-0.5-0.1l-9.8,5.7
						c-0.5,0.4-1.1,0.4-1.7,0.2c-0.5-0.4-0.8-1-0.7-1.6v-2.4c0.1-0.7-0.1-1.3-0.5-1.8c-0.8-0.9-2.2-1.1-3.1-0.3l-2,1.2l0,0
						c-0.1,0.1-0.2,0.3-0.1,0.5s0.3,0.3,0.5,0.2l2.1-1.2c0.3-0.4,0.8-0.5,1.3-0.4c0.7,0.2,1.2,0.9,1,1.7v2.4
						c-0.1,0.9,0.4,1.8,1.1,2.3c0.3,0.1,0.7,0.2,1,0.2C368.6,175.4,369.1,175.3,369.6,175.2z"/>
					<path class="st24" d="M373.4,177.1l9.8-5.7l0,0c0.1-0.1,0.2-0.3,0.1-0.5l0,0c-0.1-0.1-0.3-0.2-0.5-0.1l-9.8,5.7
						c-0.4,0.4-0.9,0.5-1.4,0.4c-0.7-0.2-1.2-0.9-1-1.7v-2.4c0.1-0.7-0.1-1.3-0.5-1.8c-0.8-0.9-2.2-1.1-3.1-0.3l-2.1,1.2l0,0
						c-0.1,0.1-0.2,0.3-0.1,0.5s0.3,0.3,0.5,0.2l2.1-1.2c0.5-0.4,1.1-0.4,1.7-0.2c0.5,0.4,0.8,1,0.7,1.6v2.4
						c-0.1,0.9,0.3,1.8,1.1,2.3c0.3,0.1,0.6,0.2,1,0.2C372.4,177.6,372.9,177.5,373.4,177.1z"/>
					<path class="st24" d="M377.4,179.5l9.8-5.7l0,0c0.2-0.1,0.2-0.3,0.1-0.5l0,0c-0.1-0.1-0.3-0.2-0.5-0.1l-9.9,5.7
						c-0.3,0.3-0.7,0.4-1.1,0.3c-0.8-0.1-1.3-0.8-1.2-1.6v-2.4c0.1-0.7-0.1-1.3-0.5-1.8c-0.8-0.9-2.2-1.1-3.1-0.3l-2.1,1.2l0,0
						c-0.1,0.1-0.2,0.3-0.1,0.5l0,0c0.1,0.2,0.3,0.2,0.5,0.1l2-1.2c0.3-0.4,0.8-0.5,1.3-0.4c0.7,0.2,1.2,0.9,1,1.7v2.4
						c-0.1,0.9,0.3,1.8,1.1,2.3c0.3,0.1,0.6,0.2,1,0.2C376.3,179.8,376.8,179.7,377.4,179.5z"/>
					<path class="st24" d="M380.9,181.6l9.8-5.7c0.1,0,0.1,0,0.1,0c0.2-0.2,0.3-0.4,0.1-0.6s-0.4-0.2-0.6-0.1l-9.8,5.7
						c-0.3,0.4-0.8,0.5-1.3,0.4c-0.7-0.2-1.2-0.9-1-1.7v-2.4c0.1-0.9-0.3-1.8-1.1-2.3c-0.8-0.4-1.8-0.3-2.5,0.2l-2.1,1.2
						c-0.1,0-0.1,0-0.1,0c-0.2,0.2-0.3,0.4-0.1,0.6s0.4,0.2,0.6,0.1l2.1-1.2c0.4-0.4,0.9-0.5,1.4-0.4c0.7,0.2,1.2,0.9,1,1.7v2.4
						c-0.1,0.9,0.4,1.8,1.1,2.3c0.3,0.2,0.6,0.3,1,0.3C380.1,182,380.6,181.9,380.9,181.6z"/>
					<path class="st24" d="M384.9,183.8l9.8-5.7c0.1-0.2,0.2-0.4,0.1-0.6c-0.2-0.1-0.4-0.2-0.6-0.1l-9.8,5.7
						c-0.3,0.4-0.8,0.5-1.3,0.4c-0.7-0.2-1.2-0.9-1-1.7v-2.4c0.1-0.7-0.1-1.3-0.5-1.8c-0.8-0.9-2.2-1.1-3.1-0.3l-2.1,1.2
						c-0.1,0-0.1,0-0.1,0c-0.2,0.2-0.3,0.4-0.1,0.6s0.4,0.2,0.6,0.1l2.1-1.2c0.4-0.4,0.9-0.5,1.4-0.4c0.7,0.2,1.2,0.9,1,1.7v2.4
						c-0.1,0.9,0.4,1.8,1.1,2.3c0.3,0.2,0.6,0.3,1,0.3C383.9,184.2,384.4,184.1,384.9,183.8z"/>
					<path class="st24" d="M388.5,186l9.8-5.7c0.1-0.1,0.2-0.3,0.1-0.5s-0.3-0.3-0.5-0.2l-9.8,5.7c-0.3,0.4-0.8,0.5-1.3,0.4
						c-0.7-0.2-1.2-0.9-1-1.7v-2.4c0.1-0.7-0.1-1.3-0.5-1.8c-0.8-0.9-2.2-1.1-3.1-0.3l-2,1.2c-0.1,0.1-0.2,0.3-0.1,0.5l0,0
						c0.1,0.1,0.3,0.2,0.5,0.1l2.1-1.2c0.5-0.4,1.1-0.4,1.7-0.2c0.5,0.4,0.8,1,0.7,1.6v2.4c-0.1,0.9,0.4,1.8,1.1,2.3
						c0.3,0.1,0.7,0.2,1,0.2C387.7,186.4,388.2,186.3,388.5,186z"/>
					<path class="st24" d="M392.7,188.1l9.8-5.7l0,0c0.1-0.1,0.2-0.3,0.1-0.5c-0.2-0.1-0.4-0.2-0.6-0.1l-9.8,5.7
						c-0.3,0.4-0.8,0.5-1.3,0.4c-0.8-0.1-1.3-0.9-1.1-1.7v-2.4c0.1-0.7-0.1-1.3-0.5-1.8c-0.8-0.9-2.2-1.1-3.1-0.3l-2.1,1.2
						c-0.1,0.2-0.2,0.4-0.1,0.6l0,0c0.1,0.1,0.3,0.2,0.5,0.1l2.1-1.2c0.3-0.4,0.8-0.5,1.3-0.4c0.7,0.2,1.2,0.9,1,1.7v2.4
						c-0.1,0.9,0.3,1.8,1.1,2.3c0.3,0.1,0.6,0.2,1,0.2C391.5,188.6,392.1,188.5,392.7,188.1z"/>
					<path class="st24" d="M303.7,146.9c0.8-0.5,1.2-1.4,1.1-2.3v-2.4c-0.1-0.4,0.1-0.9,0.4-1.3c0.5-0.5,1.4-0.5,2,0l2,1.2
						c0.1,0,0.1,0,0.1,0c0.2,0.1,0.4,0,0.5-0.2c0.1-0.2,0-0.4-0.2-0.5l-2-1.2c-0.5-0.4-1.2-0.6-1.8-0.5c-1.2,0.1-2,1.3-1.8,2.5v2.4
						c0.1,0.4-0.1,0.9-0.4,1.3c-0.5,0.5-1.4,0.5-2,0l-9.8-5.7c-0.1,0-0.1,0-0.1,0c-0.2-0.1-0.4,0-0.5,0.2c-0.1,0.2,0,0.4,0.2,0.5
						l9.8,5.7c0.4,0.3,1,0.5,1.5,0.5C303.1,147.1,303.4,147,303.7,146.9z"/>
					<path class="st24" d="M300,149.2c0.8-0.5,1.2-1.4,1.1-2.3v-2.4c-0.1-0.5,0-1,0.4-1.4c0.5-0.5,1.4-0.6,2,0l2,1.2
						c0.1,0,0.1,0,0.1,0c0.2,0.1,0.4,0,0.5-0.2c0.1-0.2,0-0.4-0.2-0.5l-2-1.2c-0.5-0.4-1.2-0.6-1.8-0.5c-1.2,0.2-2,1.3-1.8,2.5v2.4
						c0.1,0.4-0.1,0.9-0.4,1.3c-0.5,0.5-1.4,0.5-2,0l-9.9-5.7c-0.1,0-0.1,0-0.1,0c-0.2-0.1-0.4,0-0.5,0.2c-0.1,0.2,0,0.4,0.2,0.5
						l9.8,5.7c0.4,0.3,1,0.5,1.5,0.5C299.3,149.3,299.6,149.2,300,149.2z"/>
					<path class="st24" d="M296.1,151.3c0.8-0.5,1.2-1.4,1.1-2.3v-2.4c-0.1-0.5,0-1,0.4-1.4c0.5-0.5,1.4-0.6,2,0l2,1.2l0,0
						c0.1,0.1,0.4,0,0.5-0.2c0.2-0.2,0.1-0.4-0.1-0.5l-2-1.2c-0.5-0.4-1.2-0.6-1.8-0.5c-1.2,0.2-2,1.3-1.8,2.5v2.4
						c0,0.6-0.2,1.2-0.7,1.6c-0.6,0.3-1.2,0.2-1.7-0.2l-9.8-5.7c-0.1,0-0.1,0-0.1,0c-0.2-0.1-0.4,0-0.5,0.2c-0.1,0.2,0,0.4,0.2,0.5
						l9.8,5.7c0.4,0.3,1,0.5,1.5,0.5C295.4,151.5,295.8,151.4,296.1,151.3z"/>
					<path class="st24" d="M292.2,153.5c0.8-0.5,1.2-1.4,1.1-2.3v-2.4c-0.1-0.4,0.1-0.9,0.4-1.3c0.5-0.5,1.4-0.5,2,0l2.1,1.2l0,0
						c0.2,0.1,0.4,0,0.5-0.2l0,0c0.2-0.2,0.1-0.4-0.1-0.5l-2.1-1.2c-0.5-0.4-1.2-0.6-1.8-0.5c-1.2,0.2-2,1.3-1.8,2.5v2.4
						c0.1,0.6-0.2,1.2-0.7,1.6c-0.6,0.2-1.2,0.2-1.7-0.2l-9.8-5.7c-0.1-0.2-0.4-0.1-0.5,0.1l0,0c-0.1,0.1,0,0.4,0.2,0.5l9.8,5.7
						c0.4,0.3,1,0.5,1.5,0.5C291.6,153.7,291.9,153.6,292.2,153.5z"/>
					<path class="st24" d="M288.5,155.6c0.8-0.5,1.2-1.4,1.1-2.3v-2.4c-0.1-0.4,0.1-0.9,0.4-1.3c0.5-0.5,1.4-0.5,2,0l2,1.2
						c0.1,0.2,0.4,0.1,0.5-0.1l0,0c0.1-0.1,0-0.4-0.2-0.5l-2-1.2c-0.5-0.4-1.2-0.6-1.8-0.5c-1.2,0.2-2,1.3-1.8,2.5v2.4
						c0.1,0.4-0.1,0.9-0.4,1.3c-0.5,0.6-1.4,0.6-2,0.1l-9.8-5.7c-0.2-0.2-0.4-0.1-0.5,0.1l0,0c-0.2,0.1-0.1,0.4,0.1,0.5l9.8,5.7
						c0.4,0.3,1,0.5,1.5,0.5C287.8,155.9,288.1,155.8,288.5,155.6z"/>
					<path class="st24" d="M284.6,157.9c0.8-0.5,1.2-1.4,1.1-2.3v-2.4c0-0.6,0.2-1.2,0.7-1.6c0.6-0.2,1.2-0.2,1.7,0.2l2,1.2l0,0
						c0.1,0.1,0.4,0,0.5-0.2c0.2-0.1,0.1-0.4-0.1-0.5l-2-1.2c-0.5-0.4-1.2-0.6-1.8-0.5c-1.2,0.2-2,1.3-1.8,2.5v2.4
						c0.1,0.4-0.1,0.9-0.4,1.3c-0.5,0.5-1.4,0.5-2,0l-9.8-5.7l0,0c-0.1-0.1-0.4,0-0.5,0.2c-0.2,0.2-0.1,0.5,0.1,0.6l9.8,5.7
						c0.4,0.3,1,0.5,1.5,0.5C284,158.1,284.3,158,284.6,157.9z"/>
					<path class="st24" d="M280.9,160.1c0.7-0.5,1.1-1.4,1-2.3v-2.4c-0.1-0.4,0.1-0.9,0.4-1.3c0.5-0.6,1.4-0.6,2-0.1l2,1.2
						c0.1,0.2,0.4,0.1,0.5-0.1c0.2-0.2,0.1-0.5-0.1-0.6l-2-1.2c-0.5-0.4-1.2-0.6-1.8-0.5c-1.2,0.2-2,1.3-1.8,2.5v2.4
						c0.1,0.4-0.1,0.9-0.4,1.3c-0.5,0.5-1.4,0.5-2,0l-9.8-5.7c-0.1,0-0.1,0-0.1,0c-0.2-0.1-0.4,0-0.5,0.2c-0.1,0.2,0,0.4,0.2,0.5
						l9.8,5.7c0.4,0.3,1,0.5,1.5,0.5C280.1,160.3,280.5,160.2,280.9,160.1z"/>
					<path class="st24" d="M276.9,162.2c0.8-0.5,1.2-1.4,1.1-2.3v-2.4c-0.1-0.4,0.1-0.9,0.4-1.3c0.5-0.5,1.4-0.5,2,0l2.1,1.2
						c0.1,0.2,0.4,0.1,0.5-0.1c0.2-0.2,0.1-0.5-0.1-0.6l-2-1.2c-0.5-0.4-1.2-0.6-1.8-0.5c-1.2,0.2-2,1.3-1.8,2.5v2.4
						c0.1,0.4-0.1,0.9-0.4,1.3c-0.5,0.5-1.4,0.5-2,0l-9.8-5.7c-0.1,0-0.1,0-0.1,0c-0.2-0.1-0.4,0-0.5,0.2c-0.1,0.2,0,0.4,0.2,0.5
						l9.8,5.7c0.4,0.3,1,0.5,1.5,0.5C276.3,162.4,276.6,162.4,276.9,162.2z"/>
					<path class="st24" d="M273.1,164.3c0.8-0.5,1.2-1.4,1.1-2.3v-2.4c-0.1-0.4,0.1-0.9,0.4-1.3c0.5-0.5,1.4-0.5,2,0l2.1,1.2l0,0
						c0.2,0.2,0.4,0.1,0.5-0.1l0,0c0.2-0.1,0.1-0.4-0.1-0.5l-2.1-1.2c-0.5-0.4-1.2-0.6-1.8-0.5c-1.2,0.2-2,1.3-1.8,2.5v2.4
						c0.1,0.4-0.1,0.9-0.4,1.3c-0.5,0.6-1.4,0.6-2,0.1l-9.8-5.7l0,0c-0.1-0.2-0.4-0.1-0.5,0.1l0,0c-0.1,0.1,0,0.4,0.2,0.5l9.8,5.7
						c0.4,0.3,1,0.5,1.5,0.5C272.5,164.7,272.8,164.6,273.1,164.3z"/>
					<path class="st24" d="M269.4,166.6c0.8-0.5,1.2-1.4,1.1-2.3v-2.4c-0.1-0.4,0.1-0.9,0.4-1.3c0.5-0.5,1.4-0.5,2,0l2,1.2l0,0
						c0.1,0.2,0.4,0.1,0.5-0.1l0,0c0.1-0.1,0-0.4-0.2-0.5l-2-1.2c-0.5-0.4-1.2-0.6-1.8-0.5c-1.2,0.2-2,1.3-1.8,2.5v2.4
						c0.1,0.6-0.2,1.2-0.7,1.6c-0.6,0.2-1.2,0.2-1.7-0.2l-9.8-5.7l0,0c-0.2-0.2-0.4-0.1-0.5,0.1l0,0c-0.2,0.1-0.1,0.4,0.1,0.5
						l9.8,5.7c0.4,0.3,1,0.5,1.5,0.5C268.7,166.9,269,166.8,269.4,166.6z"/>
					<path class="st24" d="M265.5,169c0.8-0.5,1.2-1.4,1.1-2.3v-2.4c-0.1-0.5,0-1,0.4-1.4c0.5-0.5,1.4-0.6,2,0l2,1.2
						c0.1,0,0.1,0,0.1,0c0.2,0.1,0.4,0,0.5-0.2c0.1-0.2,0-0.4-0.2-0.5l-2-1.2c-0.5-0.4-1.2-0.6-1.8-0.5c-1.2,0.2-2,1.3-1.8,2.5v2.4
						c0.1,0.4-0.1,0.9-0.4,1.3c-0.5,0.5-1.4,0.5-2,0l-9.8-5.7c-0.1-0.2-0.4-0.1-0.5,0.1c-0.2,0.2-0.1,0.5,0.1,0.6l9.8,5.7
						c0.4,0.3,1,0.5,1.5,0.5C264.8,169,265.1,169,265.5,169z"/>
					<path class="st24" d="M261.7,171.2c0.8-0.5,1.2-1.4,1.1-2.3v-2.4c-0.1-0.4,0.1-0.9,0.4-1.3c0.5-0.6,1.4-0.6,2-0.1l2,1.2l0,0
						c0.1,0.1,0.4,0,0.5-0.2c0.2-0.2,0.1-0.5-0.1-0.6l-2-1.2c-0.5-0.4-1.2-0.6-1.8-0.5c-1.2,0.2-2,1.3-1.8,2.5v2.4
						c0.1,0.4-0.1,0.9-0.4,1.3c-0.5,0.5-1.4,0.5-2,0l-9.8-5.7c-0.1-0.1-0.4,0-0.5,0.2c-0.2,0.1-0.1,0.4,0.1,0.5l9.8,5.7
						c0.4,0.3,1,0.5,1.5,0.5C261,171.2,261.3,171.1,261.7,171.2z"/>
					<path class="st24" d="M257.8,173.2c0.8-0.5,1.2-1.4,1.1-2.3v-2.4c-0.1-0.4,0.1-0.9,0.4-1.3c0.5-0.5,1.4-0.5,2,0l2.1,1.2l0,0
						c0.1,0.1,0.4,0,0.5-0.2c0.2-0.1,0.1-0.4-0.1-0.5l-2-1.2c-0.5-0.4-1.2-0.6-1.8-0.5c-1.2,0.2-2,1.3-1.8,2.5v2.4
						c0.1,0.4-0.1,0.9-0.4,1.3c-0.5,0.5-1.4,0.5-2,0l-9.8-5.7c-0.1-0.1-0.4,0-0.5,0.2c-0.2,0.1-0.1,0.4,0.1,0.5l9.8,5.7
						c0.4,0.3,1,0.5,1.5,0.5C257.2,173.4,257.5,173.4,257.8,173.2z"/>
					<path class="st24" d="M254.1,175.3c0.8-0.5,1.2-1.4,1.1-2.3v-2.4c-0.1-0.4,0.1-0.9,0.4-1.3c0.5-0.5,1.4-0.5,2,0l2,1.2
						c0.2,0.1,0.4,0,0.5-0.1c0.1-0.2,0.1-0.5-0.1-0.6l-2.1-1.2c-0.5-0.4-1.2-0.6-1.8-0.5c-1.2,0.2-2,1.3-1.8,2.5v2.4
						c0.1,0.5,0,1-0.4,1.4c-0.5,0.5-1.4,0.6-2,0l-9.8-5.7c-0.1-0.1-0.4,0-0.5,0.2c-0.2,0.1-0.1,0.4,0.1,0.5l9.8,5.7
						c0.4,0.3,1,0.5,1.5,0.5C253.4,175.6,253.7,175.6,254.1,175.3z"/>
					<path class="st24" d="M250.2,177.6c0.8-0.5,1.2-1.4,1.1-2.3v-2.4c0-0.6,0.2-1.2,0.7-1.6c0.6-0.3,1.2-0.2,1.7,0.2l2,1.2
						c0.1,0.2,0.4,0.1,0.5-0.1l0,0c0.1-0.1,0-0.4-0.2-0.5l-2-1.2c-0.5-0.4-1.2-0.6-1.8-0.5c-1.2,0.2-2,1.3-1.8,2.5v2.4
						c0.1,0.4-0.1,0.9-0.4,1.3c-0.5,0.5-1.4,0.5-2,0l-9.8-5.7c-0.2-0.1-0.4-0.1-0.5,0.1c-0.1,0.2-0.1,0.5,0.1,0.6l9.9,5.7
						c0.4,0.3,1,0.5,1.5,0.5C249.6,177.8,249.9,177.8,250.2,177.6z"/>
					<path class="st24" d="M246.4,179.9c0.8-0.5,1.2-1.4,1.1-2.3v-2.4c-0.1-0.5,0-1,0.4-1.4c0.5-0.5,1.4-0.6,2,0l2,1.2
						c0.1,0,0.1,0,0.1,0c0.2,0.1,0.4,0,0.5-0.2c0.1-0.2,0-0.4-0.2-0.5l-2-1.2c-0.5-0.4-1.2-0.6-1.8-0.5c-1.2,0.2-2,1.3-1.8,2.5v2.4
						c0.1,0.4-0.1,0.9-0.4,1.3c-0.5,0.5-1.4,0.5-2,0l-9.8-5.7c-0.1,0-0.1,0-0.1,0c-0.2-0.1-0.4,0-0.5,0.2c-0.1,0.2,0,0.4,0.2,0.5
						l9.8,5.7c0.4,0.3,1,0.5,1.5,0.5C245.7,180,246.1,179.9,246.4,179.9z"/>
					<path class="st24" d="M242.6,182c0.8-0.5,1.2-1.4,1.1-2.3v-2.4c-0.1-0.5,0-1,0.4-1.4c0.5-0.5,1.4-0.6,2,0l2,1.2
						c0.1,0,0.1,0,0.1,0c0.2,0.1,0.4,0,0.5-0.2c0.1-0.2,0-0.4-0.2-0.5l-2-1.2c-0.5-0.4-1.2-0.6-1.8-0.5c-1.2,0.2-2,1.3-1.8,2.5v2.4
						c0,0.6-0.2,1.2-0.7,1.6c-0.6,0.3-1.2,0.2-1.7-0.2l-9.8-5.7c-0.1,0-0.1,0-0.1,0c-0.2-0.1-0.4,0-0.5,0.2c-0.1,0.2,0,0.4,0.2,0.5
						l9.8,5.7c0.4,0.3,1,0.5,1.5,0.5C241.9,182.2,242.3,182.1,242.6,182z"/>
					<path class="st24" d="M238.7,184.2c0.8-0.5,1.2-1.4,1.1-2.3v-2.4c0-0.6,0.2-1.2,0.7-1.6c0.6-0.3,1.2-0.2,1.7,0.2l2.1,1.2l0,0
						c0.2,0.1,0.4,0,0.5-0.2l0,0c0.2-0.2,0.1-0.4-0.1-0.5l-2-1.2c-0.5-0.4-1.2-0.6-1.8-0.5c-1.2,0.2-2,1.3-1.8,2.5v2.4
						c0.1,0.6-0.2,1.2-0.7,1.6c-0.6,0.2-1.2,0.2-1.7-0.2l-9.8-5.7c-0.1-0.2-0.4-0.1-0.5,0.1c-0.2,0.2-0.1,0.5,0.1,0.6l9.8,5.7
						c0.4,0.3,1,0.5,1.5,0.5C238.1,184.4,238.4,184.3,238.7,184.2z"/>
					<path class="st24" d="M234.9,186.3c0.8-0.5,1.2-1.4,1.1-2.3v-2.4c-0.1-0.4,0.1-0.9,0.4-1.3c0.5-0.5,1.4-0.5,2,0l2,1.2
						c0.1,0.2,0.4,0.1,0.5-0.1c0.2-0.2,0.1-0.5-0.1-0.6l-2-1.2c-0.5-0.4-1.2-0.6-1.8-0.5c-1.2,0.2-2,1.3-1.8,2.5v2.4
						c0.1,0.4-0.1,0.9-0.4,1.3c-0.5,0.6-1.4,0.6-2,0.1l-9.8-5.7c-0.2-0.1-0.4,0-0.5,0.1c-0.1,0.2-0.1,0.5,0.1,0.6l9.8,5.7
						c0.4,0.3,1,0.5,1.5,0.5C234.3,186.6,234.6,186.5,234.9,186.3z"/>
					<path class="st24" d="M231.3,188.5c0.8-0.5,1.2-1.4,1.1-2.3v-2.4c-0.1-0.4,0.1-0.9,0.4-1.3c0.5-0.5,1.4-0.5,2,0l2,1.2
						c0.1,0.2,0.4,0.1,0.5-0.1l0,0c0.1-0.1,0-0.4-0.2-0.5L235,182c-0.5-0.4-1.2-0.6-1.8-0.5c-1.2,0.2-2,1.3-1.8,2.5v2.4
						c0.1,0.4-0.1,0.9-0.4,1.3c-0.5,0.5-1.4,0.5-2,0l-9.8-5.7c-0.2-0.2-0.4-0.1-0.5,0.1l0,0c-0.2,0.1-0.1,0.4,0.1,0.5l9.8,5.7
						c0.4,0.3,1,0.5,1.5,0.5C230.4,188.8,230.8,188.7,231.3,188.5z"/>
				</g>
				<g class="st23">
					<path class="st25" d="M291.8,246.9l9.8-5.6c1.9-1.2,3.1-3.3,3.2-5.5v-2.4c0.1-1.9,1.2-3.7,2.8-4.8l2-1.2
						c0.1-0.2,0.2-0.4,0.1-0.6l0,0c-0.1-0.1-0.3-0.2-0.5-0.1l-2,1.2c-1.9,1.2-3.1,3.3-3.2,5.5v2.4c-0.1,1.9-1.2,3.7-2.8,4.8
						l-9.8,5.7c-0.1,0.1-0.2,0.3-0.2,0.4c0,0.2,0.2,0.4,0.4,0.4C291.6,247.1,291.7,247.1,291.8,246.9z"/>
					<path class="st25" d="M287.8,244.9l9.8-5.7c1.9-1.2,3.1-3.3,3.2-5.5v-2.4c0.1-1.9,1.2-3.7,2.8-4.8l2-1.2c0.1,0,0.1,0,0.1,0
						c0.2-0.2,0.2-0.4,0.1-0.6c-0.2-0.2-0.4-0.2-0.6-0.1l-2,1.2c-1.9,1.2-3.1,3.3-3.2,5.5v2.4c-0.1,1.9-1.2,3.7-2.8,4.8l-9.8,5.7
						c-0.1,0.1-0.2,0.3-0.1,0.5c0.1,0.1,0.3,0.2,0.4,0.2S287.8,244.9,287.8,244.9z"/>
					<path class="st25" d="M284.1,242.6l9.8-5.7c1.9-1.2,3.1-3.3,3.2-5.5V229c0.1-1.9,1.2-3.7,2.8-4.8l2-1.2
						c0.1-0.2,0.2-0.4,0.1-0.6l0,0c-0.1-0.2-0.3-0.2-0.5-0.1l-2,1.2c-1.9,1.2-3.1,3.3-3.2,5.5v2.4c-0.1,1.9-1.2,3.7-2.8,4.8
						l-9.8,5.7c-0.1,0.1-0.2,0.3-0.2,0.4c0,0.2,0.2,0.4,0.4,0.4C284,242.7,284,242.7,284.1,242.6z"/>
					<path class="st25" d="M280.3,240.3l9.8-5.7c1.9-1.2,3.1-3.3,3.2-5.5v-2.4c0.1-1.9,1.2-3.7,2.8-4.8l2.1-1.2l0,0
						c0.2-0.1,0.2-0.3,0.1-0.5c-0.1-0.1-0.3-0.2-0.5-0.1l-2.1,1.2c-1.9,1.2-3.1,3.3-3.2,5.5v2.4c-0.1,1.9-1.2,3.7-2.8,4.8l-9.8,5.7
						c-0.1,0.1-0.2,0.3-0.2,0.4c0,0.2,0.2,0.4,0.4,0.4C280.2,240.5,280.2,240.5,280.3,240.3z"/>
					<path class="st25" d="M276.5,238.2l9.8-5.7c1.9-1.2,3.1-3.3,3.2-5.5v-2.3c0.1-1.9,1.2-3.7,2.8-4.8l2-1.2
						c0.1-0.1,0.2-0.3,0.1-0.5s-0.3-0.3-0.5-0.2l-2,1.2c-1.9,1.2-3.1,3.3-3.2,5.5v2.4c-0.1,1.9-1.2,3.7-2.8,4.8l-9.8,5.7l0,0
						c-0.2,0.1-0.2,0.3-0.1,0.5c0,0.1,0.2,0.2,0.3,0.2S276.5,238.3,276.5,238.2z"/>
					<path class="st25" d="M272.5,236.1l9.8-5.7c1.9-1.2,3.1-3.3,3.2-5.5v-2.4c0.1-1.9,1.2-3.7,2.8-4.8l2-1.2c0.1,0,0.1,0,0.1,0
						c0.2-0.2,0.2-0.4,0.1-0.6c-0.2-0.2-0.4-0.2-0.6-0.1l-2,1.2c-1.9,1.2-3.1,3.3-3.2,5.5v2.4c-0.1,1.9-1.2,3.7-2.8,4.8l-9.8,5.7
						c-0.1,0.1-0.2,0.3-0.1,0.5c0.1,0.1,0.3,0.2,0.4,0.2S272.6,236.1,272.5,236.1z"/>
					<path class="st25" d="M268.8,233.8l9.8-5.7c1.9-1.2,3.1-3.3,3.2-5.5v-2.4c0.1-1.9,1.2-3.7,2.8-4.8l2-1.2c0.1,0,0.1,0,0.1,0
						c0.2-0.2,0.2-0.4,0.1-0.6c-0.2-0.2-0.4-0.2-0.6-0.1l-2,1.2c-1.9,1.2-3.1,3.3-3.2,5.5v2.4c-0.1,1.9-1.2,3.7-2.8,4.8l-9.8,5.7
						c-0.1,0.1-0.2,0.3-0.2,0.4c0,0.2,0.2,0.4,0.4,0.4C268.7,233.9,268.8,233.9,268.8,233.8z"/>
					<path class="st25" d="M265.1,231.6l9.8-5.7c1.9-1.2,3.1-3.3,3.2-5.5V218c0.1-1.9,1.2-3.7,2.8-4.8l2-1.2
						c0.1-0.1,0.2-0.3,0.1-0.5s-0.3-0.3-0.5-0.2l-2.1,1.2c-1.9,1.2-3.1,3.3-3.2,5.5v2.4c-0.1,1.9-1.2,3.7-2.8,4.8l-9.8,5.7
						c-0.1,0.1-0.2,0.3-0.2,0.4c0,0.2,0.2,0.4,0.4,0.4C264.9,231.7,264.9,231.7,265.1,231.6z"/>
					<path class="st25" d="M261.2,229.4l9.8-5.7c1.9-1.2,3.1-3.3,3.2-5.5v-2.4c0.1-1.9,1.2-3.7,2.8-4.8l2.1-1.2
						c0.1-0.2,0.2-0.4,0.1-0.6l0,0c-0.1-0.1-0.3-0.2-0.5-0.1l-2.1,1.2c-1.9,1.2-3.1,3.3-3.2,5.5v2.4c-0.1,1.9-1.2,3.7-2.8,4.8
						l-9.8,5.7c-0.1,0.1-0.2,0.3-0.2,0.4c0,0.2,0.2,0.4,0.4,0.4C261.1,229.5,261.1,229.4,261.2,229.4z"/>
					<path class="st25" d="M257.4,227.2l9.8-5.7c1.9-1.2,3.1-3.3,3.2-5.5v-2.3c0.1-1.9,1.2-3.7,2.8-4.8l2-1.2l0,0
						c0.1-0.1,0.2-0.3,0.1-0.5l0,0c-0.1-0.2-0.3-0.2-0.5-0.1l-2,1.1c-1.9,1.2-3.1,3.3-3.2,5.5v2.4c-0.1,1.9-1.2,3.7-2.8,4.8
						l-9.8,5.7l0,0c-0.2,0.1-0.2,0.3-0.1,0.5c0,0.1,0.2,0.2,0.3,0.2C257.2,227.3,257.3,227.2,257.4,227.2z"/>
					<path class="st25" d="M253.5,225l9.8-5.7c1.9-1.2,3.1-3.3,3.2-5.5v-2.4c0.1-1.9,1.2-3.7,2.8-4.8l2-1.2c0.1,0,0.1,0,0.1,0
						c0.2-0.2,0.2-0.4,0.1-0.6c-0.2-0.2-0.4-0.2-0.6-0.1l-2,1.2c-1.9,1.2-3.1,3.3-3.2,5.5v2.4c-0.1,1.9-1.2,3.7-2.8,4.8l-9.8,5.7
						c-0.1,0.1-0.2,0.3-0.2,0.4c0,0.2,0.2,0.4,0.4,0.4C253.4,225.1,253.5,225.1,253.5,225z"/>
					<path class="st25" d="M249.7,222.8l9.8-5.7c1.9-1.2,3.1-3.3,3.2-5.5v-2.4c0.1-1.9,1.2-3.7,2.8-4.8l2-1.2
						c0.1-0.1,0.2-0.3,0.1-0.5s-0.3-0.3-0.5-0.2l-2,1.2c-1.9,1.2-3.1,3.3-3.2,5.5v2.4c-0.1,1.9-1.2,3.7-2.8,4.8l-9.8,5.7
						c-0.1,0.1-0.2,0.3-0.2,0.4c0,0.2,0.2,0.4,0.4,0.4C249.6,222.9,249.7,222.8,249.7,222.8z"/>
					<path class="st25" d="M246,220.6l9.8-5.7c1.9-1.2,3.1-3.3,3.2-5.5V207c0.1-1.9,1.2-3.7,2.8-4.8l2-1.2c0.1-0.2,0.2-0.4,0.1-0.6
						l0,0c-0.1-0.1-0.3-0.2-0.5-0.1l-2.1,1.2c-1.9,1.2-3.1,3.3-3.2,5.5v2.4c-0.1,1.9-1.2,3.7-2.8,4.8l-9.8,5.7
						c-0.1,0.1-0.2,0.3-0.2,0.4c0,0.2,0.2,0.4,0.4,0.4C245.8,220.6,245.8,220.6,246,220.6z"/>
					<path class="st25" d="M241.9,218.4l9.8-5.7c1.9-1.2,3.1-3.3,3.2-5.5v-2.4c0.1-1.9,1.2-3.7,2.8-4.8l2.1-1.2l0,0
						c0.2-0.1,0.2-0.3,0.1-0.5l0,0c-0.1-0.1-0.3-0.2-0.5-0.1l-2,1.2c-1.9,1.2-3.1,3.3-3.2,5.5v2.4c-0.1,1.9-1.2,3.7-2.8,4.8
						l-9.8,5.7l0,0c-0.1,0.1-0.2,0.3-0.1,0.5C241.6,218.4,241.8,218.5,241.9,218.4C242,218.4,242,218.4,241.9,218.4z"/>
					<path class="st25" d="M238.2,216l9.8-5.7c1.9-1.2,3.1-3.3,3.2-5.5v-2.4c0.1-1.9,1.2-3.7,2.8-4.8l2-1.2l0,0
						c0.1-0.1,0.2-0.3,0.1-0.5l0,0c-0.1-0.2-0.3-0.2-0.5-0.1l-2,1.2c-1.9,1.2-3.1,3.3-3.2,5.5v2.4c-0.1,1.9-1.2,3.7-2.8,4.8
						l-9.8,5.7c-0.1,0.2-0.2,0.4-0.1,0.6c0,0.1,0.2,0.2,0.3,0.2C238.1,216.2,238.2,216.2,238.2,216z"/>
					<path class="st25" d="M234.4,214l9.8-5.7c1.9-1.2,3.1-3.3,3.2-5.5v-2.4c0.1-1.9,1.2-3.7,2.8-4.8l2-1.2c0.1-0.1,0.2-0.3,0.1-0.5
						s-0.3-0.3-0.5-0.2l-2,1.2c-1.9,1.2-3.1,3.3-3.2,5.5v2.4c-0.1,1.9-1.2,3.7-2.8,4.8l-9.8,5.7c-0.1,0.1-0.2,0.3-0.2,0.4
						c0,0.2,0.2,0.4,0.4,0.4C234.3,214,234.4,214,234.4,214z"/>
					<path class="st25" d="M230.6,211.8l9.8-5.7c1.9-1.2,3.1-3.3,3.2-5.5v-2.4c0.1-1.9,1.2-3.7,2.8-4.8l2-1.2
						c0.1-0.2,0.2-0.4,0.1-0.6l0,0c-0.1-0.1-0.3-0.2-0.5-0.1l-2,1.2c-1.9,1.2-3.1,3.3-3.2,5.5v2.4c-0.1,1.9-1.2,3.7-2.8,4.8
						l-9.8,5.7c-0.1,0.1-0.2,0.3-0.2,0.4c0,0.2,0.2,0.4,0.4,0.4C230.5,211.8,230.5,211.8,230.6,211.8z"/>
					<path class="st25" d="M226.8,209.5l9.8-5.7c1.9-1.2,3.1-3.3,3.2-5.5v-2.4c0.1-1.9,1.1-3.7,2.8-4.8l2-1.2l0,0
						c0.2-0.1,0.2-0.3,0.1-0.5l0,0c-0.1-0.1-0.3-0.2-0.5-0.1l-2.1,1.2c-1.9,1.2-3.1,3.3-3.2,5.5v2.4c-0.1,1.9-1.2,3.7-2.8,4.8
						l-9.8,5.7l0,0c-0.1,0.1-0.2,0.3-0.1,0.5c0.1,0.1,0.3,0.2,0.4,0.2S226.7,209.6,226.8,209.5z"/>
					<path class="st25" d="M223,207.4l9.8-5.7c1.9-1.2,3.1-3.3,3.2-5.5v-2.4c0.1-1.9,1.2-3.7,2.8-4.8l2-1.2c0.2-0.2,0.2-0.4,0.1-0.6
						c-0.1-0.2-0.3-0.2-0.5-0.1l-2,1.2c-1.9,1.2-3.1,3.3-3.2,5.5v2.4c-0.1,1.9-1.2,3.7-2.8,4.8l-9.8,5.7c-0.1,0-0.2,0.2-0.2,0.3
						c0,0.2,0.2,0.4,0.4,0.4C222.9,207.4,222.9,207.4,223,207.4z"/>
					<path class="st25" d="M219.1,205.1l9.8-5.7c1.9-1.2,3.1-3.3,3.2-5.5v-2.4c0.1-1.9,1.2-3.7,2.8-4.8l2-1.2l0,0
						c0.1-0.1,0.2-0.3,0.1-0.5c-0.1-0.1-0.3-0.2-0.5-0.1l-2,1.2c-1.9,1.2-3.1,3.3-3.2,5.5v2.4c-0.1,1.9-1.2,3.7-2.8,4.8l-9.8,5.7
						l0,0c-0.2,0.1-0.2,0.3-0.1,0.5c0,0.1,0.2,0.2,0.3,0.2S219.1,205.2,219.1,205.1z"/>
					<path class="st25" d="M329.8,247.1c0.1,0,0.2,0,0.4-0.4c0.1-0.1,0-0.4-0.2-0.5l-9.8-5.7c-1.7-1-2.7-2.8-2.8-4.8v-2.4
						c-0.1-2.2-1.3-4.3-3.2-5.5l-2-1.2l0,0c-0.1-0.1-0.4,0-0.5,0.2c-0.2,0.2-0.1,0.5,0.1,0.6l2,1.2c1.7,1.1,2.7,2.8,2.8,4.8v2.4
						c0.1,2.2,1.3,4.3,3.2,5.5l9.8,5.7C329.7,247.1,329.7,247.1,329.8,247.1L329.8,247.1z"/>
					<path class="st25" d="M333.9,244.6c0.2-0.2,0.1-0.4-0.1-0.5l-9.8-5.7c-1.7-1.1-2.7-2.8-2.8-4.8v-2.4c-0.1-2.2-1.3-4.3-3.2-5.5
						l-2-1.2l0,0c-0.1-0.1-0.4,0-0.5,0.2c-0.2,0.2-0.1,0.4,0.1,0.5l2,1.2c1.7,1,2.7,2.8,2.8,4.8v2.4c0.1,2.2,1.3,4.3,3.2,5.5
						l9.8,5.7c0.1,0.1,0.1,0.1,0.2,0.1S333.9,244.8,333.9,244.6z"/>
					<path class="st25" d="M337.8,242.5L337.8,242.5c0.1-0.1,0-0.4-0.2-0.5l-9.8-5.7c-1.7-1-2.7-2.8-2.8-4.8v-2.4
						c-0.1-2.2-1.3-4.3-3.2-5.5l-2.1-1.2l0,0c-0.2-0.2-0.4-0.1-0.5,0.1l0,0c-0.2,0.1-0.1,0.4,0.1,0.5l2.1,1.2
						c1.7,1.1,2.7,2.8,2.8,4.8v2.4c0.1,2.2,1.3,4.3,3.2,5.5l9.8,5.7c0.1,0.1,0.1,0.1,0.2,0.1S337.7,242.6,337.8,242.5z"/>
					<path class="st25" d="M341.4,240.4L341.4,240.4c0.2-0.1,0.1-0.4-0.1-0.5l-9.8-5.7c-1.7-1.1-2.7-2.8-2.8-4.8V227
						c-0.1-2.2-1.3-4.3-3.2-5.5l-2-1.2c-0.1-0.2-0.4-0.1-0.5,0.1l0,0c-0.1,0.1,0,0.4,0.2,0.5l2,1.2c1.7,1,2.7,2.8,2.8,4.8v2.4
						c0.1,2.2,1.3,4.3,3.2,5.5l9.8,5.7c0.1,0,0.1,0,0.2,0C341.4,240.5,341.5,240.4,341.4,240.4z"/>
					<path class="st25" d="M345,238.3c0.2,0,0.3-0.1,0.4-0.5c0.1-0.1,0-0.4-0.2-0.5l-9.8-5.7c-1.7-1-2.7-2.8-2.8-4.8v-2.4
						c-0.1-2.2-1.3-4.3-3.2-5.5l-2-1.2l0,0c-0.1-0.1-0.4,0-0.5,0.2c-0.2,0.2-0.1,0.5,0.1,0.6l2,1.2c1.7,1.1,2.7,2.8,2.8,4.8v2.4
						c0.1,2.3,1.3,4.4,3.2,5.6l9.8,5.7C344.9,238.3,344.9,238.3,345,238.3L345,238.3z"/>
					<path class="st25" d="M349.2,235.8c0.2-0.2,0.1-0.4-0.1-0.5l-9.8-5.7c-1.7-1.1-2.7-2.8-2.8-4.8v-2.4c-0.1-2.2-1.3-4.3-3.2-5.5
						l-2-1.2c-0.1,0-0.1,0-0.1,0c-0.2-0.1-0.4,0-0.5,0.2c-0.1,0.2,0,0.4,0.2,0.5l2,1.2c1.7,1,2.7,2.8,2.8,4.8v2.4
						c0.1,2.2,1.3,4.3,3.2,5.5l9.8,5.7c0.1,0.1,0.1,0.1,0.2,0.1S349.1,236,349.2,235.8z"/>
					<path class="st25" d="M352.7,233.9c0.1,0,0.2-0.1,0.4-0.3c0.1-0.1,0-0.4-0.2-0.5l-9.8-5.7c-1.7-1-2.7-2.8-2.8-4.8v-2.4
						c-0.1-2.2-1.3-4.3-3.2-5.5l-2-1.2c-0.1,0-0.1,0-0.1,0c-0.2-0.1-0.4,0-0.5,0.2c-0.1,0.2,0,0.4,0.2,0.5l2,1.2
						c1.7,1,2.7,2.8,2.8,4.8v2.4c0.1,2.2,1.3,4.3,3.2,5.5l9.8,5.7C352.6,233.9,352.6,233.9,352.7,233.9L352.7,233.9z"/>
					<path class="st25" d="M356.5,231.7c0.1,0,0.3-0.1,0.4-0.1c0.1-0.1,0-0.4-0.2-0.5l-9.8-5.7c-1.7-1.1-2.7-2.8-2.8-4.8v-2.4
						c-0.1-2.2-1.3-4.3-3.2-5.5l-2.1-1.2c-0.2-0.2-0.4-0.1-0.5,0.1l0,0c-0.2,0.1-0.1,0.4,0.1,0.5l2.1,1.2c1.7,1,2.7,2.8,2.8,4.8v2.4
						c0.1,2.2,1.3,4.3,3.2,5.5l9.8,5.7C356.4,231.7,356.4,231.7,356.5,231.7L356.5,231.7z"/>
					<path class="st25" d="M360.6,229.2L360.6,229.2c0.2-0.1,0.1-0.4-0.1-0.5l-9.8-5.7c-1.7-1-2.7-2.8-2.8-4.8v-2.4
						c-0.1-2.2-1.3-4.3-3.2-5.5l-2-1.2c-0.1-0.1-0.4,0-0.5,0.2c-0.2,0.1-0.1,0.4,0.1,0.5l2,1.2c1.7,1.1,2.7,2.8,2.8,4.8v2.4
						c0.1,2.2,1.3,4.3,3.2,5.5l9.8,5.7c0.1,0.1,0.1,0.1,0.2,0.1C360.5,229.5,360.6,229.4,360.6,229.2z"/>
					<path class="st25" d="M364.6,227L364.6,227c0.1-0.1,0-0.4-0.2-0.5l-9.8-5.7c-1.7-1.1-2.7-2.8-2.8-4.8v-2.4
						c-0.1-2.2-1.3-4.3-3.2-5.5l-2-1.2c-0.1,0-0.1,0-0.1,0c-0.2-0.1-0.4,0-0.5,0.2c-0.1,0.2,0,0.4,0.2,0.5l2,1.2
						c1.7,1.1,2.7,2.8,2.8,4.8v2.4c0.1,2.2,1.3,4.3,3.2,5.5l9.8,5.7c0.1,0.1,0.1,0.1,0.2,0.1S364.4,227.2,364.6,227z"/>
					<path class="st25" d="M368,225.1c0.1,0,0.3-0.1,0.4-0.3c0.1-0.1,0-0.4-0.2-0.5l-9.8-5.7c-1.7-1.1-2.7-2.8-2.8-4.8v-2.4
						c-0.1-2.2-1.3-4.3-3.2-5.5l-2-1.2c-0.1,0-0.1,0-0.1,0c-0.2-0.1-0.4,0-0.5,0.2c-0.1,0.2,0,0.4,0.2,0.5l2,1.2
						c1.7,1,2.7,2.8,2.8,4.8v2.4c0.1,2.2,1.3,4.3,3.2,5.5l9.8,5.7C367.9,225.1,367.9,225.1,368,225.1L368,225.1z"/>
					<path class="st25" d="M371.8,222.9c0.1,0,0.3-0.1,0.5-0.3c0.1-0.1,0-0.4-0.2-0.5l-9.8-5.7c-1.7-1.1-2.7-2.8-2.8-4.8v-2.4
						c-0.1-2.2-1.3-4.3-3.2-5.5l-2.1-1.2c-0.1-0.1-0.4,0-0.5,0.2c-0.2,0.1-0.1,0.4,0.1,0.5l2,1.2c1.7,1,2.7,2.8,2.8,4.8v2.4
						c0.1,2.2,1.3,4.3,3.2,5.5l9.8,5.7C371.7,222.9,371.7,222.9,371.8,222.9L371.8,222.9z"/>
					<path class="st25" d="M375.6,220.7c0.1,0,0.3-0.1,0.4-0.4c0.1-0.1,0-0.4-0.2-0.5l-9.8-5.7c-1.7-1-2.7-2.8-2.8-4.8v-2.4
						c-0.1-2.2-1.3-4.3-3.2-5.5l-2.1-1.2l0,0c-0.2-0.1-0.4,0-0.5,0.2c-0.1,0.2-0.1,0.5,0.1,0.6l2.1,1.2c1.7,1.1,2.7,2.8,2.8,4.8v2.4
						c0.1,2.2,1.3,4.3,3.2,5.5l9.8,5.7C375.5,220.7,375.5,220.7,375.6,220.7L375.6,220.7z"/>
					<path class="st25" d="M379.6,218.2L379.6,218.2c0.2-0.1,0.1-0.4-0.1-0.5l-9.8-5.7c-1.6-1.1-2.7-2.8-2.8-4.8v-2.4
						c-0.1-2.2-1.3-4.3-3.2-5.5l-2-1.2l0,0c-0.1-0.1-0.4,0-0.5,0.2l0,0c-0.1,0.2,0,0.4,0.2,0.5l2,1.2c1.7,1.1,2.7,2.8,2.8,4.8v2.4
						c0.1,2.2,1.3,4.3,3.2,5.5l9.8,5.7c0.1,0.1,0.1,0.1,0.2,0.1C379.6,218.4,379.7,218.4,379.6,218.2z"/>
					<path class="st25" d="M383.3,216.2c0.1,0,0.2,0,0.4-0.3c0.1-0.1,0-0.4-0.2-0.5l-9.8-5.7c-1.7-1.1-2.7-2.8-2.8-4.8v-2.4
						c-0.1-2.2-1.3-4.3-3.2-5.5l-2.1-1.2c-0.1,0-0.1,0-0.1,0c-0.2-0.1-0.4,0-0.5,0.2s0,0.4,0.2,0.5l2.1,1.2c1.7,1,2.7,2.8,2.8,4.8
						v2.4c0.1,2.2,1.3,4.3,3.2,5.5l9.8,5.7C383.2,216.2,383.2,216.2,383.3,216.2L383.3,216.2z"/>
					<path class="st25" d="M387.1,214.1c0.1,0,0.3-0.1,0.4-0.3c0.1-0.1,0-0.4-0.2-0.5l-9.8-5.7c-1.7-1.1-2.7-2.8-2.8-4.8v-2.4
						c-0.1-2.2-1.3-4.3-3.2-5.5l-2.1-1.2c-0.1-0.1-0.4,0-0.5,0.2c-0.2,0.1-0.1,0.4,0.1,0.5l2.1,1.2c1.7,1,2.7,2.8,2.8,4.8v2.4
						c0.1,2.2,1.3,4.3,3.2,5.5l9.8,5.7C387,214.1,387,214.1,387.1,214.1L387.1,214.1z"/>
					<path class="st25" d="M390.9,211.9c0.2,0,0.3-0.1,0.5-0.2c0.1-0.1,0-0.4-0.2-0.5l-9.8-5.7c-1.7-1-2.7-2.8-2.8-4.8v-2.4
						c-0.1-2.2-1.3-4.3-3.2-5.5l-2.1-1.2l0,0c-0.2-0.1-0.4,0-0.5,0.2l0,0c-0.2,0.1-0.1,0.4,0.1,0.5l2,1.2c1.7,1.1,2.7,2.8,2.8,4.8
						v2.4c0.1,2.2,1.3,4.3,3.2,5.5l9.8,5.7C390.8,211.9,390.8,211.9,390.9,211.9L390.9,211.9z"/>
					<path class="st25" d="M395.1,209.4L395.1,209.4c0.1-0.1,0-0.4-0.2-0.5l-9.8-5.7c-1.7-1-2.7-2.8-2.8-4.8V196
						c-0.1-2.2-1.3-4.3-3.2-5.5l-2.1-1.2l0,0c-0.1-0.1-0.4,0-0.5,0.2l0,0c-0.2,0.2-0.1,0.4,0.1,0.5l2.1,1.2c1.7,1.1,2.7,2.8,2.8,4.8
						v2.3c0.1,2.2,1.3,4.3,3.2,5.5l9.8,5.7c0.1,0.1,0.1,0.1,0.2,0.1C394.9,209.6,395,209.6,395.1,209.4z"/>
					<path class="st25" d="M398.6,207.4c0.1,0,0.2,0,0.2-0.1c0.1-0.2,0.1-0.5-0.1-0.6l-9.8-5.7c-1.7-1.1-2.7-2.8-2.8-4.8v-2.4
						c-0.1-2.2-1.3-4.3-3.2-5.5l-2.1-1.2l0,0c-0.1-0.2-0.4-0.1-0.5,0.1l0,0c-0.1,0.1,0,0.4,0.2,0.5l2.1,1.2c1.7,1.1,2.7,2.8,2.8,4.8
						v2.4c0.1,2.2,1.3,4.3,3.2,5.5l9.8,5.7C398.5,207.4,398.5,207.4,398.6,207.4L398.6,207.4z"/>
					<path class="st25" d="M402.4,205.2c0.1,0,0.3,0,0.4-0.3c0.1-0.1,0-0.4-0.2-0.5l-9.8-5.7c-1.7-1.1-2.7-2.8-2.8-4.8v-2.4
						c-0.1-2.2-1.3-4.3-3.2-5.5l-2-1.2c-0.1-0.1-0.4,0-0.5,0.2c-0.2,0.1-0.1,0.4,0.1,0.5l2,1.2c1.7,1,2.7,2.8,2.8,4.8v2.4
						c0.1,2.2,1.3,4.3,3.2,5.5l9.8,5.7C402.3,205.2,402.3,205.2,402.4,205.2L402.4,205.2z"/>
				</g>
				<g>
					<path class="st26" d="M295.3,182.1L295.3,182.1c2.1,0,3.8-1.7,3.8-3.8s-1.7-3.8-3.8-3.8c-2.1,0-3.8,1.7-3.8,3.8
						C291.5,180.4,293.2,182.1,295.3,182.1z"/>
					<path class="st26" d="M263.5,144.2c0,2.1,1.7,3.8,3.8,3.8c2.1,0,3.8-1.7,3.8-3.8s-1.7-3.8-3.8-3.8
						C265.2,140.4,263.5,142.1,263.5,144.2L263.5,144.2z"/>
					<path class="st26" d="M317.8,115.5L317.8,115.5c2.3,0,4.1-1.8,4.1-4.1s-1.8-4.1-4.1-4.1c-2.3,0-4.1,1.8-4.1,4.1
						C313.7,113.7,315.5,115.5,317.8,115.5z"/>
					<path class="st26" d="M308.4,122.8c0,1.3,1.1,2.4,2.4,2.4c1.3,0,2.4-1.1,2.4-2.4s-1.1-2.4-2.4-2.4S308.4,121.5,308.4,122.8
						L308.4,122.8z"/>
					<path class="st26" d="M316.3,122.3c0,0.8,0.7,1.5,1.6,1.6l0,0c0.9,0,1.6-0.7,1.6-1.6s-0.7-1.6-1.6-1.6S316.3,121.4,316.3,122.3
						L316.3,122.3z"/>
					<path class="st26" d="M283.8,138.7c0,0.9,0.7,1.6,1.6,1.6l0,0c0.9,0,1.6-0.7,1.6-1.6c0-0.9-0.7-1.6-1.6-1.6
						S283.8,137.8,283.8,138.7L283.8,138.7z"/>
					<path class="st26" d="M331.7,123.7c0,0.3,0.2,0.5,0.5,0.5s0.5-0.2,0.5-0.5s-0.2-0.5-0.5-0.5l0,0
						C331.9,123.2,331.7,123.4,331.7,123.7L331.7,123.7z"/>
					<path class="st26" d="M315.9,135.8c0.3,0,0.5-0.2,0.5-0.5s-0.2-0.5-0.5-0.5s-0.5,0.2-0.5,0.5
						C315.4,135.5,315.6,135.8,315.9,135.8z"/>
					<path class="st26" d="M284,156.7c0,0.1,0,0.1,0.1,0.1c0,0.3,0.2,0.4,0.5,0.4s0.4-0.2,0.4-0.5s-0.2-0.5-0.5-0.5l0,0
						C284.2,156.2,284,156.4,284,156.7L284,156.7z"/>
					<path class="st26" d="M291.3,155.8c0,0.2,0.2,0.4,0.5,0.5c0.3,0,0.5-0.2,0.5-0.5l0,0c0-0.3-0.2-0.5-0.5-0.5l0,0
						C291.5,155.3,291.3,155.5,291.3,155.8L291.3,155.8z"/>
					<path class="st26" d="M323.5,147.6c0,3.2,2.6,5.8,5.9,5.8l0,0c3.2-0.1,5.8-2.7,5.8-5.9c-0.1-3.2-2.7-5.9-5.9-5.8
						S323.5,144.4,323.5,147.6L323.5,147.6z"/>
					<path class="st26" d="M336.8,178c0,1.6,1.3,2.9,2.9,2.9s2.9-1.3,2.9-2.9c0-1.6-1.3-2.9-2.9-2.9S336.8,176.4,336.8,178
						L336.8,178z"/>
					<path class="st26" d="M300.9,140.1c0,1.7,1.3,2.9,3,2.9c1.5,0,2.8-1.3,2.8-2.9c0-1.6-1.3-2.9-2.9-2.9S300.9,138.5,300.9,140.1
						C300.9,140.2,300.9,140.2,300.9,140.1z"/>
					<path class="st26" d="M352.7,125.4L352.7,125.4c1.6,0,2.9-1.3,2.9-2.9s-1.3-2.9-2.9-2.9s-2.9,1.3-2.9,2.9
						S351.1,125.3,352.7,125.4z"/>
					<path class="st26" d="M362.9,166.1L362.9,166.1c1.6,0,2.9-1.3,2.9-2.9c0-1.6-1.3-2.9-2.9-2.9s-2.9,1.3-2.9,2.9
						S361.3,166.1,362.9,166.1z"/>
					<path class="st26" d="M288,100.5c1.6,0,2.9-1.3,2.9-2.9s-1.3-2.9-2.9-2.9s-2.9,1.3-2.9,2.9S286.4,100.5,288,100.5z"/>
					<path class="st26" d="M336.1,77.9c0,1.6,1.3,2.9,2.9,2.9c1.6,0,2.9-1.3,2.9-2.9S340.6,75,339,75S336.1,76.3,336.1,77.9
						L336.1,77.9z"/>
					<path class="st26" d="M307.4,55.5c0.8,0,1.4-0.6,1.4-1.4c0-0.8-0.6-1.4-1.4-1.4s-1.4,0.6-1.4,1.4
						C306,54.9,306.6,55.5,307.4,55.5z"/>
					<path class="st26" d="M294.3,167.1L294.3,167.1c1,0,1.7-0.8,1.7-1.7c0-1-0.7-1.7-1.7-1.7s-1.7,0.8-1.7,1.7
						C292.6,166.3,293.3,167.1,294.3,167.1z"/>
					<path class="st26" d="M331.3,136.4c0.9,0,1.7-0.8,1.7-1.7s-0.8-1.7-1.7-1.7s-1.7,0.8-1.7,1.7
						C329.6,135.6,330.4,136.4,331.3,136.4z"/>
					<path class="st26" d="M345,149.9c0,0.7,0.5,1.2,1.1,1.1c0.6,0,1.1-0.5,1.1-1.1s-0.5-1.1-1.1-1.1S345,149.3,345,149.9
						C345,149.9,345,150,345,149.9z"/>
					<path class="st26" d="M347.3,152.2c0,0.9,0.7,1.7,1.7,1.6c0.9,0,1.6-0.8,1.6-1.7c0-0.9-0.8-1.6-1.7-1.6
						S347.3,151.3,347.3,152.2L347.3,152.2z"/>
					<path class="st26" d="M344.8,155.4c0,0.5,0.4,0.9,0.9,0.9l0,0c0.5,0,0.9-0.4,0.9-0.9s-0.4-0.9-0.9-0.9S344.8,154.9,344.8,155.4
						L344.8,155.4z"/>
					<path class="st26" d="M315.2,163.8c0.7,0,1.2-0.4,1.3-1.1c0-0.1,0-0.1,0-0.2c-0.1-0.7-0.6-1.2-1.3-1.1s-1.2,0.6-1.1,1.3
						C314.1,163.2,314.6,163.7,315.2,163.8z"/>
					<path class="st26" d="M287.8,142.1c0.7,0,1.2-0.5,1.2-1.2s-0.5-1.2-1.2-1.2s-1.2,0.5-1.2,1.2
						C286.6,141.5,287.1,142.1,287.8,142.1z"/>
					<path class="st26" d="M307.6,158.6c0.1,1.7,1.4,2.9,3,2.9c1.6-0.1,2.9-1.4,2.9-3c-0.1-1.6-1.4-2.9-3-2.9
						C308.9,155.7,307.6,157,307.6,158.6L307.6,158.6z"/>
				</g>
				
					<linearGradient id="SVGID_13_" gradientUnits="userSpaceOnUse" x1="-894.09" y1="425.3" x2="-894.09" y2="216" gradientTransform="matrix(1 0 0 1 1204.59 -216)">
					<stop  offset="0" style="stop-color:#4ECDC4"/>
					<stop  offset="1" style="stop-color:#0C3A37;stop-opacity:0"/>
				</linearGradient>
				<polygon class="st27" points="310.5,209.3 252.4,175.8 252.4,0 368.6,0 368.6,175.8 				"/>
			</g>
		</g>
	</g>
</g>
</svg>
