<svg id="Layer_35" enable-background="new 0 0 64 64" viewBox="0 0 64 64" xmlns="http://www.w3.org/2000/svg" xmlns:xlink="http://www.w3.org/1999/xlink"><linearGradient id="SVGID_1_" gradientUnits="userSpaceOnUse" x1="32" x2="32" y1="63" y2="1"><stop offset="0" stop-color="#715aff"/><stop offset="1" stop-color="#55dde0"/></linearGradient><path d="m13 57h8v2h-8zm-8-8v-24c0-1.103.897-2 2-2h20c1.103 0 2 .897 2 2v24c0 1.103-.897 2-2 2h-20c-1.103 0-2-.897-2-2zm2 .002 20-.002v-24h-20zm18-6.002v4h-16v-4c0-3.232 1.93-6.016 4.695-7.277-1.031-.917-1.695-2.238-1.695-3.723 0-2.757 2.243-5 5-5s5 2.243 5 5c0 1.485-.664 2.806-1.695 3.723 2.765 1.261 4.695 4.045 4.695 7.277zm-8-8c1.654 0 3-1.346 3-3s-1.346-3-3-3-3 1.346-3 3 1.346 3 3 3zm6 8c0-3.309-2.691-6-6-6s-6 2.691-6 6v2h12zm13.689 7.436-1.689-.804v-5.264l1.689-.804c.002-.004.003-.008.005-.012l-.626-1.764 3.721-3.721 1.764.626c.004-.002.008-.003.012-.005l.803-1.688h5.264l.804 1.689c.004.002.008.003.012.005l1.764-.626 3.721 3.721-.626 1.764c.002.004.003.008.005.012l1.688.803v5.264l-1.689.804c-.001.004-.003.008-.005.012l.626 1.763-3.721 3.722-1.764-.626c-.004.002-.008.003-.012.005l-.803 1.688h-5.264l-.804-1.689c-.004-.002-.008-.003-.012-.005l-1.764.626-3.721-3.722.626-1.763c-.001-.004-.003-.008-.004-.011zm.311-2.068 1.281.609.139.389c.075.211.161.416.255.617l.175.372-.475 1.333 1.936 1.937 1.334-.475.372.175c.201.094.406.18.617.255l.389.139.609 1.281h2.736l.609-1.281.389-.139c.211-.075.416-.161.617-.255l.372-.175 1.334.475 1.936-1.937-.475-1.333.175-.372c.094-.201.18-.406.255-.617l.139-.389 1.281-.609v-2.736l-1.281-.609-.139-.389c-.075-.211-.161-.416-.255-.617l-.175-.372.475-1.334-1.936-1.936-1.334.475-.372-.175c-.201-.094-.406-.18-.617-.255l-.389-.139-.609-1.281h-2.736l-.609 1.281-.389.139c-.211.075-.416.161-.617.255l-.372.175-1.334-.475-1.936 1.936.475 1.334-.175.372c-.094.201-.18.406-.255.617l-.139.389-1.281.609zm3-1.368c0-2.757 2.243-5 5-5s5 2.243 5 5-2.243 5-5 5-5-2.243-5-5zm2 0c0 1.654 1.346 3 3 3s3-1.346 3-3-1.346-3-3-3-3 1.346-3 3zm21-43v24c0 1.654-1.346 3-3 3h-27v2h23c1.654 0 3 1.346 3 3v22c0 1.654-1.346 3-3 3h-24v-.031c-.912 1.225-2.359 2.031-4 2.031h-22c-2.757 0-5-2.243-5-5v-38c0-2.757 2.243-5 5-5h13v-11c0-1.654 1.346-3 3-3h38c1.654 0 3 1.346 3 3zm-52 14c0 .551.448 1 1 1h10c.552 0 1-.449 1-1v-1h-12zm-8 2v33h28v-33c0-1.654-1.346-3-3-3h-3v1c0 1.654-1.346 3-3 3h-10c-1.654 0-3-1.346-3-3v-1h-3c-1.654 0-3 1.346-3 3zm44 1c0-2.841 1.986-5.221 4.642-5.839-.738-1.877-2.546-3.161-4.642-3.161-.692 0-1.365.141-2.001.42l-1.008.441-.344-1.045c-.946-2.88-3.618-4.816-6.647-4.816-3.859 0-7 3.14-7 7v1.424c1.763.774 3 2.531 3 4.576v5h20c2.206 0 4-1.794 4-4s-1.794-4-4-4-4 1.794-4 4zm-16 37v-3h-28v3c0 1.654 1.346 3 3 3h22c1.654 0 3-1.346 3-3zm2-23v23c0 .342-.035.677-.101 1h23.101c.552 0 1-.448 1-1v-22c0-.552-.448-1-1-1zm28-31c0-.551-.448-1-1-1h-38c-.552 0-1 .449-1 1v11h7v-1c0-4.962 4.037-9 9-9 3.553 0 6.722 2.069 8.176 5.242.593-.161 1.203-.242 1.824-.242 3.161 0 5.865 2.08 6.718 5.047 2.971.357 5.282 2.888 5.282 5.953 0 3.309-2.691 6-6 6h-20v2h27c.552 0 1-.449 1-1zm-4 3h2v-2h-2zm0 4h2v-2h-2zm0 4h2v-2h-2zm-20-6v2c1.654 0 3 1.346 3 3h2c0-2.757-2.243-5-5-5zm-2 14h2v-2h-2zm4 0h2v-2h-2zm4 0h2v-2h-2z" fill="url(#SVGID_1_)"/></svg>