<?xml version="1.0" encoding="utf-8"?>
<!-- Generator: Adobe Illustrator 22.0.0, SVG Export Plug-In . SVG Version: 6.00 Build 0)  -->
<svg version="1.1" id="Layer_1" xmlns="http://www.w3.org/2000/svg" xmlns:xlink="http://www.w3.org/1999/xlink" x="0px" y="0px"
	 viewBox="0 0 493.6 88.4" style="enable-background:new 0 0 493.6 88.4;" xml:space="preserve">
<style type="text/css">
	.st0{fill:#715AFF;}
	.st1{font-family:'AzonixRegular';}
	.st2{font-size:72px;}
	.st3{letter-spacing:-2;}
	.st4{letter-spacing:-9;}
	.st5{fill:#55DDE0;}
	.st6{font-family:'Ayuthaya';}
	.st7{letter-spacing:-1;}
</style>
<g id="Layer_2_1_">
	<g id="Layer_3">
		<text transform="matrix(1 0 0 1 243.63 75.02)" class="st0 st1 st2 st3">H</text>
		<text transform="matrix(1 0 0 1 297.63 75.02)" class="st0 st1 st2 st4">A</text>
		<text transform="matrix(1 0 0 1 340.61 75.02)" class="st0 st1 st2 st3">C</text>
		<text transform="matrix(1 0 0 1 393.89 75.02)" class="st0 st1 st2 st4">K</text>
		<text transform="matrix(1 0 0 1 442.35 75.02)" class="st0 st1 st2 st3">S</text>
		<text transform="matrix(1 0 0 1 119.13 74.94)" class="st5 st6 st2 st7">She</text>
		<g>
			<path class="st5" d="M93.8,31.8c-3.9-1.5-8.2,0.5-9.7,4.4c-0.2,0.5-0.3,0.9-0.4,1.4c0,0.6-0.5,1.2-1.1,1.2
				c-4.1,1.1-8.3,2.2-12.4,3.2L54,46.4l1.1,4.3l13.2-3.4L84,43c0.4-0.2,0.8,0,1,0.3c1.7,2.3,4.6,3.5,7.4,3c4.1-0.7,6.9-4.6,6.2-8.8
				C98.1,35,96.3,32.8,93.8,31.8L93.8,31.8z M91.2,42c-1.7,0-3.1-1.3-3.2-3l0,0c0-1.7,1.4-3.1,3.1-3.2c1.6,0.1,2.9,1.3,3,2.9
				C94.3,40.4,93,41.9,91.2,42C91.3,42,91.3,42,91.2,42z"/>
			<path class="st5" d="M96.6,66.3c-2.5-1.5-5.6-1.4-8,0.2c-0.3,0.2-0.7,0.2-0.9,0c-0.2-0.1-0.4-0.2-0.6-0.4
				c-2.6-1.5-5.2-3.1-7.8-4.6c-0.8-0.6-1.9-0.8-2.8-0.5c-0.7,0.2-1.3,0.4-2,0.6l-15.2,4l1.2,4.3c5.2-1.3,10.3-2.7,15.4-4
				c0.4-0.1,0.8-0.1,1.2,0.2c0.7,0.4,1.3,0.8,2,1.2c1.9,1.1,3.8,2.2,5.7,3.3c0.4,0.2,0.7,0.6,0.6,1.1c-0.6,3.7,1.6,7.2,5.1,8.4
				C93.6,81,97,80,99,77.5c2.5-3.4,1.8-8.1-1.6-10.7C97,66.5,96.8,66.4,96.6,66.3z M92.6,75.9c-1.7,0-3.1-1.4-3-3.2
				c0-1.7,1.4-3.1,3.2-3l0,0c1.7,0,3.1,1.4,3,3.2C95.8,74.6,94.4,75.9,92.6,75.9z"/>
			<path class="st5" d="M111.7,46.7c-4-1.3-8.2,0.9-9.5,4.9c-0.1,0.4-0.2,0.9-0.3,1.4c0,0.5-0.4,0.9-0.9,1c-2.5,0.6-5,1.3-7.4,1.9
				c-0.3,0.1-0.6,0-0.9-0.2c-3.3-2-6.7-3.9-10-5.8c-0.4-0.2-0.9-0.3-1.3-0.2l-23,6l-1.6,0.4l1.2,4.3l9.4-2.5c3.7-1,7.5-1.9,11.2-3
				c1.3-0.4,2.6-0.6,3.7,0.5c0.1,0,0.1,0.1,0.2,0.1c2.6,1.5,5.2,3,7.8,4.6c0.7,0.5,1.7,0.7,2.6,0.4c3.2-0.9,6.3-1.7,9.5-2.5
				c0.4-0.2,0.8,0,1,0.3c1.8,2.5,5,3.7,8,2.8c3.3-0.8,5.6-3.8,5.7-7.2C117,50.7,114.8,47.8,111.7,46.7z M109.5,57
				c-1.7,0.1-3.1-1.2-3.2-2.9V54c0-1.7,1.3-3.1,3-3.2c1.7,0,3.1,1.3,3.2,3C112.5,55.5,111.2,56.9,109.5,57z"/>
			<path class="st5" d="M80.8,2.8c-2.1-1.9-5.2-2.3-7.8-1.2c-2.6,1-4.5,3.4-4.7,6.2c-0.2,1.8,0.3,3.7,1.4,5.1c0.2,0.3,0.5,0.5,0.2,1
				c-1.7,2.8-3.3,5.6-4.9,8.4c-0.2,0.4-0.6,0.6-1,0.7l-15,4l1.1,4.3l9.4-2.5c2.8-0.7,5.6-1.5,8.4-2.2c0.4-0.1,0.8-0.4,1-0.8l4.9-8.5
				c0.4-0.8,0.8-1.6,1.8-1.2c2.6,0.1,5-1.2,6.4-3.3C84.3,9.7,83.7,5.3,80.8,2.8z M75.8,11.7c-1.7,0-3.1-1.4-3.1-3.1s1.4-3.1,3.1-3.1
				c0.1,0,0.2,0,0.3,0c1.7,0.1,3,1.5,3,3.1C79,10.4,77.6,11.7,75.8,11.7z"/>
			<path class="st5" d="M103.6,10.3C100,8.2,95.3,9.4,93.2,13c-0.5,0.9-0.9,1.9-1,2.9c-0.1,0.7-0.4,0.9-1,1.1
				c-3.3,0.8-6.6,1.7-9.9,2.5c-0.4,0.1-0.8,0.4-1,0.8c-1.8,3.1-3.6,6.3-5.5,9.5c-0.3,0.5-0.5,1-1.2,1.2c-4.4,1.1-8.7,2.3-13.1,3.4
				l-8.3,2.2l1.1,4.3l0.6-0.2c7.8-2,15.6-4,23.3-6.1c0.5-0.1,0.8-0.4,1.1-0.8c2-3.4,3.9-6.7,5.8-10.1c0.2-0.4,0.6-0.6,1-0.7
				c2.5-0.6,4.9-1.3,7.4-2c0.4-0.1,0.8,0,1,0.4c1.7,2.4,4.7,3.5,7.6,2.9c4.1-0.8,6.8-4.7,6-8.8C106.8,13.2,105.5,11.4,103.6,10.3
				L103.6,10.3z M99.7,19.9c-1.7,0.1-3-1.2-3.1-2.9c0-0.1,0-0.1,0-0.2c0-1.7,1.4-3.1,3.1-3.1s3.1,1.4,3.1,3.1
				C102.8,18.5,101.5,19.9,99.7,19.9L99.7,19.9z"/>
			<path class="st5" d="M56.3,48.9c2.5,9.2,4.8,18.4,7.4,27.5c1.4,5-1.5,10.2-6.5,11.5c-0.5,0.1-0.9,0.2-1.4,0.3
				c-0.8,0.1-1.5,0-2.2-0.3c-8-3.1-16.1-6.1-24.1-9.2c-0.6-0.2-1.3-0.3-1.9-0.1c-3.3,0.9-6.6,1.8-9.9,2.6c-4.8,1.3-9.7-1.6-11-6.4
				C4.6,67,2.6,59.1,0.4,51.3C-0.9,46.4,2,41.3,6.9,40c3.2-0.8,6.4-1.7,9.6-2.5c0.7-0.2,1.3-0.5,1.7-1.1
				c5.2-6.4,10.5-12.7,15.6-19.2c2.3-2.9,5.1-3.5,8.3-2.8c3.3,0.6,6,3.2,6.7,6.5C51.3,30.4,53.8,39.6,56.3,48.9z M50.3,50.4
				L50.3,50.4c-2.4-9-4.9-18-7.3-27.1c-0.1-0.5-0.3-1-0.6-1.4c-0.6-1.2-1.9-1.7-3.1-1.1c-0.4,0.2-0.7,0.5-0.9,0.8
				c-4.9,6.1-9.9,12.1-14.9,18.1c-0.6,0.6-0.8,1.4-0.5,2.1c2.7,10,5.4,19.9,8,29.9c0.1,0.6,0.5,1.1,1.1,1.2c7.5,2.8,15,5.6,22.5,8.5
				c1,0.5,2.3,0.1,2.8-0.9c0.1-0.2,0.1-0.3,0.2-0.5c0.3-0.9,0.2-1.9-0.1-2.8L50.3,50.4z M21.1,58.4L21.1,58.4
				c-1.2-4.6-2.4-9.1-3.7-13.7c-0.1-0.4-0.2-1-0.9-0.8c-2.7,0.7-5.4,1.4-8,2.2c-1.2,0.3-2.1,1.3-2.2,2.6c0,0.7,0.1,1.4,0.3,2
				l5.8,21.8c0.6,2.4,2,3.2,4.4,2.6s4.7-1.3,7.1-1.9c0.8-0.2,1-0.6,0.7-1.3C23.4,67.4,22.2,62.9,21.1,58.4L21.1,58.4z"/>
		</g>
	</g>
</g>
</svg>
