<?xml version="1.0" encoding="utf-8"?>
<!-- Generator: Adobe Illustrator 22.0.0, SVG Export Plug-In . SVG Version: 6.00 Build 0)  -->
<svg version="1.1" id="Layer_1" xmlns="http://www.w3.org/2000/svg" xmlns:xlink="http://www.w3.org/1999/xlink" x="0px" y="0px"
	 viewBox="0 0 370.6 88.4" style="enable-background:new 0 0 370.6 88.4;" xml:space="preserve">
<style type="text/css">
	.st0{enable-background:new    ;}
	.st1{fill:#FFFFFF;}
</style>
<g id="Layer_2_1_">
	<g id="Layer_3">
		<g class="st0">
			<path class="st1" d="M174.6,24.6V75h-9V51.9h-32.4V75h-9V24.6h9v18.3h32.4V24.6H174.6z"/>
		</g>
		<g class="st0">
			<path class="st1" d="M226.8,75h-10.1l-4.6-9l-11-21.6l-11,21.6l-4.6,9h-10.1l4.6-9l21.1-41.4L222.2,66L226.8,75z"/>
		</g>
		<g class="st0">
			<path class="st1" d="M229.5,49.8c0,8.9,7.3,16.2,16.2,16.2h25.2v9h-25.2c-13.9,0-25.2-11.3-25.2-25.2c0-13.9,11.3-25.2,25.2-25.2
				h25.2v9h-25.2C236.8,33.6,229.5,40.9,229.5,49.8z"/>
		</g>
		<g class="st0">
			<path class="st1" d="M302.9,44.8L324.7,75h-11.1l-17.4-24l-12.7,11.6V75h-9V24.6h9v25.8l7.4-6.8l6.7-6.1l14-12.9h13.3L302.9,44.8
				z"/>
		</g>
		<g class="st0">
			<path class="st1" d="M361.6,38.6v-0.3c0-2.5-2.1-4.6-4.6-4.6h-20.4c-2.5,0-4.6,2.1-4.6,4.6v0.3c0,2.5,2.1,4.6,4.6,4.6h18.1
				c4.7,0,8.9,2,11.7,5.2c0.2,0.2,0.4,0.4,0.6,0.6c2.2,2.7,3.6,6.3,3.6,10.1c0,8.8-7.1,15.9-15.9,15.9h-15.8
				c-8.8,0-15.9-7.1-15.9-15.9h9c0,3.8,3.1,6.9,6.9,6.9h15.8c3.8,0,7-3.1,7-6.9s-3.2-6.9-7-6.9h-18.1c-3.7,0-7-1.4-9.4-3.8
				c-0.6-0.6-1.2-1.4-1.7-2.2c-1.5-2.2-2.4-4.8-2.4-7.7v-0.3c0-7.5,6-13.6,13.5-13.6H357c7.5,0,13.6,6.1,13.6,13.6v0.3L361.6,38.6z"
				/>
		</g>
		<g class="st0">
			<path class="st1" d="M1.6,73.8v-6.7c5.6,2.7,10.7,4,15.3,4c1.9,0,3.8-0.4,5.5-1.1c1.8-0.7,3.1-1.8,4-3.2c0.9-1.4,1.4-2.9,1.4-4.5
				c0-1.9-0.6-3.7-1.9-5.3c-1.2-1.7-3.6-3.5-7-5.5l-3.6-2.1l-3.6-2.1c-6.4-3.8-9.6-8.5-9.6-14.1c0-4.1,1.4-7.6,4.3-10.4
				c2.9-2.8,7.3-4.2,13.3-4.2c3.9,0,7.6,0.6,11.3,1.7v6.1c-4-1.6-7.9-2.3-11.7-2.3c-3,0-5.5,0.8-7.3,2.4c-1.9,1.6-2.8,3.5-2.8,5.8
				c0,2.2,0.7,4.1,2.2,5.6c1.4,1.5,3.3,2.8,5.5,4.1l2.7,1.6l3.4,2.1l2.9,1.7c6,3.7,8.9,8.3,8.9,13.8c0,4.2-1.5,7.9-4.6,10.9
				c-3.1,3-8,4.5-14.8,4.5c-2.1,0-4.2-0.2-6.2-0.5C7.4,75.7,4.8,74.9,1.6,73.8z"/>
			<path class="st1" d="M44.8,74.9V18.2h6.5v26.1c1.9-3,4.1-5.4,6.8-7.1c2.6-1.7,5.3-2.6,7.9-2.6c2.2,0,4.3,0.6,6.1,1.7
				c1.8,1.1,3.1,2.5,3.8,4.1c0.6,1.2,1,2.5,1.2,3.9c0.2,1.4,0.3,4.3,0.3,8.6v21.9H71V52.2c0-3.8-0.2-6.3-0.5-7.5c-0.4-1.2-1-2.2-2-3
				c-1-0.8-2-1.2-3.2-1.2c-2.3,0-4.8,1.1-7.4,3.3C55.2,46,53,48.8,51.3,52v22.9H44.8z"/>
			<path class="st1" d="M120.7,72.3c-5.2,2.5-10.2,3.7-14.8,3.7c-3.5,0-6.7-0.9-9.5-2.6s-5-4.3-6.7-7.5c-1.7-3.3-2.5-6.8-2.5-10.5
				c0-3.6,0.8-7,2.4-10.3c1.6-3.3,3.8-5.9,6.7-7.7c2.9-1.8,6-2.8,9.6-2.8c4.7,0,8.4,1.7,11.2,5c2.8,3.3,4.2,8.5,4.2,15.4v1.4H94.1
				c0,2.7,0.6,5.2,1.7,7.4c1.1,2.2,2.6,3.9,4.5,5.1c1.9,1.1,4,1.7,6.3,1.7c4.2,0,8.9-1.4,14-4.2V72.3z M94.5,51.5h19.6v-1
				c0-3.2-0.8-5.7-2.4-7.6c-1.6-1.9-3.7-2.8-6.3-2.8c-2.7,0-4.9,1-6.9,2.9C96.6,44.9,95.3,47.7,94.5,51.5z"/>
		</g>
	</g>
</g>
</svg>
