<?xml version="1.0" encoding="utf-8"?>
<!-- Generator: Adobe Illustrator 22.0.0, SVG Export Plug-In . SVG Version: 6.00 Build 0)  -->
<svg version="1.1" id="Layer_1" xmlns="http://www.w3.org/2000/svg" xmlns:xlink="http://www.w3.org/1999/xlink" x="0px" y="0px"
	 viewBox="0 0 493.6 88.4" style="enable-background:new 0 0 493.6 88.4;" xml:space="preserve">
<style type="text/css">
	.st0{enable-background:new    ;}
	.st1{fill:#715AFF;}
	.st2{fill:#55DDE0;}
</style>
<g id="Layer_2_1_">
	<g id="Layer_3">
		<g class="st0">
			<path class="st1" d="M297.6,24.6V75h-9V51.9h-32.4V75h-9V24.6h9v18.3h32.4V24.6H297.6z"/>
		</g>
		<g class="st0">
			<path class="st1" d="M349.8,75h-10.1l-4.6-9l-11-21.6l-11,21.6l-4.6,9h-10.1l4.6-9l21.1-41.4L345.2,66L349.8,75z"/>
		</g>
		<g class="st0">
			<path class="st1" d="M352.5,49.8c0,8.9,7.3,16.2,16.2,16.2h25.2v9h-25.2c-13.9,0-25.2-11.3-25.2-25.2c0-13.9,11.3-25.2,25.2-25.2
				h25.2v9h-25.2C359.8,33.6,352.5,40.9,352.5,49.8z"/>
		</g>
		<g class="st0">
			<path class="st1" d="M425.9,44.8L447.7,75h-11.1l-17.4-24l-12.7,11.6V75h-9V24.6h9v25.8l7.4-6.8l6.7-6.1l14-12.9h13.3L425.9,44.8
				z"/>
		</g>
		<g class="st0">
			<path class="st1" d="M484.6,39.6v-0.3c0-2.5-2.1-4.6-4.6-4.6h-20.4c-2.5,0-4.6,2.1-4.6,4.6v0.3c0,2.5,2.1,4.6,4.6,4.6h18.1
				c4.7,0,8.9,2,11.7,5.2c0.2,0.2,0.4,0.4,0.6,0.6c2.2,2.7,3.6,6.3,3.6,10.1c0,8.8-7.1,15.9-15.9,15.9h-15.8
				c-8.8,0-15.9-7.1-15.9-15.9h9c0,3.8,3.1,6.9,6.9,6.9h15.8c3.8,0,7-3.1,7-6.9s-3.2-6.9-7-6.9h-18.1c-3.7,0-7-1.4-9.4-3.8
				c-0.6-0.6-1.2-1.4-1.7-2.2c-1.5-2.2-2.4-4.8-2.4-7.7v-0.3c0-7.5,6-13.6,13.5-13.6H480c7.5,0,13.6,6.1,13.6,13.6v0.3L484.6,39.6z"
				/>
		</g>
		<g class="st0">
			<path class="st2" d="M124.6,73.8v-6.7c5.6,2.7,10.7,4,15.3,4c1.9,0,3.8-0.4,5.5-1.1c1.8-0.7,3.1-1.8,4-3.2
				c0.9-1.4,1.4-2.9,1.4-4.5c0-1.9-0.6-3.7-1.9-5.3c-1.2-1.7-3.6-3.5-7-5.5l-3.6-2.1l-3.6-2.1c-6.4-3.8-9.6-8.5-9.6-14.1
				c0-4.1,1.4-7.6,4.3-10.4c2.9-2.8,7.3-4.2,13.3-4.2c3.9,0,7.6,0.6,11.3,1.7v6.1c-4-1.6-7.9-2.3-11.7-2.3c-3,0-5.5,0.8-7.3,2.4
				c-1.9,1.6-2.8,3.5-2.8,5.8c0,2.2,0.7,4.1,2.2,5.6c1.4,1.5,3.3,2.8,5.5,4.1l2.7,1.6l3.4,2.1l2.9,1.7c6,3.7,8.9,8.3,8.9,13.8
				c0,4.2-1.5,7.9-4.6,10.9c-3.1,3-8,4.5-14.8,4.5c-2.1,0-4.2-0.2-6.2-0.5C130.4,75.7,127.8,74.9,124.6,73.8z"/>
			<path class="st2" d="M166.8,74.9V18.2h6.5v26.1c1.9-3,4.1-5.4,6.8-7.1c2.6-1.7,5.3-2.6,7.9-2.6c2.2,0,4.3,0.6,6.1,1.7
				c1.8,1.1,3.1,2.5,3.8,4.1c0.6,1.2,1,2.5,1.2,3.9c0.2,1.4,0.3,4.3,0.3,8.6v21.9H193V52.2c0-3.8-0.2-6.3-0.5-7.5
				c-0.4-1.2-1-2.2-2-3c-1-0.8-2-1.2-3.2-1.2c-2.3,0-4.8,1.1-7.4,3.3c-2.6,2.2-4.8,4.9-6.5,8.2v22.9H166.8z"/>
			<path class="st2" d="M241.8,72.3c-5.2,2.5-10.2,3.7-14.8,3.7c-3.5,0-6.7-0.9-9.5-2.6s-5-4.3-6.7-7.5c-1.7-3.3-2.5-6.8-2.5-10.5
				c0-3.6,0.8-7,2.4-10.3c1.6-3.3,3.8-5.9,6.7-7.7c2.9-1.8,6-2.8,9.6-2.8c4.7,0,8.4,1.7,11.2,5c2.8,3.3,4.2,8.5,4.2,15.4v1.4h-27.1
				c0,2.7,0.6,5.2,1.7,7.4c1.1,2.2,2.6,3.9,4.5,5.1c1.9,1.1,4,1.7,6.3,1.7c4.2,0,8.9-1.4,14-4.2V72.3z M215.7,51.5h19.6v-1
				c0-3.2-0.8-5.7-2.4-7.6c-1.6-1.9-3.7-2.8-6.3-2.8c-2.7,0-4.9,1-6.9,2.9C217.8,44.9,216.4,47.7,215.7,51.5z"/>
		</g>
		<g>
			<path class="st2" d="M93.8,31.8c-3.9-1.5-8.2,0.5-9.7,4.4c-0.2,0.5-0.3,0.9-0.4,1.4c0,0.6-0.5,1.2-1.1,1.2
				c-4.1,1.1-8.3,2.2-12.4,3.2L54,46.4l1.1,4.3l13.2-3.4L84,43c0.4-0.2,0.8,0,1,0.3c1.7,2.3,4.6,3.5,7.4,3c4.1-0.7,6.9-4.6,6.2-8.8
				C98.1,35,96.3,32.8,93.8,31.8L93.8,31.8z M91.2,42c-1.7,0-3.1-1.3-3.2-3l0,0c0-1.7,1.4-3.1,3.1-3.2c1.6,0.1,2.9,1.3,3,2.9
				C94.3,40.4,93,41.9,91.2,42C91.3,42,91.3,42,91.2,42z"/>
			<path class="st2" d="M96.6,66.3c-2.5-1.5-5.6-1.4-8,0.2c-0.3,0.2-0.7,0.2-0.9,0c-0.2-0.1-0.4-0.2-0.6-0.4
				c-2.6-1.5-5.2-3.1-7.8-4.6c-0.8-0.6-1.9-0.8-2.8-0.5c-0.7,0.2-1.3,0.4-2,0.6l-15.2,4l1.2,4.3c5.2-1.3,10.3-2.7,15.4-4
				c0.4-0.1,0.8-0.1,1.2,0.2c0.7,0.4,1.3,0.8,2,1.2c1.9,1.1,3.8,2.2,5.7,3.3c0.4,0.2,0.7,0.6,0.6,1.1c-0.6,3.7,1.6,7.2,5.1,8.4
				C93.6,81,97,80,99,77.5c2.5-3.4,1.8-8.1-1.6-10.7C97,66.5,96.8,66.4,96.6,66.3z M92.6,75.9c-1.7,0-3.1-1.4-3-3.2
				c0-1.7,1.4-3.1,3.2-3l0,0c1.7,0,3.1,1.4,3,3.2C95.8,74.6,94.4,75.9,92.6,75.9z"/>
			<path class="st2" d="M111.7,46.7c-4-1.3-8.2,0.9-9.5,4.9c-0.1,0.4-0.2,0.9-0.3,1.4c0,0.5-0.4,0.9-0.9,1c-2.5,0.6-5,1.3-7.4,1.9
				c-0.3,0.1-0.6,0-0.9-0.2c-3.3-2-6.7-3.9-10-5.8c-0.4-0.2-0.9-0.3-1.3-0.2l-23,6l-1.6,0.4l1.2,4.3l9.4-2.5c3.7-1,7.5-1.9,11.2-3
				c1.3-0.4,2.6-0.6,3.7,0.5c0.1,0,0.1,0.1,0.2,0.1c2.6,1.5,5.2,3,7.8,4.6c0.7,0.5,1.7,0.7,2.6,0.4c3.2-0.9,6.3-1.7,9.5-2.5
				c0.4-0.2,0.8,0,1,0.3c1.8,2.5,5,3.7,8,2.8c3.3-0.8,5.6-3.8,5.7-7.2C117,50.7,114.8,47.8,111.7,46.7z M109.5,57
				c-1.7,0.1-3.1-1.2-3.2-2.9V54c0-1.7,1.3-3.1,3-3.2c1.7,0,3.1,1.3,3.2,3C112.5,55.5,111.2,56.9,109.5,57z"/>
			<path class="st2" d="M80.8,2.8c-2.1-1.9-5.2-2.3-7.8-1.2c-2.6,1-4.5,3.4-4.7,6.2c-0.2,1.8,0.3,3.7,1.4,5.1c0.2,0.3,0.5,0.5,0.2,1
				c-1.7,2.8-3.3,5.6-4.9,8.4c-0.2,0.4-0.6,0.6-1,0.7l-15,4l1.1,4.3l9.4-2.5c2.8-0.7,5.6-1.5,8.4-2.2c0.4-0.1,0.8-0.4,1-0.8l4.9-8.5
				c0.4-0.8,0.8-1.6,1.8-1.2c2.6,0.1,5-1.2,6.4-3.3C84.3,9.7,83.7,5.3,80.8,2.8z M75.8,11.7c-1.7,0-3.1-1.4-3.1-3.1s1.4-3.1,3.1-3.1
				c0.1,0,0.2,0,0.3,0c1.7,0.1,3,1.5,3,3.1C79,10.4,77.6,11.7,75.8,11.7z"/>
			<path class="st2" d="M103.6,10.3C100,8.2,95.3,9.4,93.2,13c-0.5,0.9-0.9,1.9-1,2.9c-0.1,0.7-0.4,0.9-1,1.1
				c-3.3,0.8-6.6,1.7-9.9,2.5c-0.4,0.1-0.8,0.4-1,0.8c-1.8,3.1-3.6,6.3-5.5,9.5c-0.3,0.5-0.5,1-1.2,1.2c-4.4,1.1-8.7,2.3-13.1,3.4
				l-8.3,2.2l1.1,4.3l0.6-0.2c7.8-2,15.6-4,23.3-6.1c0.5-0.1,0.8-0.4,1.1-0.8c2-3.4,3.9-6.7,5.8-10.1c0.2-0.4,0.6-0.6,1-0.7
				c2.5-0.6,4.9-1.3,7.4-2c0.4-0.1,0.8,0,1,0.4c1.7,2.4,4.7,3.5,7.6,2.9c4.1-0.8,6.8-4.7,6-8.8C106.8,13.2,105.5,11.4,103.6,10.3
				L103.6,10.3z M99.7,19.9c-1.7,0.1-3-1.2-3.1-2.9c0-0.1,0-0.1,0-0.2c0-1.7,1.4-3.1,3.1-3.1s3.1,1.4,3.1,3.1
				C102.8,18.5,101.5,19.9,99.7,19.9L99.7,19.9z"/>
			<path class="st2" d="M56.3,48.9c2.5,9.2,4.8,18.4,7.4,27.5c1.4,5-1.5,10.2-6.5,11.5c-0.5,0.1-0.9,0.2-1.4,0.3
				c-0.8,0.1-1.5,0-2.2-0.3c-8-3.1-16.1-6.1-24.1-9.2c-0.6-0.2-1.3-0.3-1.9-0.1c-3.3,0.9-6.6,1.8-9.9,2.6c-4.8,1.3-9.7-1.6-11-6.4
				C4.6,67,2.6,59.1,0.4,51.3C-0.9,46.4,2,41.3,6.9,40c3.2-0.8,6.4-1.7,9.6-2.5c0.7-0.2,1.3-0.5,1.7-1.1
				c5.2-6.4,10.5-12.7,15.6-19.2c2.3-2.9,5.1-3.5,8.3-2.8c3.3,0.6,6,3.2,6.7,6.5C51.3,30.4,53.8,39.6,56.3,48.9z M50.3,50.4
				L50.3,50.4c-2.4-9-4.9-18-7.3-27.1c-0.1-0.5-0.3-1-0.6-1.4c-0.6-1.2-1.9-1.7-3.1-1.1c-0.4,0.2-0.7,0.5-0.9,0.8
				c-4.9,6.1-9.9,12.1-14.9,18.1c-0.6,0.6-0.8,1.4-0.5,2.1c2.7,10,5.4,19.9,8,29.9c0.1,0.6,0.5,1.1,1.1,1.2c7.5,2.8,15,5.6,22.5,8.5
				c1,0.5,2.3,0.1,2.8-0.9c0.1-0.2,0.1-0.3,0.2-0.5c0.3-0.9,0.2-1.9-0.1-2.8L50.3,50.4z M21.1,58.4L21.1,58.4
				c-1.2-4.6-2.4-9.1-3.7-13.7c-0.1-0.4-0.2-1-0.9-0.8c-2.7,0.7-5.4,1.4-8,2.2c-1.2,0.3-2.1,1.3-2.2,2.6c0,0.7,0.1,1.4,0.3,2
				l5.8,21.8c0.6,2.4,2,3.2,4.4,2.6s4.7-1.3,7.1-1.9c0.8-0.2,1-0.6,0.7-1.3C23.4,67.4,22.2,62.9,21.1,58.4L21.1,58.4z"/>
		</g>
	</g>
</g>
</svg>
